<svg id="Layer_1" data-name="Layer 1" xmlns="http://www.w3.org/2000/svg" viewBox="0 0 305.54 447.67"><defs><style>.cls-1{fill:#f08d40;}.cls-1,.cls-2,.cls-3,.cls-4,.cls-5,.cls-8,.cls-9{fill-rule:evenodd;}.cls-2{fill:#ec9351;}.cls-3{fill:#fff0da;}.cls-4{fill:#58595b;}.cls-5{fill:#de8746;}.cls-6{fill:#e6e2ea;}.cls-7{fill:#f0eff6;}.cls-8{fill:#f08d44;}.cls-9{fill:#c46d29;}</style></defs><title>box2x2</title><path class="cls-1" d="M673.28,260.42c-56.07-2.36-136.07-30.55-113.59-35,10.19-2,33.19-15.79,40.43-24.81,12.73-15.86,40.27-16.46,73.16-16.49s60.42.63,73.17,16.49c7.23,9,29,22.81,39.21,24.81,22.46,4.4-56.33,32.59-112.38,35" transform="translate(-511.82 -52.02)"/><path class="cls-1" d="M675.49,224.32c-20.88-1.88-86.61-32.51-100.27-47.08-1.48-1.58,11.86-13.9,14.66-24.83a94.37,94.37,0,0,0,2.69-15.36,3.78,3.78,0,0,0-1.43-3.23c-17.83-9.34-40.54-46-27.67-81.74.37-1,46.35,9.71,70.23,37.32,15.88-5.16,34.91-6.62,54.38-4.86S726,91.11,740.73,99c28.43-22.9,75.57-25.23,75.76-24.19,6.28,37.46-22.61,69.48-41.82,75.49a3.77,3.77,0,0,0-2,2.93,94.57,94.57,0,0,0-.1,15.58c.8,11.27,11.72,25.77,10,27.06-16.06,11.89-86.19,30.3-107.09,28.42" transform="translate(-511.82 -52.02)"/><path class="cls-2" d="M575.12,177c-.34-2.32,12.07-14.09,14.75-24.59a94.37,94.37,0,0,0,2.69-15.36,4.34,4.34,0,0,0-.32-1.81c2.23-3.08,4.7-6.69,7.33-10.47l0,0,0,0,0,0,0,0,.07-.09,0,0,0,0,0,0,0,0,0,0,0,0,0,0,0-.05,0,0,0,0h0l0,0,0,0,0,0,0,0,0,0,0,0,0-.05,0,0,0,0,0,0,0,0,0,0,0,0,0-.05,0,0,0-.05,0,0,.31-.46,0,0,0,0,0,0,0-.05,0,0,0,0,0-.05,0-.05,0,0,0,0c1.4-2,2.84-4.09,4.32-6.15.15-.2.31-.4.44-.62,9.67-13.46,20.19-26.38,27.66-26.2,4.54.11,19.49,20.25,29.3,41.17,7.11,15.15,11.37,28.15,13.45,41h0c.06.36.13.71.18,1.07v0c.06.45.13.9.19,1.35h0c.07.45.13.91.19,1.36h0c.06.46.11.91.16,1.36h0l0,.35h0a148.46,148.46,0,0,1,.41,27.71l0,.27h0v.09h0c0,.21,0,.41,0,.61h0c-.46,6.16-1.2,12.62-2.19,19.56-22-4-79.94-31.62-103.75-44.57-.65-.35.63-1.93,3.48-3.89M677,175.46l.16,1.36c-.05-.45-.1-.9-.16-1.36m-86.34-41.88a11.42,11.42,0,0,0-3.13-2,32.58,32.58,0,0,0,3.13,2" transform="translate(-511.82 -52.02)"/><path class="cls-2" d="M684.26,171.52l0,.06Zm-2.2,6.7,0,.05h0ZM701,139.49h0v0Zm81.76,56.19c.73-2.22-9.37-16-10.15-26.84a96.29,96.29,0,0,1,.11-15.58,4.13,4.13,0,0,1,.63-1.72c-1.63-3.43-3.45-7.41-5.34-11.6l0-.06,0,0,0,0,0,0,0-.06,0,0,0,0,0,0v0l0-.06,0,0,0,0,0-.06,0,0,0,0,0-.05,0-.06,0,0V139l0-.05,0,0,0-.05,0,0,0-.05,0-.06,0,0,0-.05,0-.05,0-.05v0l0,0,0-.05,0,0,0-.05,0,0,0-.05v0l0-.07,0,0v-.05l0-.05,0,0,0-.05v0l0-.05,0-.1,0-.05,0,0,0-.06,0,0v0l0-.05,0-.05v-.05l0-.06,0,0h0v0l0-.05,0,0,0-.05,0-.05,0-.05,0-.05c-.94-2.06-1.91-4.16-2.9-6.26h0v0h0l-.22-.46h0v0h0l0,0h0c-7.1-15-15.17-29.57-22.54-30.72-4.46-.69-22.79,16.45-36.19,35.29-1.24,1.75-2.44,3.47-3.56,5.17v0a146.28,146.28,0,0,0-16.71,32l0,.06c-.08.23-.16.47-.25.72h0c-.13.34-.24.68-.36,1h0c-.14.44-.29.87-.45,1.3h0c-.33,1-.63,2-.93,3h0c-.07.2-.12.4-.18.59l0,.05a148.34,148.34,0,0,0-5.17,26.56l0,.26h0v.14h0v0h0c0,.19,0,.38-.06.58h0c-.66,6.14-1.08,12.63-1.36,19.63,22.35,0,84.29-16.85,110-25.33.69-.23-.27-2-2.71-4.45m-7.57-45.5a11.88,11.88,0,0,1,3.44-1.38,36.47,36.47,0,0,1-3.44,1.38" transform="translate(-511.82 -52.02)"/><path class="cls-3" d="M675.39,225.46c-22-4-79.94-31.62-103.75-44.57-3.18-1.73,40.7-33.33,86.13,4.85,2.78,2.33,18.81,18.08,19.32,20.88,1-2.66,19.57-15.29,22.74-17.1,51.52-29.45,89.05,9.47,85.6,10.6-25.74,8.48-87.69,25.33-110,25.33" transform="translate(-511.82 -52.02)"/><path class="cls-4" d="M677.25,204.88c4.15.2,8.19.67,7.55,1.89-1,1.91-7.68,9.59-8.76,11.56-.7-2.14-6-10.89-6.57-12.95-.4-1.3,3.63-1.06,7.79-.51" transform="translate(-511.82 -52.02)"/><path class="cls-5" d="M811.07,83.92c-1.64-3.83-25.7,3.29-39.44,16.18-.7.65,9.42,3.08,8.76,3.75-2.62,2.65-6.2,5.93-8.87,8.74-5.92,6.26,15.89-7.83-1.54,13.81-1.66,2,5.92,2,6.89,3.94.65,1.33-3.18,6.5-1.65,7.71,8.16,6.4,42.85-37.88,35.84-54.14" transform="translate(-511.82 -52.02)"/><path class="cls-4" d="M727.31,178c-.95.62-2.74,2.82-2.48,2.84,1.07.1,5.15-1.22,9.22-1.72a71.69,71.69,0,0,1,9.8-.1c1.92,0-6.38-4.42-7.82-4.44-4.62,0-6.9,2.21-8.72,3.42" transform="translate(-511.82 -52.02)"/><path class="cls-4" d="M634.28,169.81c.8.8,2.14,3.29,1.88,3.27-1.06-.11-4.82-2.19-8.72-3.47a70.9,70.9,0,0,0-9.59-2c-1.88-.38,7.1-3.11,8.52-2.85,4.54.87,6.35,3.5,7.91,5" transform="translate(-511.82 -52.02)"/><rect class="cls-6" x="15.38" y="171.79" width="275.87" height="275.87"/><rect class="cls-7" x="34.9" y="191.31" width="236.83" height="236.84"/><path class="cls-8" d="M793.56,254.73c0-9.19,5.25-16.65,11.76-16.65s11.78,7.46,11.78,16.65-5.27,16.65-11.78,16.65-11.76-7.46-11.76-16.65" transform="translate(-511.82 -52.02)"/><path class="cls-9" d="M805.31,271.37V238.08H798.2a5.63,5.63,0,0,0,0,11.27,5.64,5.64,0,0,0,0,11.27H798a5.38,5.38,0,1,0,0,10.75Z" transform="translate(-511.82 -52.02)"/><path class="cls-8" d="M538.48,241.75c0-10.41-6-18.86-13.32-18.86s-13.33,8.45-13.33,18.86,6,18.87,13.33,18.87,13.32-8.45,13.32-18.87" transform="translate(-511.82 -52.02)"/><path class="cls-9" d="M525.16,260.61V222.89h8a6.38,6.38,0,1,1,0,12.77,6.39,6.39,0,0,1,0,12.78h.31a6.09,6.09,0,0,1,0,12.19Z" transform="translate(-511.82 -52.02)"/></svg>