<svg id="Layer_1" data-name="Layer 1" xmlns="http://www.w3.org/2000/svg" viewBox="0 0 358.77 438.07"><defs><style>.cls-1{fill:#f08d40;}.cls-1,.cls-2,.cls-3,.cls-4,.cls-5,.cls-8,.cls-9{fill-rule:evenodd;}.cls-2{fill:#ec9351;}.cls-3{fill:#fff0da;}.cls-4{fill:#58595b;}.cls-5{fill:#de8746;}.cls-6{fill:#e6e2ea;}.cls-7{fill:#f0eff6;}.cls-8{fill:#f08d44;}.cls-9{fill:#c46d29;}</style></defs><title>box4x4</title><path class="cls-1" d="M694.52,285.56c-62.83-2.65-152.49-34.24-127.3-39.17,11.42-2.23,37.19-17.7,45.31-27.8,14.26-17.78,45.13-18.45,82-18.48s67.71.7,82,18.48c8.1,10.1,32.5,25.57,43.94,27.8,25.17,4.93-63.12,36.52-125.94,39.17" transform="translate(-497.23 -52.02)"/><path class="cls-1" d="M697,245.11c-23.4-2.11-97.06-36.43-112.37-52.76-1.66-1.78,13.29-15.57,16.43-27.83a105.76,105.76,0,0,0,3-17.21c.1-1.11-.5-3-1.61-3.62-20-10.47-45.43-51.57-31-91.6C571.87,51,623.4,63,650.16,93.91c17.8-5.79,39.13-7.42,60.94-5.45s42.53,7.37,59,16.24C802,79,854.8,76.42,855,77.6c7,42-25.34,77.86-46.86,84.59-1.2.38-2.13,2.17-2.23,3.28a106,106,0,0,0-.11,17.46c.89,12.63,13.13,28.88,11.2,30.33-18,13.33-96.59,34-120,31.85" transform="translate(-497.23 -52.02)"/><path class="cls-2" d="M584.52,192.09c-.38-2.6,13.52-15.79,16.53-27.56a105.76,105.76,0,0,0,3-17.21,4.86,4.86,0,0,0-.35-2c2.5-3.45,5.27-7.49,8.22-11.73l0,0,0,0,0-.05,0,0,.08-.1,0,0,0-.05.05,0,0-.05,0,0,0-.05,0,0,0-.06,0,0,0,0h0l0,0,0,0,0-.05,0-.05,0,0,0,0,0-.06,0-.05,0,0,0,0,0-.05,0-.05,0,0,0-.06,0,0,0-.06,0-.05.35-.52,0,0,0-.05,0,0,0-.06,0-.05,0,0,0-.06,0-.06,0,0,0,0c1.57-2.28,3.18-4.59,4.84-6.89.17-.22.34-.45.5-.69,10.84-15.09,22.63-29.57,31-29.36C655.24,94,672,116.61,683,140.06c8,17,12.74,31.55,15.08,46h0c.07.4.15.8.2,1.2v0c.07.5.15,1,.21,1.51h0c.07.51.15,1,.21,1.52h0c.07.52.12,1,.18,1.53h0l.05.39h0a166.38,166.38,0,0,1,.46,31.05l0,.3h0v.13c0,.23,0,.45,0,.68h0c-.52,6.9-1.35,14.14-2.45,21.92-24.64-4.48-89.58-35.44-116.27-49.94-.73-.39.71-2.16,3.9-4.36m114.19-1.74.18,1.53c-.06-.51-.11-1-.18-1.53M602,143.42a12.8,12.8,0,0,0-3.51-2.2,36.51,36.51,0,0,0,3.51,2.2" transform="translate(-497.23 -52.02)"/><path class="cls-2" d="M706.83,185.93l0,.07Zm-2.47,7.5,0,.06h0ZM725.56,150h0v0Zm91.63,63c.82-2.48-10.5-17.94-11.38-30.08a107.9,107.9,0,0,1,.12-17.46,4.63,4.63,0,0,1,.7-1.93c-1.83-3.85-3.86-8.3-6-13l0-.06,0-.05,0-.05,0-.05,0-.06,0-.06,0-.05,0-.06V150l0-.07,0,0,0-.06,0-.06,0,0,0-.05,0-.06,0-.06,0,0,0-.06,0-.06,0-.05,0-.06,0-.05,0-.06,0-.07,0,0,0-.06,0-.06,0-.06v-.05l0-.05,0-.06,0-.06,0-.06,0-.05,0-.06v0l0-.08,0-.05,0-.06,0-.06,0-.05,0-.06v-.05l-.05-.06,0-.11,0-.06,0-.05,0-.06,0-.05v-.05l0-.06,0-.06,0-.06,0-.06,0,0h0l0,0,0-.06,0-.05,0-.06,0-.06,0-.06,0-.06c-1.06-2.31-2.14-4.66-3.25-7v0h0v0h0l-.25-.52h0v0h0l0,0h0v0c-8-16.77-17-33.13-25.26-34.43-5-.78-25.54,18.44-40.55,39.55-1.39,2-2.74,3.89-4,5.8v0c-8.48,12.62-14.47,24.15-18.72,35.87l0,.07c-.08.26-.18.53-.28.81v0c-.15.38-.27.76-.41,1.15h0c-.16.49-.33,1-.51,1.46h0c-.37,1.11-.71,2.21-1,3.33h0c-.08.22-.13.45-.2.66l0,.06a166.24,166.24,0,0,0-5.8,29.76l0,.29h0v.16h0v0h0c0,.22,0,.43-.07.65h0c-.74,6.88-1.21,14.15-1.52,22,25.05,0,94.46-18.88,123.32-28.38.78-.26-.31-2.25-3-5m-8.49-51a13.31,13.31,0,0,1,3.86-1.54A40.87,40.87,0,0,1,808.7,162" transform="translate(-497.23 -52.02)"/><path class="cls-3" d="M696.89,246.39c-24.64-4.48-89.58-35.44-116.27-49.94-3.57-1.93,45.61-37.35,96.53,5.44,3.11,2.62,21.08,20.26,21.65,23.4,1.13-3,21.94-17.14,25.49-19.16,57.74-33,99.8,10.61,95.93,11.88-28.85,9.51-98.27,28.38-123.33,28.38" transform="translate(-497.23 -52.02)"/><path class="cls-4" d="M699,223.33c4.65.22,9.18.75,8.46,2.12-1.09,2.14-8.61,10.74-9.82,13-.78-2.4-6.67-12.2-7.37-14.51-.45-1.46,4.07-1.19,8.73-.57" transform="translate(-497.23 -52.02)"/><path class="cls-5" d="M848.94,87.77c-1.84-4.29-28.8,3.68-44.19,18.14-.79.73,10.56,3.46,9.82,4.21-2.93,3-6.95,6.65-9.95,9.8-6.64,7,17.81-8.78-1.72,15.48-1.86,2.29,6.63,2.21,7.72,4.42.73,1.49-3.56,7.29-1.85,8.64,9.15,7.17,48-42.45,40.17-60.68" transform="translate(-497.23 -52.02)"/><path class="cls-4" d="M755.07,193.2c-1.06.7-3.07,3.16-2.78,3.18,1.2.11,5.77-1.37,10.33-1.93,4.11-.51,8.15-.11,11-.11,2.15,0-7.15-5-8.76-5-5.18,0-7.73,2.47-9.78,3.84" transform="translate(-497.23 -52.02)"/><path class="cls-4" d="M650.82,184c.89.89,2.4,3.69,2.11,3.66-1.19-.12-5.41-2.46-9.77-3.89-3.93-1.3-8-1.68-10.75-2.23-2.1-.42,8-3.49,9.55-3.19,5.09,1,7.11,3.93,8.87,5.66" transform="translate(-497.23 -52.02)"/><rect class="cls-6" x="18.11" y="190.09" width="324.86" height="247.98"/><rect class="cls-7" x="34.22" y="207.63" width="292.62" height="212.89"/><path class="cls-8" d="M829.31,279.19c0-10.3,5.89-18.65,13.18-18.65s13.2,8.36,13.2,18.65-5.91,18.66-13.2,18.66-13.18-8.36-13.18-18.66" transform="translate(-497.23 -52.02)"/><path class="cls-9" d="M842.49,297.84V260.53h-8a6.31,6.31,0,0,0,0,12.63,6.32,6.32,0,0,0,0,12.63h-.27a6,6,0,1,0,0,12.05Z" transform="translate(-497.23 -52.02)"/><path class="cls-8" d="M527.1,265.62c0-11.67-6.68-21.14-14.93-21.14s-14.94,9.47-14.94,21.14,6.69,21.14,14.94,21.14,14.93-9.47,14.93-21.14" transform="translate(-497.23 -52.02)"/><path class="cls-9" d="M512.17,286.76V244.48h9a7.15,7.15,0,1,1,0,14.31,7.16,7.16,0,0,1,0,14.32h.35a6.83,6.83,0,0,1,0,13.66Z" transform="translate(-497.23 -52.02)"/></svg>