<svg id="Layer_1" data-name="Layer 1" xmlns="http://www.w3.org/2000/svg" viewBox="0 0 399.24 577.14"><defs><style>.cls-1{fill:#f08d40;}.cls-1,.cls-2,.cls-3,.cls-4,.cls-5,.cls-8,.cls-9{fill-rule:evenodd;}.cls-2{fill:#ec9351;}.cls-3{fill:#fff0da;}.cls-4{fill:#58595b;}.cls-5{fill:#de8746;}.cls-6{fill:#f0eff6;}.cls-7{fill:#e6e2ea;}.cls-8{fill:#f08d44;}.cls-9{fill:#c46d29;}</style></defs><title>boxm&amp;amp;m</title><path class="cls-1" d="M681.54,298.31c-68.06-2.87-165.19-37.09-137.9-42.43,12.37-2.42,40.29-19.17,49.08-30.12,15.45-19.26,48.88-20,88.82-20s73.35.76,88.82,20c8.77,10.94,35.21,27.69,47.6,30.12,27.27,5.34-68.38,39.56-136.43,42.43" transform="translate(-457.22 -45.32)"/><path class="cls-1" d="M684.23,254.49C658.89,252.21,579.09,215,562.5,197.34c-1.79-1.92,14.4-16.87,17.8-30.15a114.57,114.57,0,0,0,3.27-18.64c.11-1.2-.55-3.29-1.74-3.93-21.64-11.34-49.22-55.86-33.59-99.23.45-1.22,56.27,11.79,85.26,45.31,19.28-6.27,42.38-8,66-5.9s46.07,8,63.93,17.59c34.52-27.8,91.74-30.63,92-29.36,7.62,45.47-27.45,84.34-50.76,91.64-1.3.42-2.31,2.36-2.42,3.56a114.81,114.81,0,0,0-.12,18.92c1,13.69,14.23,31.29,12.13,32.85-19.5,14.44-104.63,36.78-130,34.5" transform="translate(-457.22 -45.32)"/><path class="cls-2" d="M562.39,197.05c-.41-2.82,14.65-17.11,17.91-29.86a114.57,114.57,0,0,0,3.27-18.64,5.27,5.27,0,0,0-.38-2.19c2.71-3.74,5.71-8.12,8.9-12.71l0,0,0-.05,0-.06,0-.05.08-.11,0-.05,0-.06.06-.05,0-.06,0-.05,0-.06,0-.05,0-.06.05,0,0,0h0l0-.05,0-.05,0-.06,0-.06,0-.05,0,0,.05-.07,0-.06,0,0,0-.05.05-.06,0-.06,0,0,0-.06,0,0,0-.06.05-.06.38-.56,0-.05,0-.06,0,0,0-.07,0-.06,0,0,0-.06,0-.06,0-.05,0,0c1.7-2.47,3.45-5,5.25-7.47.18-.24.37-.49.54-.75,11.74-16.34,24.51-32,33.58-31.81,5.51.13,23.66,24.58,35.57,50,8.63,18.39,13.8,34.18,16.33,49.83h0c.08.44.16.86.22,1.3v0c.08.54.16,1.1.23,1.64h0c.08.55.16,1.1.23,1.65h0c.07.56.13,1.11.2,1.66h0l.06.42h0a180.23,180.23,0,0,1,.5,33.64l0,.33h0v.14c0,.25,0,.49-.05.74h0c-.56,7.48-1.46,15.32-2.66,23.74-26.69-4.85-97-38.39-125.95-54.1-.79-.42.77-2.34,4.23-4.72m123.7-1.88.2,1.66c-.07-.55-.12-1.09-.2-1.66M581.27,144.33a13.87,13.87,0,0,0-3.8-2.38,39.55,39.55,0,0,0,3.8,2.38" transform="translate(-457.22 -45.32)"/><path class="cls-2" d="M694.87,190.38l0,.08Zm-2.68,8.13,0,.06h0Zm23-47h0v0Zm99.26,68.21c.88-2.69-11.37-19.44-12.33-32.59a116.89,116.89,0,0,1,.13-18.92,5,5,0,0,1,.76-2.09c-2-4.17-4.18-9-6.48-14.08l0-.07,0-.06,0-.06-.05-.06,0-.07,0-.06,0-.06,0-.06v-.06l0-.07,0,0,0-.06,0-.07,0-.05,0-.06,0-.06,0-.07,0-.05,0-.07,0-.06,0-.06,0-.06,0-.06,0-.06,0-.07,0-.05,0-.06,0-.06,0-.07v-.06l0-.06,0-.07,0-.06,0-.06,0-.06,0-.06v0l-.05-.09,0-.06,0-.06,0-.07,0-.06,0-.07v-.06l-.06-.07,0-.12,0-.06,0-.06,0-.07,0-.06v-.06l0-.07,0-.07,0-.06,0-.07,0-.05h0l0-.05,0-.06,0-.06,0-.06,0-.06,0-.06,0-.06c-1.14-2.5-2.31-5-3.52-7.59v0h0v0h0l-.27-.56h0v0h0l0,0h0v0c-8.62-18.17-18.41-35.89-27.36-37.3-5.42-.84-27.67,20-43.93,42.84-1.5,2.12-3,4.21-4.33,6.28v0c-9.18,13.67-15.68,26.16-20.28,38.85l0,.08c-.09.28-.19.58-.31.88v0c-.16.41-.29.82-.44,1.24h0c-.18.53-.36,1.06-.55,1.58h0c-.4,1.2-.77,2.39-1.13,3.61h0c-.08.24-.14.48-.21.72l0,.06a180.08,180.08,0,0,0-6.28,32.24l0,.31h0v.18h0v0h0c0,.24-.05.47-.07.7h0c-.8,7.46-1.31,15.33-1.65,23.84,27.14,0,102.33-20.45,133.59-30.75.84-.28-.33-2.44-3.29-5.41m-9.19-55.24a14.42,14.42,0,0,1,4.18-1.67,44.28,44.28,0,0,1-4.18,1.67" transform="translate(-457.22 -45.32)"/><path class="cls-3" d="M684.11,255.88c-26.69-4.85-97-38.39-125.95-54.1-3.86-2.09,49.41-40.46,104.56,5.89,3.37,2.83,22.83,21.95,23.45,25.35,1.22-3.23,23.76-18.56,27.61-20.76,62.54-35.75,108.11,11.5,103.92,12.87-31.25,10.3-106.45,30.75-133.59,30.75" transform="translate(-457.22 -45.32)"/><path class="cls-4" d="M686.37,230.89c5,.24,9.94.82,9.16,2.3-1.18,2.31-9.33,11.64-10.64,14-.85-2.59-7.23-13.22-8-15.72-.49-1.58,4.41-1.29,9.45-.62" transform="translate(-457.22 -45.32)"/><path class="cls-5" d="M848.82,84c-2-4.65-31.2,4-47.87,19.65-.85.79,11.44,3.74,10.64,4.56-3.18,3.21-7.53,7.2-10.77,10.62-7.19,7.6,19.29-9.51-1.87,16.77-2,2.48,7.18,2.39,8.36,4.79.79,1.62-3.86,7.9-2,9.36,9.91,7.77,52-46,43.51-65.73" transform="translate(-457.22 -45.32)"/><path class="cls-4" d="M747.14,198.25c-1.15.76-3.32,3.42-3,3.44,1.3.12,6.25-1.48,11.19-2.09,4.45-.55,8.83-.12,11.9-.12,2.33,0-7.74-5.37-9.49-5.39-5.61,0-8.38,2.68-10.59,4.16" transform="translate(-457.22 -45.32)"/><path class="cls-4" d="M634.2,188.31c1,1,2.6,4,2.28,4-1.29-.13-5.86-2.66-10.59-4.22-4.26-1.41-8.63-1.82-11.65-2.42-2.28-.46,8.62-3.78,10.34-3.46,5.51,1.05,7.7,4.25,9.61,6.13" transform="translate(-457.22 -45.32)"/><rect class="cls-6" x="12.78" y="206.77" width="372.8" height="370.37"/><rect class="cls-7" x="33.7" y="227.55" width="330.96" height="328.8"/><path class="cls-8" d="M827.56,291.4c0-11.16,6.38-20.21,14.28-20.21s14.3,9.05,14.3,20.21-6.4,20.21-14.3,20.21-14.28-9.05-14.28-20.21" transform="translate(-457.22 -45.32)"/><path class="cls-9" d="M841.83,311.61V271.19H833.2a6.84,6.84,0,0,0,0,13.68,6.84,6.84,0,0,0,0,13.69h-.29a6.53,6.53,0,1,0,0,13.05Z" transform="translate(-457.22 -45.32)"/><path class="cls-8" d="M489.58,279.85c0-12.64-7.24-22.9-16.18-22.9s-16.18,10.25-16.18,22.9,7.25,22.9,16.18,22.9,16.18-10.26,16.18-22.9" transform="translate(-457.22 -45.32)"/><path class="cls-9" d="M473.4,302.75v-45.8h9.76a7.75,7.75,0,1,1,0,15.5,7.76,7.76,0,0,1,0,15.51h.38a7.4,7.4,0,0,1,0,14.79Z" transform="translate(-457.22 -45.32)"/></svg>