<svg id="Layer_1" data-name="Layer 1" xmlns="http://www.w3.org/2000/svg" xmlns:xlink="http://www.w3.org/1999/xlink" viewBox="0 0 475.98 416.01"><defs><style>.cls-1,.cls-17,.cls-34,.cls-53,.cls-54,.cls-62,.cls-71,.cls-89,.cls-90{fill:none;}.cls-2{fill:#f08d40;}.cls-15,.cls-16,.cls-17,.cls-18,.cls-19,.cls-2,.cls-20,.cls-21,.cls-22,.cls-23,.cls-24,.cls-25,.cls-26,.cls-3,.cls-39,.cls-4,.cls-40,.cls-41,.cls-42,.cls-44,.cls-45,.cls-47,.cls-5,.cls-6,.cls-7,.cls-73,.cls-84,.cls-85,.cls-86,.cls-87{fill-rule:evenodd;}.cls-3{fill:#c2783d;}.cls-4{fill:#ec8e49;}.cls-5{fill:#e68b47;}.cls-6{fill:#fff0da;}.cls-7{fill:#ffe6c7;}.cls-8{fill:#ff9600;}.cls-9{fill:#ffbf0d;}.cls-10{fill:#f0eff6;}.cls-11{fill:#e6e2ea;}.cls-12{fill:#33b4af;}.cls-13,.cls-18{fill:#fff;}.cls-14{fill:#ffcc47;}.cls-15{fill:#97c03c;}.cls-16{fill:#a5cd39;}.cls-17{stroke:#47a4ad;stroke-miterlimit:2.61;stroke-width:0.32px;}.cls-19{fill:#d13627;}.cls-20{fill:#ee4023;}.cls-21{fill:#f9a421;}.cls-22{fill:#f8c113;}.cls-23{fill:#77b3ab;}.cls-24{fill:#eacc55;}.cls-25{fill:#c5596a;}.cls-26{fill:#7b59a4;}.cls-27{fill:#592d18;}.cls-28{fill:#69c7c7;}.cls-29{fill:#3b2924;}.cls-30{fill:#fcd9c9;}.cls-31{opacity:0.6;}.cls-32{clip-path:url(#clip-path);}.cls-33{fill:#f8b0a2;}.cls-34,.cls-53,.cls-54{stroke:#8c605d;}.cls-34,.cls-53,.cls-54,.cls-62{stroke-miterlimit:10;}.cls-34{stroke-width:0.06px;}.cls-35{fill:#fcded4;}.cls-36{fill:#010101;}.cls-37{fill:#127f97;}.cls-38{fill:#f17069;}.cls-39{fill:#84aad9;}.cls-40,.cls-46{fill:#fff8ad;}.cls-41{fill:#f9a646;}.cls-42{fill:#fac3aa;}.cls-43{fill:#f8a770;}.cls-44{fill:#fcbb5b;}.cls-45{fill:#f37b20;}.cls-47{fill:#ca436a;}.cls-48,.cls-73{fill:#dbe135;}.cls-49{fill:#fcf1d0;}.cls-50{fill:#f7b1ab;}.cls-51{fill:#f16452;}.cls-52{fill:#f8b1a1;}.cls-53,.cls-54{stroke-width:0.06px;}.cls-54,.cls-71{stroke-linecap:round;}.cls-55{clip-path:url(#clip-path-2);}.cls-56{fill:#66cced;}.cls-57{fill:#f49db1;}.cls-58{fill:#ecdfd2;}.cls-59{fill:#3c3d3c;}.cls-60{fill:#ee384b;}.cls-61{fill:#f7b132;}.cls-62{stroke:#f7b132;stroke-width:0px;}.cls-63{fill:#6fc49a;}.cls-64{fill:#6387c5;}.cls-65{fill:#d8d9d8;}.cls-66{fill:#71706f;}.cls-67{fill:#858585;}.cls-68{fill:#2d2d2c;}.cls-69{opacity:0.1;}.cls-70{clip-path:url(#clip-path-3);}.cls-71{stroke:#fff;stroke-width:0.7px;}.cls-71,.cls-89,.cls-90{stroke-linejoin:round;}.cls-72{fill:#433e72;}.cls-74{fill:#ee4b8f;}.cls-75{fill:#2d9cb6;}.cls-76{fill:#faae40;}.cls-77{fill:#ee434d;}.cls-78{fill:#2fb4aa;}.cls-79{fill:#ed3255;}.cls-80{fill:#b9ca32;}.cls-81{fill:#ededed;}.cls-82{fill:#e4e4e4;}.cls-83{fill:#d2d2d2;}.cls-84{fill:#ec9351;}.cls-85{fill:#fbe1bf;}.cls-86{fill:#58595b;}.cls-87{fill:#de8746;}.cls-88{opacity:0.6;}.cls-89,.cls-90{stroke:#231f20;}.cls-89{stroke-width:1.44px;}.cls-90{stroke-width:2.03px;}</style><clipPath id="clip-path" transform="translate(-394.46 -171.38)"><rect class="cls-1" x="655.63" y="502.17" width="4.41" height="4.17" transform="translate(-55.9 82.82) rotate(-6.91)"/></clipPath><clipPath id="clip-path-2" transform="translate(-394.46 -171.38)"><polygon class="cls-1" points="685.78 506.16 689.71 505.69 689.28 502.09 685.34 502.56 685.78 506.16"/></clipPath><clipPath id="clip-path-3" transform="translate(-394.46 -171.38)"><rect class="cls-1" x="762.12" y="424.15" width="3.08" height="3.09" transform="translate(-45.7 95.05) rotate(-6.92)"/></clipPath></defs><title>step3</title><path class="cls-2" d="M483.54,417.6c.65,8.13,1.81,19.06,1.44,28.77a66,66,0,0,1-2.52,14.43c-3.06,10.27-7.18,18.84,3.76,24.14,9.32,4.52,22.35-22.62,25-27.26,5.38-9.32,13.13-20.09,17.07-24.16l.12-.13a45.73,45.73,0,0,1-4.65-1.59l-9.59-4-7.54-2.72h4.49a39.34,39.34,0,0,1-22.24-7.55c-.32-.1-.77-.15-1.11-.23-1.19.1-2.39.14-3.6.13Z" transform="translate(-394.46 -171.38)"/><path class="cls-3" d="M523,497.93a69.33,69.33,0,0,1,1.66,12.73c.3,10.71-.92,20.14,11.13,21.75a4.88,4.88,0,0,0,1.6,0c3.54-1.63,6.41-6.4,8.62-11.74,2.94-8.53,4.4-19,5-21.94.51-2.44,1.11-5,1.77-7.56-4.72,4.44-2.39,2.38-6.95-1.06-1.91-1.45-3,7.12-6.75,3.21-1.82-1.91-2.9,4-7.47,2.79-1.5-.41-2.34-.28-4-1.13C527.18,494.7,525.33,496.85,523,497.93Z" transform="translate(-394.46 -171.38)"/><path class="cls-4" d="M439.54,443c27,10.75,56.74-.2,66.4-24.46s-4.41-52.65-31.42-63.4c-18.3-7.28-49.33-19.81-48.28-70.33.11-5.45-9,4.6-12.78,9.12-19.41,23.5-25,71.73-11.84,107.35C408.2,419.14,425.88,437.59,439.54,443Z" transform="translate(-394.46 -171.38)"/><path class="cls-5" d="M508.88,399.63c-1.27-18.62-14.21-36.45-34.36-44.47-18.3-7.28-49.33-19.81-48.28-70.33,0-2.34-1.61-1.82-3.82-.11-.33,9.81,1.25,19.68,3.86,29.84,3.61,14,9.56,24,22.14,32.5C473.33,364,481.31,362,494.66,377.27c3.23,3.7,7.68,11.24,9,15.68C504.16,394.76,506.32,397.59,508.88,399.63Z" transform="translate(-394.46 -171.38)"/><path class="cls-6" d="M456.15,346.5c-15.45-9.32-30.66-26.06-29.92-61.68.11-5.45-9,4.6-12.78,9.12-19.41,23.5-25,71.73-11.84,107.35.54,1.45,1.15,2.9,1.82,4.36,6,5.67,12.13,11.07,11.76,4.93-1.65-27.53,1.45-13.84,7.4-12.77.14-.26-4.68-14.23-4.6-17.46,4.84,3.69,7.51,4.59,7.72,4.37.39-.39-4.4-5.63-1.11-10.18,1.21,1.32,13,11.37,12.84,8.42a48.33,48.33,0,0,0-2.21-7.52c-5.42-12.57-6.1-12.11,6-7.28,3.07,1.22-4-8.3-.34-6.86,15.8,6.29.38-7.23-4.06-13.4s1.63-2.6,4.53-1.45C447.64,348.94,451.53,348,456.15,346.5Z" transform="translate(-394.46 -171.38)"/><path class="cls-7" d="M456.15,346.5c-15.45-9.32-30.66-26.06-29.92-61.68,0-2.34-1.61-1.82-3.82-.11-.33,9.81,1.25,19.68,3.86,29.84,3.61,14,9.56,24,22.14,32.5l1.31.88A27.38,27.38,0,0,0,456.15,346.5Z" transform="translate(-394.46 -171.38)"/><path class="cls-2" d="M575.23,302l135.88,16.28c-.27.5-19.4,12.73-36.76,26.83C657.18,359,643.83,372.42,635.06,386c-12.35,19.16-18,38.11-33.67,54.13-8.63,8.83-19.65,16.85-37.5,26.32-10.86,5.76-21.43,18.82-28.94,25.77-6.09,5.63-19.54,15-29.16,24.93a66.18,66.18,0,0,0-9.14,12.7c-5.49,10.06-8.83,19.72-21.68,14.78-10.94-4.21-.36-34.8,1.08-40.4,2.91-11.23,5-25.47,5-31.66,0-6.62-2.83-15-3-15.42-1.36-2.79-10.46-8.67-14.3-29.58-7.85-42.72,31.91-68.13,65.67-81.73C549.12,337.91,569,328,575.23,302Z" transform="translate(-394.46 -171.38)"/><path class="cls-3" d="M511,521.64c-.82.79-1.62,1.59-2.39,2.38a66.33,66.33,0,0,0-9.14,12.7c-5.49,10.06-8.83,19.72-21.68,14.78-10.95-4.21-.37-34.8,1.08-40.4,1.11-4.3,2.11-9,2.92-13.59.88-.66,1.65-.64,2.08.74,2.57,8.34,1,4.84,7.93,3.33,2.76-.6-1.2,8.82,4.84,6.51,2.94-1.13.49,5.56,5.8,6.41,1.75.28,2.51.81,4.63.7C507.78,515.18,508.46,519.51,511,521.64Z" transform="translate(-394.46 -171.38)"/><path class="cls-2" d="M631.22,394.58c2.78,3.45,7,8.76,10.89,10.11,7.14,2.49,11.21,7.63,11.21,15.29,0,7,3,13.73,9.86,16.54a36.65,36.65,0,0,0,8.48,1.67c3-.15,2.8-6.32,2.34-12.81-.8-11.45-1-22-9.31-31-1.11-1.19-13.05-17.15-13.69-18.31-5.13-9.33-18.36-14.17-24.11-1.15-7.45,16.88-8.9,1.57-4.19,10.48C622.82,385.67,629.75,392.77,631.22,394.58Z" transform="translate(-394.46 -171.38)"/><path class="cls-3" d="M631.28,394.66c2.79,3.45,7,8.69,10.83,10,7.14,2.49,11.21,7.63,11.21,15.29,0,7,3,13.73,9.86,16.54a36.65,36.65,0,0,0,8.48,1.67c3-.15,2.8-6.32,2.34-12.81-.8-11.45-1-22-9.31-31-.55-.59-3.75-4.79-6.92-9-1.24.13-2.64.07-5.5.07a23.24,23.24,0,0,0-3.57.39c-5.62,0-4.09,3.66-5.81,4.08-3,.73-2.79-1.47-4.67,2C636.81,394.52,632.94,392.3,631.28,394.66Z" transform="translate(-394.46 -171.38)"/><path class="cls-6" d="M680,349.68l-2.79,2.24c-17.17,13.94-30.52,27.34-39.29,40.94C625.57,412,619.9,431,604.25,447c-8.61,8.81-19.61,16.82-37.4,26.27-16.46-17.24-19.27-56.34,1.54-86.86,8-11.77,34.43-37.68,34.19-50.67C601.95,302.81,666.42,339.09,680,349.68Z" transform="translate(-394.46 -171.38)"/><polygon class="cls-8" points="311.48 330.15 475.98 207.71 152.6 207.71 311.48 330.15"/><path class="cls-9" d="M547.06,379.31,693.93,248.16a24.66,24.66,0,0,1,29.64,0L870.44,379.31Z" transform="translate(-394.46 -171.38)"/><rect class="cls-10" x="585.46" y="328.03" width="228.03" height="226.39" transform="translate(-442.34 -84.28) rotate(-6.89)"/><rect class="cls-11" x="598.25" y="340.74" width="202.43" height="200.98" transform="translate(-442.33 -84.29) rotate(-6.89)"/><rect class="cls-12" x="594.7" y="353.59" width="62.52" height="62.53" transform="translate(-436.14 -93.43) rotate(-6.9)"/><path class="cls-13" d="M610.05,374.41l.37,3.1,2-.24-.37-3.1,1.6-.2,1,8.13-1.61.19-.43-3.62-2,.25.43,3.6-1.61.2-1-8.13Z" transform="translate(-394.46 -171.38)"/><path class="cls-13" d="M618.76,373.36l3.17,7.86-1.6.2-.74-2-2.14.25-.25,2.07-1.61.19,1.21-8.39Zm-1.17,5,1.52-.18-1.16-3.23Z" transform="translate(-394.46 -171.38)"/><path class="cls-13" d="M624.21,372.7a3.87,3.87,0,0,1,2.49.31,3,3,0,0,1,.47,3.88,3.91,3.91,0,0,1-2.35.89l-.6.07.36,3-1.6.19L622,373Zm-.15,3.81.66-.08a1.79,1.79,0,0,0,1.08-.4,1.55,1.55,0,0,0-.22-1.86,1.77,1.77,0,0,0-1.14-.13l-.67.08Z" transform="translate(-394.46 -171.38)"/><path class="cls-13" d="M630.92,371.9a3.85,3.85,0,0,1,2.49.3,2.36,2.36,0,0,1,1,1.84,2.42,2.42,0,0,1-.49,2,3.92,3.92,0,0,1-2.36.89l-.59.07.36,3-1.61.19-1-8.13Zm-.15,3.8.66-.08a1.7,1.7,0,0,0,1.07-.4,1.51,1.51,0,0,0-.21-1.86,1.77,1.77,0,0,0-1.15-.13l-.66.08Z" transform="translate(-394.46 -171.38)"/><path class="cls-13" d="M636.33,371.23l2,3.07,1.19-3.45,1.74-.21-1.92,5.23.38,3.2-1.6.19-.39-3.2-3.11-4.62Z" transform="translate(-394.46 -171.38)"/><path class="cls-13" d="M602.52,388.9a3.42,3.42,0,0,1,2.11.27,1.83,1.83,0,0,1,.87,1.45,1.59,1.59,0,0,1-1.37,1.93,2.14,2.14,0,0,1,1.48.45,2.21,2.21,0,0,1,.65,1.43,2,2,0,0,1-.5,1.79,3.88,3.88,0,0,1-2.24.81l-2.62.31-1-8.14Zm-.67,3.28,1.06-.14a1.37,1.37,0,0,0,.85-.32,1.13,1.13,0,0,0-.18-1.45,1.26,1.26,0,0,0-.88-.13l-1.07.12Zm.46,3.67,1.07-.13a1.73,1.73,0,0,0,1-.39,1.12,1.12,0,0,0,.2-1,1.2,1.2,0,0,0-.43-.9,1.59,1.59,0,0,0-1.09-.16l-1.07.13Z" transform="translate(-394.46 -171.38)"/><path class="cls-13" d="M606.9,388.36l4.83-.59.17,1.42-1.61.19.64,5.3,1.62-.2.17,1.41-4.84.59-.17-1.42,1.61-.19-.64-5.3-1.61.19Z" transform="translate(-394.46 -171.38)"/><path class="cls-13" d="M617.57,391.41a.79.79,0,0,1,.44.18,2.9,2.9,0,0,1,.52.64l1.83,2.75-1.77.22-1.22-1.94-.15-.23c-.36-.57-.73-.84-1.12-.8l-.52.06.39,3.22-1.6.19-1-8.13,2.31-.28a3.63,3.63,0,0,1,2.32.28,2.18,2.18,0,0,1,.91,1.72,2.08,2.08,0,0,1-.24,1.39,1.79,1.79,0,0,1-1.1.74Zm-2.16-.47.76-.09a1.45,1.45,0,0,0,.92-.38,1.17,1.17,0,0,0,.18-.89,1.1,1.1,0,0,0-.39-.82,1.39,1.39,0,0,0-1-.13l-.76.08Z" transform="translate(-394.46 -171.38)"/><path class="cls-13" d="M622.92,394.67l-.81-6.73-2.07.25-.17-1.4,5.73-.7.17,1.41-2.07.25.81,6.72Z" transform="translate(-394.46 -171.38)"/><path class="cls-13" d="M628.45,385.76l.37,3.1,2-.24-.37-3.1,1.61-.2,1,8.14-1.6.19L631,390l-2,.25.44,3.61-1.6.2-1-8.14Z" transform="translate(-394.46 -171.38)"/><path class="cls-13" d="M635.28,384.95a3.74,3.74,0,0,1,3,.6,4.55,4.55,0,0,1,1.25,3,4.61,4.61,0,0,1-.49,3.22,3.79,3.79,0,0,1-2.76,1.31l-1.72.2-1-8.13Zm.69,6.68.43-.06a1.53,1.53,0,0,0,1.28-.76,4,4,0,0,0,.16-2.08,3.82,3.82,0,0,0-.65-2,1.53,1.53,0,0,0-1.42-.43l-.43.05Z" transform="translate(-394.46 -171.38)"/><path class="cls-13" d="M643.86,383.9l3.17,7.86-1.6.19-.75-2-2.15.26-.24,2.07-1.6.19,1.21-8.39Zm-1.16,5,1.51-.19L643,385.48Z" transform="translate(-394.46 -171.38)"/><path class="cls-13" d="M648,383.4l2,3.08,1.19-3.46,1.73-.21L651,388l.39,3.2-1.6.2-.39-3.21-3.1-4.62Z" transform="translate(-394.46 -171.38)"/><rect class="cls-14" x="602.53" y="418.46" width="62.52" height="62.52" transform="translate(-443.87 -92.02) rotate(-6.9)"/><path class="cls-15" d="M622,433.06c3.88-1.62,8.6.87,10.54,5.55s.36,9.78-3.52,11.38-8.6-.87-10.54-5.55S618.13,434.66,622,433.06Z" transform="translate(-394.46 -171.38)"/><path class="cls-16" d="M622,433.06a6.26,6.26,0,0,1,1.67-.45c3.64.53,5.93,3.51,6.9,6.59,1.42,4.59-1.26,10.11-5.39,10.82-2.75.48-5.78-3.37-6.7-5.59C616.56,439.76,618.13,434.66,622,433.06Z" transform="translate(-394.46 -171.38)"/><path class="cls-17" d="M631.54,445.75l0,.58c-.14,3.4.83,5.58,2.13,8.51,2.46,5.56,1.22,3.39,2.2,9,.12.64,1.15,8.43,1.25,8.45" transform="translate(-394.46 -171.38)"/><path class="cls-18" d="M620.64,440c-.82.08-3-3.06.31-3.76C622.78,435.81,622,439.82,620.64,440Z" transform="translate(-394.46 -171.38)"/><path class="cls-18" d="M620.2,442.44c-.35,0-1.26-1.29.12-1.59C621.1,440.68,620.78,442.38,620.2,442.44Z" transform="translate(-394.46 -171.38)"/><path class="cls-19" d="M631.64,444.71a1.06,1.06,0,1,1-1.17.95A1.07,1.07,0,0,1,631.64,444.71Z" transform="translate(-394.46 -171.38)"/><path class="cls-17" d="M638.12,448.23l.15.65c.48,2.15-.38,4.29,1.23,7,.9,1.47,1.28,5.22,1.9,7.53s1.22,2.67,1.44,5.72c0,.58.22.09.3.71" transform="translate(-394.46 -171.38)"/><path class="cls-17" d="M628.94,451c.11,0,2.35,7.2,2.8,8.29,1.11,2.7.93,10.29,2.74,12.51.19.25.15.37.18.67" transform="translate(-394.46 -171.38)"/><path class="cls-19" d="M629.21,426.71c4.35-.66,8.52,3.07,9.31,8.31s-2.09,10-6.45,10.67-8.51-3.06-9.31-8.31S624.86,427.37,629.21,426.71Z" transform="translate(-394.46 -171.38)"/><path class="cls-20" d="M629.21,426.71a6.92,6.92,0,0,1,1.8,0c3.58,1.47,5.16,5.07,5.35,8.44.32,5.38-4.42,10.65-9.14,9.48a10.33,10.33,0,0,1-4.45-7.23C622,432.15,624.86,427.37,629.21,426.71Z" transform="translate(-394.46 -171.38)"/><path class="cls-21" d="M638.22,447.17a1.05,1.05,0,1,1-.19,2.1,1.05,1.05,0,1,1,.19-2.1Z" transform="translate(-394.46 -171.38)"/><path class="cls-21" d="M642.33,429.37c4.27,1,6.78,6,5.58,11.15s-5.65,8.54-9.93,7.54-6.79-6-5.58-11.15S638,428.38,642.33,429.37Z" transform="translate(-394.46 -171.38)"/><path class="cls-18" d="M626.08,433.38c-.85-.12-2.25-3.86,1.26-3.74C629.3,429.71,627.49,433.59,626.08,433.38Z" transform="translate(-394.46 -171.38)"/><path class="cls-18" d="M625,435.79c-.36-.05-1-1.63.52-1.57C626.36,434.25,625.59,435.88,625,435.79Z" transform="translate(-394.46 -171.38)"/><path class="cls-22" d="M642.33,429.37A6.61,6.61,0,0,1,644,430c2.78,2.68,2.92,6.61,1.86,9.82-1.59,4.77-7.23,7.84-11.19,5.92-2.62-1.27-2.86-6.39-2.28-8.83C633.59,431.75,638,428.38,642.33,429.37Z" transform="translate(-394.46 -171.38)"/><path class="cls-18" d="M637,434.41c-.75-.43-.67-4.42,2.55-3C641.31,432.19,638.19,435.12,637,434.41Z" transform="translate(-394.46 -171.38)"/><path class="cls-18" d="M635.06,436.26c-.31-.18-.28-1.87,1.08-1.28C636.89,435.32,635.59,436.56,635.06,436.26Z" transform="translate(-394.46 -171.38)"/><path class="cls-15" d="M629.13,448.94a1.06,1.06,0,0,1,1,1.15,1.08,1.08,0,1,1-1-1.15Z" transform="translate(-394.46 -171.38)"/><path class="cls-23" d="M647.86,425.57l-.13.2s-.57,0-.58-1a1.36,1.36,0,0,1,.88-.36s.71.13,0-1.29l.39-.22s.51,1.26-.06,1.67c0,0-.82.16-.75.29S647.32,425.24,647.86,425.57Z" transform="translate(-394.46 -171.38)"/><polygon class="cls-24" points="251.62 253.91 251.01 253.65 251.31 253.36 251.62 253.91"/><path class="cls-25" d="M645.09,425.68a1.3,1.3,0,0,1-.22-.91s.08-.2-.52-.18c0,0-.62.06-.72-.36,0,0-.68.68.76.82C644.39,425.06,644.89,425.77,645.09,425.68Z" transform="translate(-394.46 -171.38)"/><path class="cls-26" d="M652.9,432.35l-.13-.19s.21-.52,1.15-.18a1.39,1.39,0,0,1,0,1s-.38.61,1.22.44l.06.44s-1.36,0-1.53-.65c0,0,.17-.83,0-.81C653.67,432.36,653.41,432,652.9,432.35Z" transform="translate(-394.46 -171.38)"/><polygon class="cls-24" points="259.32 259.43 259.78 258.95 259.94 259.33 259.32 259.43"/><path class="cls-25" d="M653.76,429.74a1.25,1.25,0,0,1,.92.12s.17.15.35-.4c0,0,.17-.62.59-.56,0,0-.39-.88-1,.42C654.59,429.31,653.76,429.53,653.76,429.74Z" transform="translate(-394.46 -171.38)"/><path class="cls-23" d="M613.37,429.74l.18.16s.55-.17.32-1.13a1.31,1.31,0,0,0-.95-.12s-.66.28-.27-1.27l-.43-.12s-.21,1.34.46,1.59c0,0,.83,0,.79.1S613.82,429.29,613.37,429.74Z" transform="translate(-394.46 -171.38)"/><polygon class="cls-24" points="220.58 257.65 221.11 257.27 220.74 257.05 220.58 257.65"/><path class="cls-25" d="M616.09,429.19a1.29,1.29,0,0,0,0-.94s-.12-.18.46-.3c0,0,.63-.09.62-.52,0,0,.83.51-.55,1C616.62,428.41,616.3,429.22,616.09,429.19Z" transform="translate(-394.46 -171.38)"/><path class="cls-26" d="M610.1,437.53l.07-.22s-.33-.44-1.15.11a1.4,1.4,0,0,0,.23.94s.5.51-1.08.71l0,.45s1.33-.3,1.33-1c0,0-.35-.77-.21-.78S609.52,437.27,610.1,437.53Z" transform="translate(-394.46 -171.38)"/><polygon class="cls-24" points="214.41 264.85 213.87 264.5 213.79 264.92 214.41 264.85"/><path class="cls-25" d="M608.64,435.2a1.31,1.31,0,0,0-.88.34s-.12.18-.43-.32c0,0-.31-.56-.71-.4,0,0,.17-1,1.11.15C607.73,435,608.59,435,608.64,435.2Z" transform="translate(-394.46 -171.38)"/><path class="cls-26" d="M650.72,451.69l0-.43s.48-.53,1.22.89a2.75,2.75,0,0,1-.48,1.42s-.68.53,1,1.85l-.17.71s-1.36-1.31-1.18-2.48c0,0,.57-1.08.42-1.18C651.48,452.48,651.43,451.63,650.72,451.69Z" transform="translate(-394.46 -171.38)"/><path class="cls-25" d="M652.79,448.63a1.3,1.3,0,0,1,0,.94s-.13.18.45.29c0,0,.64.08.62.52,0,0,.83-.5-.54-1C653.33,449.4,653,448.6,652.79,448.63Z" transform="translate(-394.46 -171.38)"/><path class="cls-26" d="M619.76,457.25l-.07-.43s-.59-.41-1,1.16a2.75,2.75,0,0,0,.82,1.27s.79.35-.52,2l.34.66s1-1.6.54-2.71c0,0-.81-.9-.68-1S619.06,457.35,619.76,457.25Z" transform="translate(-394.46 -171.38)"/><path class="cls-25" d="M617,454.77a1.22,1.22,0,0,0,.22.91s.17.14-.37.39c0,0-.6.24-.49.65,0,0-.91-.3.31-1.07C616.68,455.65,616.8,454.79,617,454.77Z" transform="translate(-394.46 -171.38)"/><path class="cls-27" d="M643.86,491.48a3.08,3.08,0,0,0-1-1.74" transform="translate(-394.46 -171.38)"/><path class="cls-27" d="M643.79,491.48c0-.3-1-1.22-1.27-1.16" transform="translate(-394.46 -171.38)"/><path class="cls-27" d="M643.83,491.55a12.18,12.18,0,0,1,.91-2.44" transform="translate(-394.46 -171.38)"/><rect class="cls-28" x="610.4" y="483.75" width="62.52" height="62.29" transform="translate(-451.57 -90.72) rotate(-6.89)"/><path class="cls-29" d="M656.95,539.31s-.11.37,0,.53a5.82,5.82,0,0,0,2.2,0c.55-.09.83-.3.75-.45s-.26-.31-1.29-.5a1.59,1.59,0,0,0-1.7.45" transform="translate(-394.46 -171.38)"/><path class="cls-29" d="M651.72,538.59s-.28.32-.19.49a5.55,5.55,0,0,0,2.08.54c.53.06.88,0,.88-.2s-.11-.34-1-.79a1.74,1.74,0,0,0-1.77,0" transform="translate(-394.46 -171.38)"/><path class="cls-30" d="M654.8,513.37c1-1,2-1,2.3.37s-.55,3.37-3.51,6.52a12.17,12.17,0,0,1-2.9,5.49s.39,2.16-.61,2.12c-.54,0-.89-1.6-.89-1.6s-.79.1-.76-.17.86-.61.94-.84a68.53,68.53,0,0,1,2.92-6.83c1.16-2.31,1.61-4.2,2.51-5.07" transform="translate(-394.46 -171.38)"/><path class="cls-30" d="M654.11,528s-1.21,2.92-.24,5.2a6.44,6.44,0,0,0-1.89,5.47s2.23,1,2.25.44c0-.19-1-.63-1-.63s3.73-7.59,5.52-8.84" transform="translate(-394.46 -171.38)"/><path class="cls-30" d="M655.89,528.58s-.21,3.12,1.43,5a6.24,6.24,0,0,0-.07,5.74s2.46.3,2.3-.21c-.05-.18-1.19-.31-1.19-.31s1.14-8.27,2.45-10" transform="translate(-394.46 -171.38)"/><path class="cls-13" d="M655.66,530.4a4.13,4.13,0,0,1-2.61-.46l.21-3.36,2,1.22Z" transform="translate(-394.46 -171.38)"/><path class="cls-13" d="M652,524.75c.6,3.85,2.34,3.68,2.34,3.68a7.23,7.23,0,0,0,1.14,2.68,10.6,10.6,0,0,0,5.63-.83s2.66-7,.43-11.43" transform="translate(-394.46 -171.38)"/><path class="cls-30" d="M655.68,508l.53,1.86,3,1.67L654,514.68s0-1.88-.09-3.32a11.54,11.54,0,0,1,.46-3.29" transform="translate(-394.46 -171.38)"/><path class="cls-30" d="M648.34,507.63c4.27,2.12,10.53,2.44,14.29-.66a4.78,4.78,0,0,0,1.45-2.13c.42-.95.84-.73,1-1.25.09-.3-.38-.56-.38-.56a.6.6,0,0,0,.57-.63c.06-.9-.68,0-1-1.85a19.89,19.89,0,0,0-5.12-9.76c-3.77-3.59-13.77-3.73-15.76,5.81-1.6,7.68,1.3,9.21,5,11" transform="translate(-394.46 -171.38)"/><g class="cls-31"><g class="cls-32"><path class="cls-33" d="M660,504.41a2.21,2.21,0,1,1-2-2.23,2.14,2.14,0,0,1,2,2.23" transform="translate(-394.46 -171.38)"/></g></g><path class="cls-27" d="M647.15,507.54s-2.31-1.38-1.26-4.62,2.88-2.62,3.37-.66,1.07,1.58,1.07,1.58.88-2.37.23-3.74-.49-3.24,2.06-4.06,10.31-.93,11.75-6.16c0,0-2.84.78-7.2-1.15s-13.38-.22-15.66,6.23c-1.73,4.87-.56,9.66,5.63,12.58" transform="translate(-394.46 -171.38)"/><path class="cls-27" d="M653.5,495.8a7.07,7.07,0,0,1-2.52,0,5.67,5.67,0,0,1-2.45-.9,23.7,23.7,0,0,0-1.94-1.65c-.58-.33-1.2-.62-1.8-.93-.39-.18-1-.35-1-.86" transform="translate(-394.46 -171.38)"/><path class="cls-27" d="M649.76,495.5a7,7,0,0,0,2.72-.57c.56-.24,1-.64,1.54-.86a18.21,18.21,0,0,1,1.75-.55c.68-.18,1.36-.32,2-.46a10.53,10.53,0,0,0,1.92-.46,4.35,4.35,0,0,0,2-1.28,2.18,2.18,0,0,0,.4-1.32" transform="translate(-394.46 -171.38)"/><path class="cls-27" d="M647.56,494c.41.27,2.75-.62,3.1-.8a7.08,7.08,0,0,1,2.59-1c1.84-.2,3.79-.19,5.21-1.49a1.56,1.56,0,0,0,.72-1.18" transform="translate(-394.46 -171.38)"/><path class="cls-27" d="M645.49,492.64a5.11,5.11,0,0,0,2,0c1.82-.48,3.73-.7,5.52-1.29a12.38,12.38,0,0,0,3.06-1.06c.48-.31,1.12-.6.83-1.27a1.8,1.8,0,0,0-.89-.71" transform="translate(-394.46 -171.38)"/><path class="cls-27" d="M644,491.88a1.73,1.73,0,0,0,1.78-.24,33.32,33.32,0,0,1,3.9-1.51c.59-.23,2.55-1.28,1.46-2" transform="translate(-394.46 -171.38)"/><path class="cls-27" d="M644.84,492.34c.8.09,3.23,0,3.89-.77s1.67-.74,2.51-1,4.6-1.43,2.25-2.59" transform="translate(-394.46 -171.38)"/><path class="cls-27" d="M650.78,495.8a3,3,0,0,0-1.48,3.11c.22,2.26,1.15,3.26.68,4.76" transform="translate(-394.46 -171.38)"/><path class="cls-27" d="M644.29,492.1a6.37,6.37,0,0,0-1.84,3.71c-.19,2.2-2,3.71-.33,6.21s2.34,4.14,4.26,5.13" transform="translate(-394.46 -171.38)"/><path class="cls-27" d="M646.82,507.29s-3.06-2.2-3.3-4.62-1.46-2.12-1.24-3.32c.11-.54.56-1.31.92-2.7.45-1.76.39-2.93,1.5-4.37" transform="translate(-394.46 -171.38)"/><path class="cls-27" d="M646.07,492.9c-.15.33-.52.55-.75.82a6.92,6.92,0,0,0-1.15,1.94,3.62,3.62,0,0,0-.24,1.8,10,10,0,0,0,.34,1.64c.21,1-.12,2.07,0,3.1a3.9,3.9,0,0,0,.84,1.84,6.39,6.39,0,0,1,.44.62" transform="translate(-394.46 -171.38)"/><path class="cls-27" d="M645.93,502.87c0-.16-.09-.15-.13-.3a6.75,6.75,0,0,1-.23-1.15,5.83,5.83,0,0,1,.25-2.12,15.33,15.33,0,0,0,.83-2.58c.08-.72.11-1.44.15-2.18,0-.29.11-.75.43-.88a.21.21,0,0,1,0,.07" transform="translate(-394.46 -171.38)"/><path class="cls-27" d="M648.45,494.78a6.08,6.08,0,0,1-.51,1.65,9.5,9.5,0,0,0-.36,2.56,7.81,7.81,0,0,0,.18,1.59s0,.05,0,0" transform="translate(-394.46 -171.38)"/><path class="cls-34" d="M629.81,497.51c-1.6,2.09-7.77-4.64-6-6.85,1.14-1.44,3.74,1.53,4.15,2.65a2.74,2.74,0,0,1,1.17-3c4.17-3.32,2,7.69.86,9.49" transform="translate(-394.46 -171.38)"/><path class="cls-35" d="M630.63,491.93s0,0,0-.08,0-.06,0-.09c0-1.06-1.59-1.24-1.93-.35a.84.84,0,0,0-.71.71c-.06.34-.12.69-.15,1a1.09,1.09,0,0,0-.62.18,8.7,8.7,0,0,0-1.5-2.44.89.89,0,0,0-1.21-.1.69.69,0,0,0-.47.65.75.75,0,0,0,0,.24,6.44,6.44,0,0,0,3.22,4.84l.05,0,.27.46a.81.81,0,0,0,1,.47,1.11,1.11,0,0,0,1.76-.48,11.33,11.33,0,0,0,.39-2.63c.06-.45.11-.9.16-1.34a1.12,1.12,0,0,0-.19-.74c0-.11,0-.22,0-.33" transform="translate(-394.46 -171.38)"/><path class="cls-36" d="M658.86,500.58a1.21,1.21,0,0,0-.37,0c-.2.18-.37.25-.39.14l0-.1a.8.8,0,0,1,.92-.57.7.7,0,0,1,.61.84l0,.1c-.05.08-.2,0-.32-.28,0,0,0-.1-.46-.13" transform="translate(-394.46 -171.38)"/><path class="cls-30" d="M647,526.64a88.68,88.68,0,0,1,2.91-8.77c.61-1.52,1-2.88,1.38-4a.94.94,0,0,0,.63-.5,2.65,2.65,0,0,1,.2-.35l.12-.09.06,0s0,0,0,0l.31-.09.19,0a2.8,2.8,0,0,1,.65,0,5.77,5.77,0,0,1,.71,0l.34,0h.13l.31,0,.23,0a.05.05,0,0,1,0,0l.25,0c-.11,1.64-1.2,3.93-3.82,7.2a15,15,0,0,1-3,7.12s.62,1.91.12,1.73c-.18-.06-.51-.5-.51-.5s.3,1.71-.77,1.58c-1.24-.17-.59-3-.53-3.31" transform="translate(-394.46 -171.38)"/><path class="cls-37" d="M657.27,510.36s-2.65,1.29-3.37.71c0,0-2.13-.54-3.35,4.16l2.45,1-1.32,9.25s2.13,1,7.69-.32,6.25-3.63,6.25-3.63-2.75-9-8.34-11.15" transform="translate(-394.46 -171.38)"/><rect class="cls-38" x="659.94" y="345.71" width="62.52" height="62.52" transform="translate(-434.69 -85.74) rotate(-6.89)"/><path class="cls-39" d="M679.82,379.28l23.06-2.78a3.35,3.35,0,0,1,3.72,2.92l1.25,10.32-29.71,3.59L676.9,383A3.36,3.36,0,0,1,679.82,379.28Z" transform="translate(-394.46 -171.38)"/><path class="cls-40" d="M679.82,379.28l23.06-2.78a3.35,3.35,0,0,1,3.72,2.92l.05.4c-2.49.16-5.66.07-7.52.87-.5.22-.08,2.14-.61,2.23-.8.14-.21-1.7-1.11-1.81-2.07-.24-4.73.91-7.32,1-1.07,0-1.3.91-2,1a11.74,11.74,0,0,0-4.5-.44c-.28,0-2.34.67-2.11,1.49.31,1,.15,1.41-.17,1.45-.82-.31-.11-1.14-.49-1.51-.7-.72-2.19-.92-3.88-.7l0-.4A3.36,3.36,0,0,1,679.82,379.28Z" transform="translate(-394.46 -171.38)"/><path class="cls-41" d="M681.66,372.13,699.38,370a1.67,1.67,0,0,1,1.86,1.46l.63,5.16-21,2.55L680.2,374A1.7,1.7,0,0,1,681.66,372.13Z" transform="translate(-394.46 -171.38)"/><path class="cls-40" d="M681.66,372.13,699.38,370a1.67,1.67,0,0,1,1.86,1.46l0,.15a23.28,23.28,0,0,0-4.72.61c-.4.12-.14,1.08-.57,1.15-.64.1-.1-.85-.8-.87-1.62-.06-3.74.62-5.79.75-.85.06-1.05.5-1.61.58a13.55,13.55,0,0,0-3.52-.06c-.23,0-1.87.41-1.71.81s.07.71-.18.74c-.64-.13-.05-.57-.33-.75a3.66,3.66,0,0,0-1.82-.32l0-.25A1.7,1.7,0,0,1,681.66,372.13Z" transform="translate(-394.46 -171.38)"/><path class="cls-42" d="M685.12,366.41l9.55-1.16a1.3,1.3,0,0,1,1.43,1.12l.47,4-12.1,1.46-.47-3.95A1.28,1.28,0,0,1,685.12,366.41Z" transform="translate(-394.46 -171.38)"/><path class="cls-40" d="M685.12,366.41l9.55-1.16a1.3,1.3,0,0,1,1.43,1.12v.13a10.75,10.75,0,0,0-2.9.36c-.21.08,0,.81-.26.86s-.08-.65-.48-.69c-.88-.08-2,.38-3.15.43-.47,0-.57.36-.87.4a5.57,5.57,0,0,0-1.94-.14c-.11,0-1,.27-.9.58s.06.54-.08.55c-.35-.12,0-.43-.2-.57A1.9,1.9,0,0,0,684,368l0-.16A1.28,1.28,0,0,1,685.12,366.41Z" transform="translate(-394.46 -171.38)"/><rect class="cls-43" x="689.27" y="361.47" width="0.8" height="4.39" transform="translate(-433.48 -85.03) rotate(-6.97)"/><path class="cls-44" d="M689.46,358a3.1,3.1,0,0,1,.8,1.05,1.1,1.1,0,0,1-.87,1.52c-1,.12-1.27-.91-1-1.71s.89-2.08.85-1.76A1,1,0,0,0,689.46,358Z" transform="translate(-394.46 -171.38)"/><path class="cls-45" d="M689.44,359.78a1,1,0,0,1,.25.35.35.35,0,0,1-.28.49c-.34,0-.41-.29-.34-.55s.3-.69.28-.58A.29.29,0,0,0,689.44,359.78Z" transform="translate(-394.46 -171.38)"/><path class="cls-40" d="M682.91,377.24a.35.35,0,0,0,.32-.41.37.37,0,0,0-.41-.33.37.37,0,1,0,.09.73Z" transform="translate(-394.46 -171.38)"/><circle class="cls-46" cx="685.48" cy="375.43" r="0.37" transform="translate(-436.32 -81.97) rotate(-7.24)"/><path class="cls-40" d="M687.63,377.38a.38.38,0,0,0-.09-.75.38.38,0,0,0-.32.42A.37.37,0,0,0,687.63,377.38Z" transform="translate(-394.46 -171.38)"/><path class="cls-40" d="M690,375.15a.37.37,0,1,0-.42-.33A.37.37,0,0,0,690,375.15Z" transform="translate(-394.46 -171.38)"/><path class="cls-40" d="M692.19,376.59a.37.37,0,0,0,.32-.41.37.37,0,0,0-.74.09A.37.37,0,0,0,692.19,376.59Z" transform="translate(-394.46 -171.38)"/><path class="cls-40" d="M694.52,374.8a.38.38,0,0,0,.32-.42.37.37,0,0,0-.42-.32.37.37,0,0,0-.32.41A.38.38,0,0,0,694.52,374.8Z" transform="translate(-394.46 -171.38)"/><circle class="cls-46" cx="698.42" cy="373.73" r="0.37" transform="translate(-432.12 -90.3) rotate(-6.47)"/><path class="cls-40" d="M698.91,376.06a.38.38,0,0,0,.32-.41.39.39,0,0,0-.42-.33.38.38,0,0,0,.09.74Z" transform="translate(-394.46 -171.38)"/><path class="cls-40" d="M685.3,370.13a.22.22,0,1,0-.25-.2A.22.22,0,0,0,685.3,370.13Z" transform="translate(-394.46 -171.38)"/><path class="cls-40" d="M686.86,369.26a.22.22,0,0,0,.2-.25.23.23,0,0,0-.25-.19.23.23,0,0,0-.2.25A.23.23,0,0,0,686.86,369.26Z" transform="translate(-394.46 -171.38)"/><path class="cls-40" d="M688.12,370.2a.22.22,0,0,0,.2-.24.23.23,0,0,0-.25-.2.24.24,0,0,0-.19.25A.22.22,0,0,0,688.12,370.2Z" transform="translate(-394.46 -171.38)"/><path class="cls-40" d="M689.54,368.87a.22.22,0,1,0-.24-.19A.22.22,0,0,0,689.54,368.87Z" transform="translate(-394.46 -171.38)"/><path class="cls-40" d="M690.84,369.73a.23.23,0,0,0,.2-.24.24.24,0,0,0-.25-.2.23.23,0,0,0-.19.25A.23.23,0,0,0,690.84,369.73Z" transform="translate(-394.46 -171.38)"/><path class="cls-40" d="M692.23,368.65a.21.21,0,0,0,.19-.23.22.22,0,0,0-.25-.2.22.22,0,1,0,.06.43Z" transform="translate(-394.46 -171.38)"/><path class="cls-40" d="M694.59,368.24a.22.22,0,1,0-.06-.44.22.22,0,1,0,.06.44Z" transform="translate(-394.46 -171.38)"/><path class="cls-40" d="M694.86,369.42a.22.22,0,0,0,.19-.25.23.23,0,0,0-.25-.2.22.22,0,0,0,.06.44Z" transform="translate(-394.46 -171.38)"/><polygon class="cls-40" points="283.16 219.81 313.13 216.19 313.04 215.46 283.06 219.08 283.16 219.81"/><polygon class="cls-40" points="282.87 217.49 312.85 213.88 312.76 213.13 282.79 216.76 282.87 217.49"/><path class="cls-22" d="M680.18,381.36h0c-.15.08-.3.07-.35,0l-.31-.51c-.06-.08,0-.22.16-.3s.3-.08.35,0l.3.51C680.39,381.14,680.31,381.28,680.18,381.36Z" transform="translate(-394.46 -171.38)"/><path class="cls-39" d="M682.62,381.86h0c-.21,0-.38-.12-.37-.25v-.75c0-.12.18-.22.39-.21s.37.12.37.25v.75C683,381.78,682.82,381.87,682.62,381.86Z" transform="translate(-394.46 -171.38)"/><path class="cls-41" d="M683.92,379.88h0c.06-.19.22-.32.34-.28l.71.23c.12,0,.16.23.09.42s-.22.31-.35.27l-.7-.22C683.89,380.26,683.84,380.07,683.92,379.88Z" transform="translate(-394.46 -171.38)"/><path class="cls-42" d="M686,381.55h0c-.15-.07-.23-.21-.19-.31l.26-.54c.05-.09.2-.11.35,0s.23.21.19.3l-.27.54C686.34,381.61,686.19,381.63,686,381.55Z" transform="translate(-394.46 -171.38)"/><path class="cls-47" d="M687.81,380.31h0c-.16,0-.32,0-.34-.11l-.17-.58c0-.09.09-.21.25-.25s.32,0,.34.12l.16.58C688.07,380.15,688,380.26,687.81,380.31Z" transform="translate(-394.46 -171.38)"/><path class="cls-22" d="M689.78,381.05h0c-.14.08-.3.08-.35,0l-.31-.51c-.05-.09,0-.22.17-.3s.3-.08.35,0l.31.5C690,380.83,689.92,381,689.78,381.05Z" transform="translate(-394.46 -171.38)"/><path class="cls-39" d="M691.49,380h0c-.21,0-.37-.12-.37-.25V379c0-.13.18-.22.38-.22s.37.13.36.25l0,.74C691.86,379.92,691.7,380,691.49,380Z" transform="translate(-394.46 -171.38)"/><path class="cls-41" d="M693.22,380h0c.07-.2.23-.32.35-.29l.7.24c.12,0,.16.22.09.41s-.22.32-.34.28l-.71-.23C693.18,380.35,693.15,380.16,693.22,380Z" transform="translate(-394.46 -171.38)"/><path class="cls-42" d="M695.32,379.09h0c-.15-.08-.22-.21-.19-.31l.27-.54c0-.09.2-.1.35,0s.23.22.18.3l-.26.54C695.63,379.15,695.47,379.16,695.32,379.09Z" transform="translate(-394.46 -171.38)"/><path class="cls-47" d="M697.5,380.23h0c-.15,0-.31,0-.34-.1l-.16-.58c0-.1.09-.21.24-.25s.32,0,.35.1l.15.58C697.77,380.07,697.67,380.19,697.5,380.23Z" transform="translate(-394.46 -171.38)"/><path class="cls-47" d="M699.84,378.85h0c-.16,0-.32,0-.34-.1l-.16-.58c0-.11.08-.21.24-.25s.31,0,.35.11l.15.58C700.11,378.7,700,378.81,699.84,378.85Z" transform="translate(-394.46 -171.38)"/><path class="cls-22" d="M701.82,379.6h0c-.14.08-.3.08-.35,0l-.31-.51c-.06-.09,0-.22.15-.3s.3-.08.36,0l.31.51C702,379.38,702,379.52,701.82,379.6Z" transform="translate(-394.46 -171.38)"/><path class="cls-39" d="M703.52,378.55h0c-.2,0-.37-.12-.36-.25v-.75c0-.13.18-.22.38-.21s.37.12.37.25v.74C703.9,378.46,703.73,378.55,703.52,378.55Z" transform="translate(-394.46 -171.38)"/><path class="cls-22" d="M681.83,373.13h0c-.08,0-.18,0-.21,0l-.18-.29c0-.05,0-.14.1-.18s.18-.05.21,0l.19.3C682,373,681.92,373.08,681.83,373.13Z" transform="translate(-394.46 -171.38)"/><path class="cls-39" d="M683.52,373.55h0c-.11,0-.22-.07-.22-.14V373c0-.08.11-.13.22-.12s.22.07.23.14v.45C683.74,373.5,683.64,373.56,683.52,373.55Z" transform="translate(-394.46 -171.38)"/><path class="cls-41" d="M684.86,372.3h0c0-.11.12-.18.2-.16l.42.14c.07,0,.1.14.06.25s-.13.19-.2.17l-.43-.14C684.84,372.53,684.82,372.42,684.86,372.3Z" transform="translate(-394.46 -171.38)"/><path class="cls-42" d="M686.72,373.21h0c-.08,0-.13-.13-.11-.18l.16-.33s.12-.05.2,0,.13.13.11.18l-.16.32C686.9,373.25,686.81,373.25,686.72,373.21Z" transform="translate(-394.46 -171.38)"/><path class="cls-47" d="M688,372.2h0c-.1,0-.18,0-.21-.07l-.08-.34c0-.06,0-.13.14-.15s.19,0,.2.06l.1.35C688.18,372.11,688.11,372.17,688,372.2Z" transform="translate(-394.46 -171.38)"/><path class="cls-22" d="M689.65,372.78h0c-.08,0-.17,0-.2,0l-.18-.3c0-.05,0-.13.1-.18s.17,0,.2,0l.18.3C689.78,372.65,689.74,372.72,689.65,372.78Z" transform="translate(-394.46 -171.38)"/><path class="cls-39" d="M690.76,372h0c-.12,0-.22-.07-.22-.15v-.44c0-.08.1-.13.22-.13s.22.08.22.15v.44C691,371.93,690.89,372,690.76,372Z" transform="translate(-394.46 -171.38)"/><path class="cls-41" d="M691.87,372.15h0c0-.12.12-.19.2-.17l.42.14c.07,0,.09.14.06.25s-.13.2-.2.17l-.42-.14C691.85,372.38,691.83,372.27,691.87,372.15Z" transform="translate(-394.46 -171.38)"/><path class="cls-42" d="M693.11,371.69h0c-.09,0-.15-.13-.12-.18l.16-.32s.12-.06.21,0,.13.13.1.18l-.15.32C693.29,371.73,693.2,371.73,693.11,371.69Z" transform="translate(-394.46 -171.38)"/><path class="cls-47" d="M694.7,372.1h0c-.1,0-.19,0-.2-.06l-.09-.35c0-.06,0-.12.14-.15s.2,0,.2.06l.1.34C694.87,372,694.8,372.07,694.7,372.1Z" transform="translate(-394.46 -171.38)"/><path class="cls-47" d="M695.78,371.47h0c-.1,0-.19,0-.2-.07l-.09-.35c0-.05,0-.12.14-.14s.19,0,.2.06l.1.35C695.95,371.38,695.88,371.45,695.78,371.47Z" transform="translate(-394.46 -171.38)"/><path class="cls-22" d="M697.21,371.89h0c-.09,0-.18,0-.21,0l-.18-.3s0-.13.1-.18.18,0,.21,0l.18.3S697.3,371.84,697.21,371.89Z" transform="translate(-394.46 -171.38)"/><path class="cls-39" d="M698.73,371.22h0c-.13,0-.22-.07-.22-.15v-.45c0-.07.1-.13.22-.12s.22.07.22.14v.44C699,371.16,698.85,371.22,698.73,371.22Z" transform="translate(-394.46 -171.38)"/><path class="cls-22" d="M684.91,367.18h0a.11.11,0,0,1-.13,0l-.11-.18s0-.07.07-.1.1,0,.12,0l.11.18S685,367.14,684.91,367.18Z" transform="translate(-394.46 -171.38)"/><path class="cls-39" d="M685.9,367.43h0c-.07,0-.13,0-.12-.08v-.27s.07-.08.14-.08a.15.15,0,0,1,.13.09v.27S686,367.43,685.9,367.43Z" transform="translate(-394.46 -171.38)"/><path class="cls-41" d="M686.7,366.69h0c0-.07.08-.11.11-.09l.25.08s.06.08,0,.15-.08.12-.11.1l-.26-.08S686.68,366.75,686.7,366.69Z" transform="translate(-394.46 -171.38)"/><path class="cls-42" d="M687.8,367.22h0s-.08-.08-.06-.11l.09-.18s.08,0,.13,0,.08.08.06.11l-.09.19S687.85,367.24,687.8,367.22Z" transform="translate(-394.46 -171.38)"/><path class="cls-47" d="M688.57,366.62h0c-.05,0-.11,0-.12,0l-.06-.2s0-.08.08-.09.11,0,.12,0l.06.2S688.63,366.61,688.57,366.62Z" transform="translate(-394.46 -171.38)"/><path class="cls-22" d="M689.55,367h0s-.11,0-.13,0l-.11-.17s0-.08.06-.11.11,0,.12,0l.11.17S689.6,366.94,689.55,367Z" transform="translate(-394.46 -171.38)"/><path class="cls-39" d="M690.2,366.5h0c-.07,0-.13,0-.13-.09v-.26s.06-.08.13-.08.14,0,.14.09v.26S690.27,366.5,690.2,366.5Z" transform="translate(-394.46 -171.38)"/><path class="cls-41" d="M690.86,366.59h0c0-.07.08-.11.12-.1l.26.08s.06.08,0,.15-.08.11-.12.09l-.24-.07S690.84,366.66,690.86,366.59Z" transform="translate(-394.46 -171.38)"/><path class="cls-42" d="M691.59,366.32h0a.1.1,0,0,1-.07-.11l.1-.19s.07,0,.12,0a.1.1,0,0,1,.06.1l-.09.18S691.64,366.35,691.59,366.32Z" transform="translate(-394.46 -171.38)"/><path class="cls-47" d="M692.54,366.56h0a.1.1,0,0,1-.12,0l-.06-.21s0-.08.09-.09.11,0,.12,0l.06.21S692.59,366.55,692.54,366.56Z" transform="translate(-394.46 -171.38)"/><path class="cls-47" d="M693.18,366.19h0c-.06,0-.11,0-.12,0L693,366a.1.1,0,0,1,.09-.09c.06,0,.12,0,.12,0l.06.2A.1.1,0,0,1,693.18,366.19Z" transform="translate(-394.46 -171.38)"/><path class="cls-22" d="M694,366.44h0s-.11,0-.12,0l-.11-.18s0-.07.06-.1.1,0,.12,0l.11.18S694.07,366.41,694,366.44Z" transform="translate(-394.46 -171.38)"/><path class="cls-39" d="M694.92,366h0c-.06,0-.12,0-.12-.09v-.26c0-.05.06-.08.13-.08s.13,0,.14.09V366S695,366,694.92,366Z" transform="translate(-394.46 -171.38)"/><rect class="cls-48" x="667.78" y="410.57" width="62.52" height="62.52" transform="translate(-442.37 -84.42) rotate(-6.88)"/><path class="cls-13" d="M696.83,426.4q5.21-.63,8.07,1a7,7,0,0,1,3.35,5.58,6.07,6.07,0,0,1-5.25,7.4,8.08,8.08,0,0,1,5.68,1.73,8.35,8.35,0,0,1,2.5,5.49q.54,4.51-1.92,6.86c-1.65,1.57-4.52,2.62-8.6,3.11l-10,1.21-3.78-31.25ZM694.26,439l4.09-.49a5.2,5.2,0,0,0,3.25-1.25,3.46,3.46,0,0,0,.68-2.87,3.57,3.57,0,0,0-1.35-2.68,5,5,0,0,0-3.41-.48l-4.09.49ZM696,453.11l4.1-.5c2-.23,3.3-.74,4-1.51a4.33,4.33,0,0,0,.77-3.63,4.69,4.69,0,0,0-1.67-3.48,6.09,6.09,0,0,0-4.21-.62l-4.1.49Z" transform="translate(-394.46 -171.38)"/><rect class="cls-49" x="675.59" y="475.38" width="62.52" height="62.28" transform="translate(-450.1 -82.95) rotate(-6.89)"/><path class="cls-50" d="M702.61,532.84s.22.28.15.46a4.51,4.51,0,0,1-1.81.56c-.48.07-.77,0-.77-.17s.11-.33.9-.78a1.38,1.38,0,0,1,1.53-.07" transform="translate(-394.46 -171.38)"/><path class="cls-50" d="M703.29,533s.22.29.15.45a4.57,4.57,0,0,1-1.83.58c-.47.06-.77,0-.76-.18s.11-.32.89-.78a1.38,1.38,0,0,1,1.54-.07" transform="translate(-394.46 -171.38)"/><path class="cls-30" d="M701.38,524.21a6.11,6.11,0,0,1-.07,4.19,5,5,0,0,1,1.29,4.43s-1.89.74-1.88.31c0-.15.9-.48.9-.48s-2.7-6.19-4.12-7.24" transform="translate(-394.46 -171.38)"/><path class="cls-30" d="M702.06,524.39a6.11,6.11,0,0,1-.07,4.19,4.94,4.94,0,0,1,1.29,4.43s-1.9.74-1.89.31c0-.15.89-.48.89-.48s-2.69-6.19-4.11-7.23" transform="translate(-394.46 -171.38)"/><path class="cls-30" d="M694,512.1c-1-.82-1-1.64.34-2s3.28.35,6.41,2.73a12.57,12.57,0,0,1,5.43,2.24s1.52-.36,1.36,0c-.06.12-.42.34-.42.34s1.35-.16,1.19.55-2.38.32-2.62.26c-1-.25-4.44-1.32-6.71-2.21s-4.14-1.21-5-1.94" transform="translate(-394.46 -171.38)"/><path class="cls-30" d="M693.38,508.59l.47,1.49,2.84.44L692.11,514a8.93,8.93,0,0,0,.49-2.83c-.08-1.16-.3-2.49-.3-2.49" transform="translate(-394.46 -171.38)"/><path class="cls-51" d="M694.32,510.19a8.81,8.81,0,0,1-1.84,2.44c-.33.3-.82,2.75-.89,6.58a24.24,24.24,0,0,0,1.26,7.74s12.8.2,16.66-8.35c0,0-6.92-1.54-8.48-2.22s-4.27-7.14-6.71-6.19" transform="translate(-394.46 -171.38)"/><path class="cls-13" d="M700.52,520.83a.59.59,0,0,1,.06-.23.45.45,0,0,1,.31-.22.5.5,0,0,1,.37,0l.11.07a.57.57,0,0,1,.12.2.23.23,0,0,1,0,.15.49.49,0,0,1-.05.23.54.54,0,0,1-.31.22.45.45,0,0,1-.37,0,.44.44,0,0,1-.24-.26.36.36,0,0,1,0-.15" transform="translate(-394.46 -171.38)"/><path class="cls-13" d="M700.22,518.56c.3,0,.29.38,0,.41s-.3-.37,0-.41" transform="translate(-394.46 -171.38)"/><path class="cls-13" d="M697.93,520c.47,0,.45.6,0,.66s-.46-.6,0-.66" transform="translate(-394.46 -171.38)"/><path class="cls-13" d="M706.48,519c.47-.05.46.6,0,.65s-.47-.59,0-.65" transform="translate(-394.46 -171.38)"/><path class="cls-13" d="M696.75,513.44c.46,0,.47.61,0,.67s-.46-.6,0-.67" transform="translate(-394.46 -171.38)"/><path class="cls-13" d="M701,523.39c.46-.05.46.62,0,.67s-.46-.61,0-.67" transform="translate(-394.46 -171.38)"/><path class="cls-13" d="M694.77,521.67a.68.68,0,0,1,.68-.64.63.63,0,0,1,.69.61.68.68,0,0,1-.68.65.63.63,0,0,1-.69-.61" transform="translate(-394.46 -171.38)"/><path class="cls-13" d="M695.07,518.53c.47-.06.47.6,0,.66s-.46-.61,0-.66" transform="translate(-394.46 -171.38)"/><path class="cls-13" d="M699.16,523.21c.31,0,.31.41,0,.44s-.31-.41,0-.44" transform="translate(-394.46 -171.38)"/><path class="cls-13" d="M703.82,522.18a.27.27,0,0,1,.43-.12.42.42,0,0,1,.16.09.33.33,0,0,1,.1.22.31.31,0,0,1-.16.26.34.34,0,0,1-.49-.2l0-.06a.31.31,0,0,1,0-.18" transform="translate(-394.46 -171.38)"/><path class="cls-13" d="M703.83,519.83c.59-.08.59.77,0,.84s-.59-.77,0-.84" transform="translate(-394.46 -171.38)"/><path class="cls-13" d="M697,515.74c.5-.06.5.66,0,.71s-.5-.65,0-.71" transform="translate(-394.46 -171.38)"/><path class="cls-13" d="M694.43,513.63c.86-.11.85,1.12,0,1.22s-.86-1.12,0-1.22" transform="translate(-394.46 -171.38)"/><path class="cls-13" d="M693.12,516.73c.15,0,.15.19,0,.21s-.15-.19,0-.21" transform="translate(-394.46 -171.38)"/><path class="cls-13" d="M692.65,521.28c.56-.06.56.74,0,.8s-.56-.73,0-.8" transform="translate(-394.46 -171.38)"/><path class="cls-13" d="M693.76,525.29a.51.51,0,0,1,.52-.49.49.49,0,0,1,.54.46.53.53,0,0,1-.53.5.49.49,0,0,1-.53-.48" transform="translate(-394.46 -171.38)"/><path class="cls-13" d="M692.86,518.37c.46-.05.46.59,0,.65s-.46-.59,0-.65" transform="translate(-394.46 -171.38)"/><path class="cls-13" d="M695.58,511.75c.23,0,.24.3,0,.34s-.23-.32,0-.34" transform="translate(-394.46 -171.38)"/><path class="cls-13" d="M697,524.16c.57-.07.56.74,0,.81s-.57-.75,0-.81" transform="translate(-394.46 -171.38)"/><path class="cls-30" d="M694.83,512.28c-.75-1.11-.49-2,.94-1.92s3.23,1.2,5.67,4.44a12.4,12.4,0,0,1,4.78,3.71s2.26.14,2,1c-.15.47-1.81.42-1.81.42s-.1.71-.36.62-.41-.87-.62-1a72.33,72.33,0,0,1-6.11-4c-2-1.5-3.81-2.3-4.46-3.25" transform="translate(-394.46 -171.38)"/><path class="cls-52" d="M703.28,495a1.31,1.31,0,0,0,1.05-.24c.43-.38.4-1.16-.76-1.61s-1.8-.53-2.19-1.4-1.45-1.16-1.93,0,3.72,3.24,3.72,3.24" transform="translate(-394.46 -171.38)"/><path class="cls-30" d="M697.4,508.47c-4,1.1-9.7.56-12.91-2.28a4.21,4.21,0,0,1-1.19-1.81c-.29-.77-.7-.66-.82-1.08-.08-.23.37-.38.37-.38a.57.57,0,0,1-.49-.55c0-.71.62.09,1.06-1.3a13.73,13.73,0,0,1,5.28-6.84c3.65-2.28,12.73-1.15,13.9,6.4.95,6.08-1.79,6.89-5.21,7.84" transform="translate(-394.46 -171.38)"/><path class="cls-27" d="M693.59,497.6s-1.34,3.18,1.65,4.28,2.75,2.36,2.75,2.36,4-1.35,3.76,2a5.07,5.07,0,0,0,2.61-4.7c-.11-3.38.13-5.29-1.82-7.53-1.65-1.91-5.24-4.08-11.6-3.17s-7.72,7-7.95,8c-.09.42-.35.83-.55.77-.74-.19-.36-.74-.36-.74s-.69,1-.1,1.47a1.45,1.45,0,0,0,2.11-.61c1.77-2.69,2.61-2.93,3.92-3.17s3,2.41,5.58,1" transform="translate(-394.46 -171.38)"/><path class="cls-53" d="M701.71,505.28l.06,0a2.07,2.07,0,0,0,.77-.92,4.76,4.76,0,0,0,.41-1.11,4.84,4.84,0,0,0-.26-1.78,5.32,5.32,0,0,1-.11-1.67c.12-.88.43-1.72.49-2.6A3.8,3.8,0,0,0,703,496a2.88,2.88,0,0,1-.15-1.44" transform="translate(-394.46 -171.38)"/><path class="cls-53" d="M704,493.4a1.32,1.32,0,0,1-.18.62,1,1,0,0,1-.33.38.83.83,0,0,1-.56.08" transform="translate(-394.46 -171.38)"/><path class="cls-53" d="M703,493c-.09.36-.29.79-.75.75" transform="translate(-394.46 -171.38)"/><path class="cls-53" d="M701.86,492.46a2.07,2.07,0,0,0-.46.57" transform="translate(-394.46 -171.38)"/><path class="cls-53" d="M701.31,491.74a2.09,2.09,0,0,0-.71.64s0,0,0,0" transform="translate(-394.46 -171.38)"/><path class="cls-53" d="M700.83,491.15c-.37.11-.45.76-.73.92" transform="translate(-394.46 -171.38)"/><path class="cls-54" d="M700.94,491.28c0-.73.94-1.58,1.41-2.12,1-1.15,2.13-1.93,3.77-1.48s3,1.59,2.7,3.18c-.21,1.35-1.18,2.53-.82,3.93a5.93,5.93,0,0,0,2.11,2.83c.72.6,1.91,1.42,1.63,2.47-.2.77-1,.92-1.6,1.33a2.65,2.65,0,0,0-1.09,2c0,1.1.78,1.86,0,2.94-.28.39-1.89,1.76-1.89.53" transform="translate(-394.46 -171.38)"/><path class="cls-54" d="M707.34,506.66c2-.53-.53-3-.73-4a2.59,2.59,0,0,1,.89-2.72c.57-.41,1.22-.59.66-1.29-.72-.87-1.75-1.37-2.23-2.44a5.34,5.34,0,0,1-.39-2.54,11.65,11.65,0,0,1,.57-2.5c.21-.81-.15-1.08-1-1.2a1.86,1.86,0,0,0-2.23,1,9.62,9.62,0,0,1-.49,1.49" transform="translate(-394.46 -171.38)"/><path class="cls-53" d="M704,493.55c0-.36.41-.5.73-.36.52.21.62,1.18.65,1.65.05.7-.3,1.35-.21,2.1s.76,1.34,1.07,2.06a3.6,3.6,0,0,1-.16,2.5,7.69,7.69,0,0,1-.43,1.43,2.37,2.37,0,0,0-.41,1.69c.15.8.46,2-.22,2.73-.51.54-1.46.6-2.07,1-1.19.69-2.54,2.78-1,3.71.46.3,2.14-.28,1.77-.94" transform="translate(-394.46 -171.38)"/><path class="cls-53" d="M702.69,511.39c-.65.12-.36-.94-.27-1.22a3.25,3.25,0,0,1,1.81-1.89c.77-.4,2.8-.83,2.75-1.93,0-.42-.48-.79-.68-1.14a2.42,2.42,0,0,1-.27-1.37,18.48,18.48,0,0,1,.76-3.78c.27-.94.32-1.39-.58-2a6.67,6.67,0,0,1,.44-2.68,3.07,3.07,0,0,0,.33-2.3c-.61-1.64-2.38-1-3.2.12" transform="translate(-394.46 -171.38)"/><path class="cls-54" d="M701.51,491.87a8.52,8.52,0,0,1,1.38-2.62c.54-.68,1-.61,1.8-.42s2.2.21,2.84.83c1.43,1.38-.26,3.91,0,5.56s1.42,2.86,2.26,4.17c.45.71.68,1.32,0,2a2.92,2.92,0,0,1-2,.92" transform="translate(-394.46 -171.38)"/><path class="cls-54" d="M700.49,491c-.31-.67,1-1.88,1.51-2.26.85-.7,1.32-.54,2.3-.44,2.07.21,4.94-1.08,5.47,1.6a2.68,2.68,0,0,1-.55,2.39,3,3,0,0,0,.3,3.74c.71.89,1.82,1.36,2.51,2.28.56.75,1.44,2.23.07,2.69-.85.28-1.6.39-2,1.25-.26.55,0,1.11,0,1.68a.33.33,0,0,1-.21-.09" transform="translate(-394.46 -171.38)"/><path class="cls-53" d="M702.92,492.92c0-.87,1.84-2,2.7-1.51s1.07,2,1.18,2.8a5.25,5.25,0,0,0,.83,2.6,5.86,5.86,0,0,1,1.31,3,5.13,5.13,0,0,1-1.09,2.33c-.31.52-.9,1-.68,1.63s.76.92.73,1.71a2.07,2.07,0,0,1-.94,1.64c-.52.4-1.89,1-1.77,1.75" transform="translate(-394.46 -171.38)"/><path class="cls-54" d="M701.81,492.31c1-1,1.12-3,2.84-3.33,1.07-.22,1.93.86,2.93,1.06s1.87-.2,2.45.87a4.4,4.4,0,0,1,.55,2.42c-.1.83-.51,1.61-.6,2.45a3.2,3.2,0,0,0,.76,2.61c.62.51,1.32.06,2,.34,2.43,1,.51,4.68-1.93,3.22" transform="translate(-394.46 -171.38)"/><path class="cls-54" d="M702.74,508a8.44,8.44,0,0,0,2.31-6.68,8,8,0,0,1,3.33-8.29c.71-.61,2-1.29,2.18-2.24a2.47,2.47,0,0,0-1.07-2.17c-1.69-1.39-3.64-.25-4.93,1.08a7.49,7.49,0,0,0-1.83,3.11" transform="translate(-394.46 -171.38)"/><path class="cls-53" d="M693.56,497.69c1.42-1.15,3.07-1.46,4.82-2a3.59,3.59,0,0,0,2.42-2.2,1.63,1.63,0,0,0-.63-1.42" transform="translate(-394.46 -171.38)"/><path class="cls-53" d="M701.7,505.63c0,.32.53-.15.62-.22a2.61,2.61,0,0,0,.88-1.32,8.35,8.35,0,0,0,.62-3.17,25.82,25.82,0,0,0-.41-4.47,5.16,5.16,0,0,1-.16-.81c0-.16.1-.32,0-.47" transform="translate(-394.46 -171.38)"/><path class="cls-53" d="M701,504.3c1.48-.72,1.06-3.22,1-4.39-.06-1,0-2,0-3a5.26,5.26,0,0,1,.23-1.73c.06-.16.26-.83.37-.85" transform="translate(-394.46 -171.38)"/><path class="cls-53" d="M699.25,504a4.94,4.94,0,0,0,1.1-2.6c.32-1.09.57-2.15.8-3.27a17.36,17.36,0,0,1,.69-2.7,2.79,2.79,0,0,1,.7-1.14c.06,0,0,0,0,0" transform="translate(-394.46 -171.38)"/><path class="cls-53" d="M697.72,503.4a7.09,7.09,0,0,0,1.27-2,19.88,19.88,0,0,0,.85-1.92,25.13,25.13,0,0,1,1.39-3c.32-.6.67-1.87,1.43-2.16" transform="translate(-394.46 -171.38)"/><path class="cls-53" d="M696.21,502.31a4.12,4.12,0,0,1,.56-.68,10.65,10.65,0,0,0,.81-1.2,16.75,16.75,0,0,1,1.69-2.62c.59-.61,1.35-1.12,1.61-1.91a7.3,7.3,0,0,1,.57-1.62c.14-.22.42-.59.73-.57" transform="translate(-394.46 -171.38)"/><path class="cls-53" d="M693.74,500.8c.28.25,2.54-1.36,2.83-1.63.74-.71.78-1.68,1.77-2.19a6.14,6.14,0,0,0,1.92-1.5,3.64,3.64,0,0,0,.81-1.38,3.21,3.21,0,0,0,.11-1.35" transform="translate(-394.46 -171.38)"/><path class="cls-53" d="M693.27,499.52a23.37,23.37,0,0,0,3.93-2.28c.28-.27.5-.56.79-.83s.59-.37.86-.59.34-.39.55-.56" transform="translate(-394.46 -171.38)"/><path class="cls-53" d="M699.4,495.26A6.91,6.91,0,0,1,695,496a7.16,7.16,0,0,1-2.64-.75,12.75,12.75,0,0,0-2.18-1,4.25,4.25,0,0,0-3.6.29,10.06,10.06,0,0,0-1.76,1.75c-.42.5-.79,1.15-1.46,1.38" transform="translate(-394.46 -171.38)"/><path class="cls-54" d="M699.69,495.06c-.87.79-2.29.19-3.17-.18a43.62,43.62,0,0,1-4.28-2,7.43,7.43,0,0,0-3.24-1.12,3.91,3.91,0,0,0-1.63.37" transform="translate(-394.46 -171.38)"/><path class="cls-54" d="M700.51,494.22c-.32.24-.43.45-.86.45a3.42,3.42,0,0,1-1.28-.47,10.62,10.62,0,0,1-2.27-1.71,12.23,12.23,0,0,0-1.84-1.5,1.77,1.77,0,0,0-1-.32" transform="translate(-394.46 -171.38)"/><path class="cls-54" d="M700.81,493.39c-1,1.36-3.08-2.45-4.28-2.5" transform="translate(-394.46 -171.38)"/><path class="cls-54" d="M694.32,497.15a4.52,4.52,0,0,1-4-.32,4.18,4.18,0,0,0-2.76-1,2.88,2.88,0,0,0-2.74,1.39,24.54,24.54,0,0,1-1.1,2.21c-.37.51-1.18,1.18-1.9.76" transform="translate(-394.46 -171.38)"/><path class="cls-36" d="M688.29,501.59a1.5,1.5,0,0,0-.38,0c-.19.19-.36.25-.38.14l0-.1a.82.82,0,0,1,.92-.57.71.71,0,0,1,.61.84l0,.09c-.06.09-.19,0-.32-.28,0,0,0-.09-.45-.12" transform="translate(-394.46 -171.38)"/><g class="cls-31"><g class="cls-55"><path class="cls-33" d="M685.57,504a1.81,1.81,0,0,0,1.8,1.91,2,2,0,0,0,2.13-1.7,1.81,1.81,0,0,0-1.81-1.91,2,2,0,0,0-2.13,1.69" transform="translate(-394.46 -171.38)"/></g></g><path class="cls-54" d="M693.5,497.85a3.88,3.88,0,0,0,.09,3,12.65,12.65,0,0,0,2,2.36c.32.36,1.71,2.17.06,3" transform="translate(-394.46 -171.38)"/><path class="cls-35" d="M725.06,511.51a6.81,6.81,0,0,0-.11-1.65,7.74,7.74,0,0,0-.34-1.76.6.6,0,0,0-.91-.38.77.77,0,0,0-.77.69,10.87,10.87,0,0,0,.62,3.29.85.85,0,0,0,1.51-.19" transform="translate(-394.46 -171.38)"/><path class="cls-35" d="M724.74,512.1l0,0c-.14.11-.05.09,0,0" transform="translate(-394.46 -171.38)"/><path class="cls-35" d="M726.84,508.42a.79.79,0,0,0-.8.22c-.5.52-1,1-1.58,1.49s-1,.85-1,1.49.88.88,1.32.47h0a.41.41,0,0,0,.16-.09c.42-.34.82-.75,1.22-1.13s1.07-1,1.56-1.47-.28-1.43-.85-1" transform="translate(-394.46 -171.38)"/><path class="cls-53" d="M723.48,513.17c-.16-1.21-1.52-4.72-.51-5.69,1.37-1.32,1.68,1.54,1.82,2.46.25-1,1.77-3.13,2.74-1.37.84,1.53-2.66,3.51-3.33,4.47" transform="translate(-394.46 -171.38)"/><path class="cls-35" d="M718.82,488.62l.11-.15h0a.57.57,0,0,0-.37-.83.67.67,0,0,0-.51,0,.85.85,0,0,0-.48.74,7.83,7.83,0,0,0-.32-1.37c-.18-.52-1-.31-1,.2,0,.05,0,.1,0,.15a.44.44,0,0,0-.2.42c0,.46.17.92.24,1.4a.47.47,0,0,0,.48.39,2,2,0,0,0,.35.68.49.49,0,0,0,.49.18c.36-.1.45-.42.57-.75a1.34,1.34,0,0,1,.06-.18,2.78,2.78,0,0,0,.64-.84" transform="translate(-394.46 -171.38)"/><path class="cls-35" d="M717.81,488.35h0s0,0,0,0" transform="translate(-394.46 -171.38)"/><path class="cls-35" d="M718.62,487.6a.6.6,0,0,0-.59.12.62.62,0,0,0-.19.63h0s0,0,0,0v0a2.2,2.2,0,0,0-.5.69.58.58,0,0,0,.22.69c.6.47,1.2-.22,1.44-.73s.21-1.25-.37-1.39" transform="translate(-394.46 -171.38)"/><path class="cls-53" d="M717.11,490.33c-.84-.82-1.82-2.27-1.07-3.47.21-.35.39-.74.87-.64.79.16.67,1.45.58,2,.3-1,1.9-1.75,2-.27,0,1-1.36,2.44-2.31,2.23" transform="translate(-394.46 -171.38)"/><rect class="cls-56" x="725.49" y="337.74" width="63.2" height="61.47" transform="translate(-433.2 -77.88) rotate(-6.89)"/><path class="cls-13" d="M729.12,353l1.29,5.8.25-3.88,1.35-.16,1.28,3.69-.25-5.92,1.44-.17,0,8.11-1.52.18-1.44-4.08-.37,4.3-1.5.18-2-7.87Z" transform="translate(-394.46 -171.38)"/><path class="cls-13" d="M735.44,352.26l4.89-.59.17,1.39-1.64.2.63,5.2,1.64-.2.17,1.39-4.89.59-.17-1.39,1.63-.2-.63-5.21-1.64.2Z" transform="translate(-394.46 -171.38)"/><path class="cls-13" d="M744.59,355.7a4.35,4.35,0,0,1-1.78-.75,2,2,0,0,1-.6-1.3,2.12,2.12,0,0,1,.51-1.78,3,3,0,0,1,1.88-.86,5.13,5.13,0,0,1,1.16,0,4.88,4.88,0,0,1,.58.09l.59.15.19,1.54a4.32,4.32,0,0,0-1.13-.42,3.52,3.52,0,0,0-1.09-.06,1.54,1.54,0,0,0-.88.34.78.78,0,0,0-.23.7.72.72,0,0,0,.3.52,3,3,0,0,0,1,.37l.73.17a3.16,3.16,0,0,1,1.57.75,2.34,2.34,0,0,1,.65,1.42,2.22,2.22,0,0,1-.51,1.89,3.57,3.57,0,0,1-2.15.87,5.37,5.37,0,0,1-1.23,0c-.22,0-.42-.06-.62-.11a4.67,4.67,0,0,1-.61-.18l-.2-1.62a6.12,6.12,0,0,0,1.35.51,3.49,3.49,0,0,0,1.22.07,1.5,1.5,0,0,0,.9-.37.89.89,0,0,0,.24-.79,1,1,0,0,0-.3-.6,1.4,1.4,0,0,0-.7-.35l-.84-.2Z" transform="translate(-394.46 -171.38)"/><path class="cls-13" d="M750.43,350.45l.37,3,2-.24-.37-3,1.63-.2,1,8-1.62.2-.43-3.55-2,.24.43,3.56-1.62.19-1-8Z" transform="translate(-394.46 -171.38)"/><path class="cls-13" d="M763.41,348.88l2,3,1.21-3.4,1.75-.21-1.95,5.15.39,3.15-1.64.19-.37-3.15-3.11-4.54Z" transform="translate(-394.46 -171.38)"/><path class="cls-13" d="M769.39,352.22a5.53,5.53,0,0,1,.35-3.18,2.76,2.76,0,0,1,4.32-.51,7,7,0,0,1,.75,6.19,2.76,2.76,0,0,1-4.32.52,5.52,5.52,0,0,1-1.09-3Zm2.55-3.08a1,1,0,0,0-.82.75,7.56,7.56,0,0,0,.5,4.15,1,1,0,0,0,1,.54,1,1,0,0,0,.84-.76,5.52,5.52,0,0,0,0-2.11,5.09,5.09,0,0,0-.53-2,1,1,0,0,0-1-.53Z" transform="translate(-394.46 -171.38)"/><path class="cls-13" d="M775.78,347.39l1.62-.2.66,5.44a1.32,1.32,0,0,0,.43.9,1.1,1.1,0,0,0,.9.23,1.12,1.12,0,0,0,.83-.44,1.3,1.3,0,0,0,.2-1l-.66-5.45,1.62-.19.61,5a3.48,3.48,0,0,1-.38,2.44,3.51,3.51,0,0,1-4.28.52,3.49,3.49,0,0,1-1-2.29Z" transform="translate(-394.46 -171.38)"/><path class="cls-13" d="M750.64,363.76l3.19,7.72-1.63.2-.74-1.92-2.17.27-.25,2-1.63.19,1.25-8.26Zm-1.19,4.93,1.54-.18-1.16-3.19Z" transform="translate(-394.46 -171.38)"/><path class="cls-13" d="M754.27,363.33l1.63-.2.8,6.6,3.47-.42.17,1.39-5.1.61Z" transform="translate(-394.46 -171.38)"/><path class="cls-13" d="M761.06,362.51l1.62-.2.8,6.6,3.47-.42.17,1.4-5.09.61Z" transform="translate(-394.46 -171.38)"/><path class="cls-13" d="M734.43,387.18l-.8-6.61-2.08.25-.17-1.38,5.79-.7.17,1.39-2.08.24.8,6.61Z" transform="translate(-394.46 -171.38)"/><path class="cls-13" d="M740,378.39l.37,3,2-.24-.37-3.05,1.63-.19,1,8-1.63.19-.43-3.55-2,.25.43,3.55-1.63.2-1-8Z" transform="translate(-394.46 -171.38)"/><path class="cls-13" d="M746.34,385.74l-1-8,5.12-.62.17,1.39-3.5.43.21,1.72,3.16-.38.17,1.39-3.16.39.25,2.09,3.49-.43.17,1.39Z" transform="translate(-394.46 -171.38)"/><path class="cls-13" d="M761.32,375.83a3.54,3.54,0,0,1,2.12.25,1.78,1.78,0,0,1,.88,1.44,1.72,1.72,0,0,1-.26,1.25,1.83,1.83,0,0,1-1.13.65,2.12,2.12,0,0,1,1.48.44,2,2,0,0,1,.66,1.4,2,2,0,0,1-.51,1.77,4,4,0,0,1-2.26.8l-2.65.32-1-8Zm-.69,3.23,1.07-.12a1.42,1.42,0,0,0,.86-.33.85.85,0,0,0,.18-.73.89.89,0,0,0-.36-.69,1.41,1.41,0,0,0-.9-.12l-1.07.13Zm.45,3.62,1.08-.12a1.73,1.73,0,0,0,1-.39,1.06,1.06,0,0,0,.21-.93,1.15,1.15,0,0,0-.44-.89,1.58,1.58,0,0,0-1.1-.15l-1.08.13Z" transform="translate(-394.46 -171.38)"/><path class="cls-13" d="M766.7,383.28l-1-8,5.12-.62.17,1.4-3.5.42.21,1.72,3.16-.37.18,1.39-3.17.38.25,2.09,3.5-.42.17,1.4Z" transform="translate(-394.46 -171.38)"/><path class="cls-13" d="M774.91,378.73a4.15,4.15,0,0,1-1.79-.76,2,2,0,0,1-.6-1.29,2.17,2.17,0,0,1,.52-1.79,2.9,2.9,0,0,1,1.88-.85,5.22,5.22,0,0,1,1.16,0,4.54,4.54,0,0,1,.59.1l.59.15.19,1.54a4.67,4.67,0,0,0-1.13-.42,3.2,3.2,0,0,0-1.09-.06,1.5,1.5,0,0,0-.87.34.78.78,0,0,0-.23.7.71.71,0,0,0,.29.52,3.29,3.29,0,0,0,1,.37l.73.18a3.13,3.13,0,0,1,1.57.76,2.32,2.32,0,0,1,.65,1.41,2.21,2.21,0,0,1-.52,1.9,3.53,3.53,0,0,1-2.14.86,5,5,0,0,1-1.24,0l-.62-.11c-.2-.05-.41-.11-.61-.18l-.2-1.64a5.28,5.28,0,0,0,1.35.52,3.54,3.54,0,0,0,1.22.07,1.42,1.42,0,0,0,.9-.38.9.9,0,0,0,.24-.77,1,1,0,0,0-.29-.61,1.43,1.43,0,0,0-.7-.35l-.84-.19Z" transform="translate(-394.46 -171.38)"/><path class="cls-13" d="M781.92,381.44l-.8-6.61-2.09.25-.16-1.38,5.79-.7.17,1.38-2.08.25.79,6.61Z" transform="translate(-394.46 -171.38)"/><rect class="cls-57" x="733.34" y="401.84" width="63.2" height="63.2" transform="translate(-440.89 -76.58) rotate(-6.88)"/><path class="cls-58" d="M781.13,435l-31,3.75-2.31-19.08a4.14,4.14,0,0,1,3.63-4.62l22.79-2.76a4.14,4.14,0,0,1,4.63,3.63Z" transform="translate(-394.46 -171.38)"/><path class="cls-59" d="M778.24,445.79l-22.79,2.76a4.16,4.16,0,0,1-4.62-3.63l-.74-6.13,31-3.75.74,6.13a4.15,4.15,0,0,1-3.63,4.62" transform="translate(-394.46 -171.38)"/><rect class="cls-60" x="761.14" y="426.51" width="1.92" height="10.78" transform="translate(-440.92 -76.48) rotate(-6.92)"/><rect class="cls-61" x="763.05" y="426.29" width="1.92" height="10.78" transform="translate(-440.63 -76.85) rotate(-6.87)"/><rect class="cls-62" x="763.05" y="426.29" width="1.92" height="10.78" transform="translate(-440.63 -76.85) rotate(-6.87)"/><rect class="cls-63" x="764.95" y="426.06" width="1.93" height="10.78" transform="translate(-440.74 -76.25) rotate(-6.9)"/><rect class="cls-64" x="766.87" y="425.83" width="1.91" height="10.78" transform="translate(-440.35 -76.86) rotate(-6.84)"/><path class="cls-65" d="M770.83,425.42a6.56,6.56,0,1,1-7.31-5.72,6.55,6.55,0,0,1,7.31,5.72" transform="translate(-394.46 -171.38)"/><path class="cls-66" d="M763.76,421.61a4.63,4.63,0,1,1-4,5.15,4.63,4.63,0,0,1,4-5.15" transform="translate(-394.46 -171.38)"/><path class="cls-59" d="M764,423.52a2.71,2.71,0,1,1-2.37,3,2.71,2.71,0,0,1,2.37-3" transform="translate(-394.46 -171.38)"/><path class="cls-59" d="M775.62,419.12l-4.14.5a.41.41,0,0,1-.46-.36l-.5-4.14a.42.42,0,0,1,.36-.46l4.15-.5a.41.41,0,0,1,.46.36l.5,4.14a.42.42,0,0,1-.37.46" transform="translate(-394.46 -171.38)"/><path class="cls-59" d="M755.64,420.28l-4.14.5a.42.42,0,0,1-.46-.36l-.19-1.66a.41.41,0,0,1,.36-.46l4.14-.5a.42.42,0,0,1,.46.36l.2,1.66a.42.42,0,0,1-.36.46" transform="translate(-394.46 -171.38)"/><path class="cls-67" d="M774.78,416.71a1.54,1.54,0,1,1-1.72-1.34,1.53,1.53,0,0,1,1.72,1.34" transform="translate(-394.46 -171.38)"/><path class="cls-13" d="M755.62,427.27a2.24,2.24,0,1,1-2.49-2,2.24,2.24,0,0,1,2.49,2" transform="translate(-394.46 -171.38)"/><path class="cls-60" d="M753.21,426.06a1.48,1.48,0,0,1,.36,2.93,1.47,1.47,0,0,1-1.64-1.28,1.49,1.49,0,0,1,1.28-1.65" transform="translate(-394.46 -171.38)"/><path class="cls-13" d="M775.34,423.12a1.74,1.74,0,1,1-1.52,1.94,1.75,1.75,0,0,1,1.52-1.94" transform="translate(-394.46 -171.38)"/><path class="cls-59" d="M775.4,423.69a1.17,1.17,0,1,1,.28,2.33,1.17,1.17,0,0,1-.28-2.33" transform="translate(-394.46 -171.38)"/><polygon class="cls-68" points="384.26 270.4 359.58 273.38 359.29 270.91 383.96 267.93 384.26 270.4"/><rect class="cls-13" x="755.68" y="441.99" width="22.62" height="12.8" transform="translate(-442.65 -76.28) rotate(-6.88)"/><rect class="cls-51" x="757.21" y="442.01" width="18.89" height="7.04" transform="translate(-442.35 -76.24) rotate(-6.89)"/><g class="cls-69"><g class="cls-70"><path class="cls-71" d="M763.15,426.35a1.17,1.17,0,0,1,1-1.3" transform="translate(-394.46 -171.38)"/></g></g><path class="cls-72" d="M759.44,453.38a8.72,8.72,0,0,0,.06.88s0,0,0,.05-.09-.06-.13-.25a4.33,4.33,0,0,1-.08-.65l-.51.11c0,.36,0,.69.06.85s0,.06,0,.07-.09-.08-.13-.25a3.93,3.93,0,0,1-.07-.63l-.36.08c-.15,0-.17-.11-.1-.12a.11.11,0,0,0,.08,0l.37-.07c0-.17,0-.35,0-.49l-.4.08c-.13,0-.14-.1-.09-.12s0,0,.07,0l.43-.08c0-.45.13-.79.24-.79a0,0,0,0,1,.06,0,5.48,5.48,0,0,0-.09.7l.48-.09c0-.45.12-.77.23-.79a.06.06,0,0,1,.06,0,4,4,0,0,0-.11.7l.51-.1s.05.07,0,.09l-.48.1a.3.3,0,0,0,0,.09,4.09,4.09,0,0,0,0,.42l.57-.11s.05.07,0,.09-.3.05-.54.12m-.19-.56c-.17,0-.34.07-.48.11s0,0,0,.06,0,.31,0,.43l.49-.1c0-.18,0-.34,0-.5" transform="translate(-394.46 -171.38)"/><path class="cls-72" d="M761.87,451.48s0-.08.11-.11c.66-.12.74,2.39-.34,2.6s-1.17-2.65,0-2.86c.21,0,.23.13.23.13a.16.16,0,0,0-.13,0c-.91.18-.95,2.79-.05,2.6s.75-2.48.21-2.37" transform="translate(-394.46 -171.38)"/><path class="cls-72" d="M764.28,453.37s0,0,0,0,0,0,0,0,0,.28-.17.31-.44-.5-.46-1h0c-.14.4-.31.79-.48.82-.57.11-.37-1.59-.08-1.65.06,0,.07,0,.08.07a5.26,5.26,0,0,0-.1,1.3c0,.09.06.17.11.16s.48-1,.55-1.33.12-.34.21-.36.07,0,.09.06a3.88,3.88,0,0,0-.06,1.53c.06.28.11.31.17.31s.11-.18.11-.18" transform="translate(-394.46 -171.38)"/><path class="cls-72" d="M765.5,451.3a.94.94,0,0,0-.07.71s0,0,0,0-.22-.31-.17-.55a3.66,3.66,0,0,0-.52,1.58,0,0,0,0,1,0,.05c-.08,0-.12-.06-.15-.24-.12-.64-.11-1.33.1-1.38a.07.07,0,0,1,.07.07,7.86,7.86,0,0,0,0,1h0c.13-.55.39-1.3.72-1.37a.08.08,0,0,1,.09.06" transform="translate(-394.46 -171.38)"/><path class="cls-72" d="M767.4,451.16s0,0-.07,0a4.27,4.27,0,0,0-.45,1.53s0,0,0,0-.11-.06-.15-.24c-.13-.64-.11-1.34.08-1.37a.06.06,0,0,1,.08.06,6,6,0,0,0,0,1h0c.09-.49.27-1.2.59-1.26a.16.16,0,0,1,.2.13,7,7,0,0,0-.06,1h0c.12-.42.32-1,.58-1.09s.16,0,.19.12a4.59,4.59,0,0,0,0,1.16c.05.27.11.35.18.34s.08-.08.11-.09,0,0,0,0,0,.15-.14.18-.33-.23-.4-.61a3,3,0,0,1-.07-.9s0,0-.06,0a3.53,3.53,0,0,0-.43,1.25.06.06,0,0,1,0,.06c-.08,0-.12-.07-.16-.25a5.84,5.84,0,0,1,0-1.07" transform="translate(-394.46 -171.38)"/><path class="cls-72" d="M769.36,452.19c.25-.06.44-.77.31-1.41v0a.59.59,0,0,1-.3-.28.16.16,0,0,1,.1-.15c.1,0,.22.17.28.34a.37.37,0,0,0,.22,0,.24.24,0,0,0,.1,0,.12.12,0,0,1-.1.15.57.57,0,0,1-.18,0c.12.64,0,1.46-.44,1.54-.75.14-.66-1.53-.08-1.64a.12.12,0,0,1,.13.07c-.46.08-.46,1.53,0,1.45" transform="translate(-394.46 -171.38)"/><path class="cls-72" d="M771,450.47s0,0-.07,0a4.17,4.17,0,0,0-.45,1.52.05.05,0,0,1,0,.06c-.08,0-.12-.06-.16-.25-.12-.63-.11-1.33.09-1.37a.06.06,0,0,1,.08.06,5.19,5.19,0,0,0,0,1h0c.1-.49.28-1.2.6-1.26a.15.15,0,0,1,.19.12,5.6,5.6,0,0,0-.06,1h0c.11-.42.32-1,.58-1.09.11,0,.16,0,.19.12a4.79,4.79,0,0,0,0,1.16c.06.27.1.35.18.34s.08-.09.11-.1,0,0,0,0,0,.15-.14.17-.33-.22-.4-.61a3.7,3.7,0,0,1-.07-.91s0,0,0,0a3.27,3.27,0,0,0-.45,1.26s0,0,0,.05-.12-.07-.15-.25a3.94,3.94,0,0,1-.06-1.07" transform="translate(-394.46 -171.38)"/><path class="cls-72" d="M773.07,450c-.5.1-.61,1.7,0,1.59.24-.05.33-.35.33-.35a.06.06,0,0,1,.06,0c.05,0,0,0,0,0s-.09.42-.43.49c-.9.17-.75-1.65.06-1.8.49-.1.41.92-.19,1a.11.11,0,0,1-.14,0c.43-.09.62-1,.32-.91" transform="translate(-394.46 -171.38)"/><path class="cls-72" d="M774.45,449.8a3.86,3.86,0,0,0-.45,1.48.06.06,0,0,1,0,.05c-.08,0-.13-.07-.16-.25-.12-.63-.11-1.32.08-1.37s.07,0,.08.07a6.81,6.81,0,0,0,0,1h0c.1-.48.3-1.16.64-1.22.12,0,.19,0,.2.13a4.8,4.8,0,0,0,0,1.26c.05.26.11.34.17.33s.07-.08.12-.09,0,0,0,0,0,.16-.14.18-.33-.23-.4-.6a4.75,4.75,0,0,1-.05-1c0-.05,0-.06-.09,0" transform="translate(-394.46 -171.38)"/><path class="cls-72" d="M775.58,449.53a4.67,4.67,0,0,0,0,1.41c0,.27.14.5.29.46s.2-.19.22-.27.08,0,.06,0-.08.35-.28.39-.43-.19-.52-.61a4.37,4.37,0,0,1,0-1.29l-.12,0c-.16,0-.17-.12-.11-.14s0,0,.1,0l.15,0c0-.28.13-.46.22-.49s.06,0,.06.06a3.21,3.21,0,0,0-.05.37,3.51,3.51,0,0,1,.42-.12s.05.06,0,.08l-.41.16" transform="translate(-394.46 -171.38)"/><polygon class="cls-73" points="350.77 362.38 413.51 354.79 405.93 292.06 343.19 299.63 350.77 362.38"/><polygon class="cls-74" points="376.89 319.9 376.16 323.3 377.89 321.73 376.89 319.9"/><polygon class="cls-75" points="378.67 323.13 375.61 325.85 375.07 328.39 379.4 324.46 378.67 323.13"/><polygon class="cls-74" points="380.62 326.65 374.23 332.35 373.47 335.89 381.63 328.49 380.62 326.65"/><path class="cls-74" d="M780.93,508.29l-1.16-2.11-4.92,4.37a16.68,16.68,0,0,0,6.08-2.26" transform="translate(-394.46 -171.38)"/><path class="cls-75" d="M768.82,510.36a14.33,14.33,0,0,0,3.55.41l6.62-6-1.3-2.34Z" transform="translate(-394.46 -171.38)"/><polygon class="cls-13" points="377.89 321.73 376.16 323.3 375.61 325.85 378.67 323.13 377.89 321.73"/><path class="cls-76" d="M774.85,510.56l4.92-4.37-.78-1.4-6.62,6a16.14,16.14,0,0,0,2.48-.21" transform="translate(-394.46 -171.38)"/><polygon class="cls-76" points="379.4 324.46 375.07 328.39 374.23 332.35 380.62 326.65 379.4 324.46"/><path class="cls-13" d="M776.09,499.87l-8.16,7.41-.52,2.43c.35.12.69.21,1,.29l8.88-7.91Z" transform="translate(-394.46 -171.38)"/><path class="cls-74" d="M772.67,489.89a1.48,1.48,0,1,1-1.65-1.3,1.48,1.48,0,0,1,1.65,1.3" transform="translate(-394.46 -171.38)"/><polygon class="cls-77" points="361.64 321.74 361.48 322.47 361.7 321.86 361.64 321.74"/><path class="cls-78" d="M762.61,504.87l-.56-.2-1.28.88.09-1.55-1.24-1,1.5-.41.1-.27-1.1-2-.1.14.34,1.12-1.1-.42-1,.67.06-1.18-.93-.72,1.14-.3.38-1.11.64,1h.1l-1.77-3.19-1.05-.4-1.28.89.09-1.56h0l-1,4.53.14-.4.64,1,1.17,0-.73.91.33,1.13-1.1-.41-1,.67,0-.69-1.1,5.16.65,1,1.55,0-1,1.21.44,1.5-1.46-.55-1,.72-.09.44a16.32,16.32,0,0,0,13.16-1.77Zm-5.55,1.82-1,.66.06-1.17-.94-.71,1.13-.3.4-1.11.63,1,1.18,0-.74.91.33,1.13Zm3.91,3-1.28.89.08-1.56-1.24-.94,1.51-.41.51-1.48.85,1.31,1.56,0-1,1.21.45,1.5Z" transform="translate(-394.46 -171.38)"/><polygon class="cls-76" points="368.87 336.56 367.32 336.51 366.46 335.21 365.94 336.68 364.44 337.09 365.68 338.04 365.6 339.59 366.88 338.71 368.34 339.26 367.9 337.77 368.87 336.56"/><polygon class="cls-76" points="361.1 325.49 362.38 324.6 363.44 325 361.7 321.86 361.48 322.47 361.17 323.92 361.19 323.93 361.1 325.49"/><polygon class="cls-76" points="360.68 339.91 360.22 338.42 361.2 337.21 359.64 337.17 359 336.19 358.17 340.08 359.22 339.36 360.68 339.91"/><polygon class="cls-76" points="365.51 332.02 366.75 332.97 366.67 334.52 367.96 333.63 368.51 333.85 367.12 331.33 367.03 331.62 365.51 332.02"/><polygon class="cls-76" points="364.47 334.04 363.29 334.01 362.65 333.03 362.25 334.14 361.13 334.45 362.06 335.16 362 336.33 362.97 335.67 364.07 336.09 363.73 334.95 364.47 334.04"/><polygon class="cls-76" points="364.46 327.21 364.08 328.31 362.94 328.62 363.87 329.33 363.82 330.51 364.79 329.84 365.89 330.26 365.55 329.14 365.65 329 365.21 328.19 365.11 328.19 364.46 327.21"/><polygon class="cls-76" points="360.67 330.69 361.76 331.1 361.43 329.98 362.17 329.07 360.99 329.05 360.35 328.05 360.21 328.45 359.73 330.67 359.7 331.36 360.67 330.69"/><path class="cls-76" d="M758.6,489.14c-1.32-.93-1.93,2.15-2.14,3.65,0-1.33-.17-4.45-1.66-3.72-1.78.85,1.16,3.8,1.58,4.24a.17.17,0,0,1,0,.09c-1.22-1.44-3.57-2.78-4.17-.5s4.28.63,4.28.63a.21.21,0,0,1,0-.07c.51-.43,3.75-3.19,2.15-4.31" transform="translate(-394.46 -171.38)"/><path class="cls-79" d="M793.56,501.82a.88.88,0,0,1-.43.15,1,1,0,0,1-.53-1.88l-3.06-5.5a1.23,1.23,0,0,1-.77.4,1.22,1.22,0,0,1-.35-2.42l-.89-1.62a1.23,1.23,0,0,1-.77.42,1.3,1.3,0,0,1-.47,0l-2,9.18h0a1,1,0,0,1,.24,2,.94.94,0,0,1-.65-.14l-1.17,5.52a16.3,16.3,0,0,0,13.16-1.77Zm-8.41,5.4a1.22,1.22,0,0,1-.3-2.43,1.22,1.22,0,0,1,.3,2.43m-.33-8.58a1.22,1.22,0,0,1,2.43-.3,1.22,1.22,0,1,1-2.43.3m4,8.26a1,1,0,0,1-.24-2,1,1,0,1,1,.24,2m.25-3.32a1.23,1.23,0,0,1-.3-2.44,1.23,1.23,0,1,1,.3,2.44m.71-4.37a1,1,0,1,1-.23-2,1,1,0,0,1,.23,2m3.54,7.5a1,1,0,0,1-.24-2,1,1,0,1,1,.24,2" transform="translate(-394.46 -171.38)"/><path class="cls-80" d="M789.19,501.5a1.22,1.22,0,1,0,1.36,1.07,1.21,1.21,0,0,0-1.36-1.07" transform="translate(-394.46 -171.38)"/><path class="cls-76" d="M787.54,490.94l-.83-1.51-.42,1.89a1.3,1.3,0,0,0,.47,0,1.23,1.23,0,0,0,.77-.42" transform="translate(-394.46 -171.38)"/><path class="cls-80" d="M787.25,498.33a1.22,1.22,0,1,0-1.08,1.36,1.22,1.22,0,0,0,1.08-1.36" transform="translate(-394.46 -171.38)"/><path class="cls-80" d="M787.42,493.91a1.22,1.22,0,0,0,1.36,1.07,1.23,1.23,0,0,0,.77-.4l-1.12-2a1.21,1.21,0,0,0-1,1.35" transform="translate(-394.46 -171.38)"/><path class="cls-80" d="M785.24,505.13a1.24,1.24,0,0,0-1.08,1.36,1.22,1.22,0,0,0,2.43-.29,1.23,1.23,0,0,0-1.35-1.07" transform="translate(-394.46 -171.38)"/><path class="cls-76" d="M789.58,497.23a1,1,0,1,0,.23,2,1,1,0,0,0-.23-2" transform="translate(-394.46 -171.38)"/><path class="cls-76" d="M789,505.26a1,1,0,1,0,1.1.87,1,1,0,0,0-1.1-.87" transform="translate(-394.46 -171.38)"/><path class="cls-76" d="M792.4,501.46a1,1,0,0,0,1.1.87,1.05,1.05,0,0,0,.43-.16l-1-1.73a1,1,0,0,0-.56,1" transform="translate(-394.46 -171.38)"/><path class="cls-76" d="M785.82,501.72a1,1,0,0,0-1.11-.87h0l-.4,1.83a1,1,0,0,0,.64.15,1,1,0,0,0,.87-1.1" transform="translate(-394.46 -171.38)"/><path class="cls-80" d="M793.49,505.07a1,1,0,1,0,1.1.87,1,1,0,0,0-1.1-.87" transform="translate(-394.46 -171.38)"/><path class="cls-76" d="M790.73,487c-.67-1.47-2.76.89-3.68,2.07.66-1.16,2.08-3.92.42-4.06-1.94-.15-.91,3.87-.75,4.47l0,.08c-.35-1.86-1.69-4.19-3.37-2.53s3.39,2.7,3.39,2.7a.59.59,0,0,0,0-.08c.68-.11,4.87-.88,4-2.64" transform="translate(-394.46 -171.38)"/><path class="cls-2" d="M532.35,364.77c1.92-2.77,3.25-6.32,6.34-8.23,8.14-5,16.59-10.86,25.93-12.74,4.54,2.79,1.7,3.51,7.07,8.51,5.16,4.8,17.79,3.34,24.56,3.34,2,0,10.26.14,11.54.69,2.41,1,3.86,1,6.42,1.77a28.34,28.34,0,0,1,11.22,5.45c2.58,1.85,1.92,2.1,3.21,3.95,2.49,3.58,7.54,9.52,7.84,13.9.7,10.12-7.28,6.16-13.65,5.86-8.68-.4-4.63.44-11.43-3.62-3.74-2.24-2.36-1.86-7.33-1.86-.38,0-6.35,1.26-6.75,1.48-.75.42-6.05,1.9-6.08,1.91-1.66,1.05-9.5,2.83-12.24,4-3,1.29-7.93,2-9.42,2.77-1.29.64-6.43-.52-7.2-.57-5.3-.34-4.52-3.84-7.52-3.32-1.94.33-3.88-1.48-5.67-2.27-.29-.13-4.64-4.54-4.52-1.64s-1,.38-2-.34c-1.25-1-4.64-8.15-4.73-9.22A13.23,13.23,0,0,0,532.35,364.77Z" transform="translate(-394.46 -171.38)"/><path class="cls-3" d="M589.45,355.83c-.89,1.08-5.2,3-6.6,3-1,0-3.31,1.14-5.42,1.17-.7,0-.75.32-1.54.3a25.28,25.28,0,0,0,4.37.49,25.34,25.34,0,0,1,4,1.3c.38,2.26-.66,2.62-2.27,3.84s-5.34,2.26-6.06,3.5c-.94,1.64,11.83,1,1.91,6.22-3,1.56-5.06,2.37-1.16,4.46,3.66,2,2,3.19-.31,5.45-1.52,1.47-3.26,1-.15,3.26.43.31.23.83.83,1.09a19.34,19.34,0,0,0,1.94-.7c2.74-1.18,10.58-3,12.24-4,0,0,5.32-1.49,6.08-1.91.4-.22,6.36-1.48,6.75-1.48,5,0,3.59-.37,7.33,1.86,6.8,4.06,2.74,3.22,11.43,3.62,6.36.3,14.34,4.26,13.65-5.86-.31-4.38-5.36-10.32-7.84-13.9-1.29-1.85-.63-2.09-3.21-3.95a28.34,28.34,0,0,0-11.22-5.45c-2.57-.74-4-.75-6.42-1.77-1.28-.55-9.53-.69-11.54-.69S592,355.77,589.45,355.83Z" transform="translate(-394.46 -171.38)"/><path class="cls-81" d="M553,574.75S566.46,586,575.75,586h266a28.69,28.69,0,0,0,28.69-28.69V379.07Z" transform="translate(-394.46 -171.38)"/><path class="cls-82" d="M864.52,574.75A28.64,28.64,0,0,1,841.75,586h-266a28.69,28.69,0,0,1-28.69-28.69V379.07S845,564,864.52,574.75Z" transform="translate(-394.46 -171.38)"/><path class="cls-83" d="M553,574.75h0q.47.62,1,1.21l.09.11c.32.36.64.72,1,1.07l.1.11c.36.37.72.73,1.09,1.07l0,0a28.86,28.86,0,0,0,3.75,2.94l.19.12c.36.24.74.47,1.11.69l.3.17,1.07.58.33.17,1.14.54.27.12a29,29,0,0,0,3,1.09l.33.09q.58.17,1.17.32l.51.12,1,.21.57.1,1,.15.58.07c.36,0,.72.07,1.09.1.17,0,.34.72.51.73.53,0,1.07.74,1.61.74h266c.55,0,1.08-.71,1.62-.74.17,0,.34-.37.51-.39.36,0,.73-.23,1.09-.27.19,0,.39-.14.58-.16s.67-.14,1-.2l.57-.12c.34-.06.68-.15,1-.23l.51-.12,1.16-.32.33-.1a28.74,28.74,0,0,0,3-1.09l.28-.12c.38-.17.76-.35,1.14-.54l.33-.17,1.07-.58.3-.17c.38-.22.75-.45,1.11-.69l.19-.12a29,29,0,0,0,3.75-2.94l0,0c.37-.35.74-.71,1.09-1.07l.1-.11c.33-.35.66-.71,1-1.07l.09-.11q.5-.59,1-1.21h0c-9.77-5.37-155.78-95-155.78-95S562.74,569.38,553,574.75Z" transform="translate(-394.46 -171.38)"/><path class="cls-2" d="M677.87,351.35c-17.59,3.34-91.81-7.42-107.55-18.93-1.7-1.24,5.24-17.24,4-29.17a126.53,126.53,0,0,0-2.68-16.43c-.24-1-1.22-2.67-2.2-3-17.45-5.09-47.55-37-48.41-76.89,0-1.12,40.78-1.72,69,20.59,11.29-9.3,26.3-15.6,42.7-18.71s32.94-2.8,47.42,1.61c15.86-30.66,36.06-40,36.54-39,17,36.84,14.69,69.17,7.35,83.07a6.07,6.07,0,0,0-.7,3.5,128.65,128.65,0,0,0,4.87,16c4.22,11.36,17.7,23.48,16.7,25.24C735.63,315.54,695.45,348,677.87,351.35Z" transform="translate(-394.46 -171.38)"/><path class="cls-84" d="M724.83,252.91c-.25.56-.52,1.1-.79,1.61a6.07,6.07,0,0,0-.7,3.5l0,.17,0,.17,0,.18h0l0,.18,0,.18h0l0,.18,0,.19h0l0,.19,0,.19,0,.19h0l0,.2h0l.05.2h0l.05.2h0l.05.2h0l.05.21h0l.06.21h0l.05.21h0l.06.21h0l.06.22h0l.06.22h0l.06.22h0l.06.22h0l.06.23h0l.06.23h0l.06.23h0l.06.23.07.24h0l.07.24h0l.07.24.07.24h0l.07.24h0l.07.25h0l.07.25h0l.07.25h0l.08.26.08.26.08.26h0l.08.26.08.27h0l.08.27h0l.08.27h0l.09.27.09.28.09.28.09.28h0l.09.28h0l.09.29.1.29.1.29.1.29.1.3.1.3.1.3.11.3.11.31.11.31.11.31.11.31.11.32.12.32.12.32.12.33.12.33.12.33c4.22,11.36,17.7,23.48,16.7,25.24-.13.23-.27.46-.42.7l-.11.17-.42.65-.06.08-.5.71-.2.27-.4.54-.15.21-.59.74-.2.24-.52.63-.15.18-.71.83-.11.12-.7.78-.13.15-.74.8-.08.09h0l-.17.18-.62.65-.33.34L737,309l-.18.18-.06.06-.84.84-.31.3-.66.64-.33.32-.88.83-.33.32-.71.66-.37.34-.09.08-.82.74-.52.47-.53.47-.48.43-.67.59-.94.82-.39.34-.64.55-.72.61-.28.24-.06.05-.92.77-.1.09-.58.49-.62.51-.57.47-1,.78,0,0-.67.54-.53.42-.69.55,0,0-1,.78-.86.67-.22.17-.9.7-.06,0q-2,1.53-4,3.05l-1,.77-2.08,1.52-1,.76c-3.79,2.73-7.65,5.37-11.44,7.83l-.33.21c-2,1.3-4,2.55-5.95,3.74l-.1.06-1,.58c-7-4.6-19.28-5.59,4.44-24.33h0l-.24-.58h0l0-.08h0l-.11-.26-9,2.7c-2.27-5.53-16.38-74.06-5.43-111.37.82-1.58,12.72,4.05,25.74,18.42A288.21,288.21,0,0,1,724.83,252.91Z" transform="translate(-394.46 -171.38)"/><path class="cls-84" d="M678.23,343.82c-17.59,3.34-92.17.11-107.91-11.4-1.7-1.24,5.24-17.24,4-29.17a126.09,126.09,0,0,0-2.68-16.43,5.52,5.52,0,0,0-.79-1.71c.38-1.32.84-38.31,19.14-57.54h0c30.49-5.1,93.63,86.66,95.55,94.27l-13.84,4.81.26,1h0c30.42,1,20.78,9.19,18,17.07C688.22,345.26,737.84,306.58,678.23,343.82Z" transform="translate(-394.46 -171.38)"/><path class="cls-85" d="M674.72,354.81c-10.34,1.08-22.71.45-36.95-1.29-16.89-2.07-35.58-5.86-44.81-12.36-2-1.42,0-30,25.47-32.76,9.9-1.09,58.54,6.79,66.59,14.87,11-17.51,15.5-28.32,28.13-31.31,22.88-5.42,32.06,8.25,30.06,9.92C726.07,325.2,696.15,347.74,674.72,354.81Z" transform="translate(-394.46 -171.38)"/><path class="cls-6" d="M686.83,354.5c-22.61,2.35-90.94-7.14-117.76-20-2.23-1.07,24.47-24.72,49.92-27.52,9.9-1.09,58.54,6.79,66.59,14.87,11-17.5,15.5-28.32,28.13-31.31,22.88-5.42,35.73,7.45,33.73,9.13C730.3,323,708.27,347.43,686.83,354.5Z" transform="translate(-394.46 -171.38)"/><path class="cls-86" d="M685,316.77c5.09-1.17,10.08-2,9.7-.39-.6,2.49-6.34,13.4-7,16-1.51-2.18-10.5-10.3-11.89-12.41C674.9,318.62,679.85,317.54,685,316.77Z" transform="translate(-394.46 -171.38)"/><path class="cls-86" d="M701.1,296.58c-.43,1-.7,4.16-.49,4.1.93-.28,3.54-3.24,6.59-5.28,2.75-1.84,5.88-2.73,7.93-3.65,1.56-.7-7.6-2.69-8.78-2.18C702.58,291.2,701.94,294.54,701.1,296.58Z" transform="translate(-394.46 -171.38)"/><path class="cls-86" d="M640.79,307c.92.78,2.63,3.61,2.38,3.66-1.07.2-5.08-1.3-9.11-1.71-3.63-.37-7.21.35-9.72.51-1.9.12,6.46-6.38,7.88-6.49C636.81,302.64,639,305.5,640.79,307Z" transform="translate(-394.46 -171.38)"/><path class="cls-87" d="M712.46,181.48c-2.8-1.47-13.58,14.24-15.51,28.41-.1.72,7-2.69,7-2-.27,2.81-.81,6.46-1,9.4-.5,6.53,5.62-12.22,5.69,8.88,0,2,4.44-1.67,6-1,1,.47,1.24,5.36,2.72,5.33C725.11,230.42,724.36,187.73,712.46,181.48Z" transform="translate(-394.46 -171.38)"/><path class="cls-87" d="M532.84,215.84c1.55-3.6,24.23,3.13,37.16,15.29.66.62-8.89,2.9-8.26,3.54,2.46,2.5,5.84,5.6,8.35,8.26,5.59,5.9-15-7.4,1.44,13,1.55,1.93-5.58,1.86-6.5,3.71-.62,1.26,3,6.13,1.54,7.27C558.87,272.94,526.24,231.16,532.84,215.84Z" transform="translate(-394.46 -171.38)"/><g class="cls-88"><polyline class="cls-89" points="417.37 133.3 412.57 137.93 406.17 133.93"/><line class="cls-89" x1="412.57" y1="137.93" x2="408.89" y2="115.57"/><line class="cls-89" x1="408.28" y1="111.85" x2="407.18" y2="105.15"/><polyline class="cls-90" points="437 107.19 430.46 115.59 421.87 108.97"/><line class="cls-90" x1="430.46" y1="115.59" x2="425.96" y2="77.21"/><line class="cls-90" x1="425.23" y1="71.02" x2="424.07" y2="61.11"/><polyline class="cls-90" points="368.97 123.33 362.43 131.73 353.83 125.1"/><line class="cls-90" x1="362.43" y1="131.73" x2="357.93" y2="93.35"/><line class="cls-90" x1="357.2" y1="87.16" x2="356.03" y2="77.25"/><line class="cls-90" x1="381.39" y1="61.1" x2="386.91" y2="108.15"/><line class="cls-90" x1="387.35" y1="111.86" x2="388.36" y2="120.53"/></g></svg>