<svg id="Layer_1" data-name="Layer 1" xmlns="http://www.w3.org/2000/svg" viewBox="0 0 68.61 124.74"><defs><style>.cls-1,.cls-9{fill:#424242;}.cls-1,.cls-10,.cls-11,.cls-12,.cls-2,.cls-3,.cls-5,.cls-7,.cls-8{fill-rule:evenodd;}.cls-2{fill:#f08d40;}.cls-3{fill:#f08d44;}.cls-4{fill:#ed532c;}.cls-5{fill:#efeded;}.cls-6{fill:#f3c62c;}.cls-7{fill:#c46d29;}.cls-8{fill:#fff0da;}.cls-10{fill:#de8746;}.cls-11{fill:#ec9351;}.cls-12{fill:#58595b;}</style></defs><title>logophone</title><polygon class="cls-1" points="25.62 86.32 28.36 86.32 28.36 75.52 33.78 75.52 33.78 86.32 36.52 86.32 42.73 86.32 42.73 91.05 19.41 91.05 19.41 86.32 25.62 86.32"/><path class="cls-2" d="M82.31,64.49c-8.94-.38-20.2-6.17-16.61-6.87A8.92,8.92,0,0,0,70.64,55c2-2.53,6.42-2.63,11.67-2.63S91.95,52.43,94,55a8.9,8.9,0,0,0,4.95,2.66c3.58.7-7.67,6.49-16.61,6.87" transform="translate(-46.52 -31.26)"/><path class="cls-3" d="M56,62.19C56,61,55.29,60,54.45,60s-1.52,1-1.52,2.15.68,2.16,1.52,2.16,1.52-1,1.52-2.16" transform="translate(-46.52 -31.26)"/><path class="cls-3" d="M99.21,62.19c0-1.19.68-2.15,1.52-2.15s1.52,1,1.52,2.15-.68,2.16-1.52,2.16-1.52-1-1.52-2.16" transform="translate(-46.52 -31.26)"/><rect class="cls-4" x="7.93" y="26.36" width="46.28" height="50.12"/><polygon class="cls-5" points="24.17 65.72 29.91 65.72 32.23 65.72 37.97 65.72 37.97 68.05 32.23 68.05 32.23 73.78 29.91 73.78 29.91 68.05 24.17 68.05 24.17 65.72"/><rect class="cls-6" x="13.23" y="32.28" width="35.67" height="1.94"/><rect class="cls-6" x="13.08" y="35.94" width="15.5" height="3.13"/><rect class="cls-6" x="33.56" y="35.94" width="15.5" height="3.13"/><path class="cls-7" d="M54.45,64.35V60h.92a.73.73,0,1,1,0,1.46.73.73,0,1,1,0,1.46h0a.7.7,0,0,1,0,1.39Z" transform="translate(-46.52 -31.26)"/><path class="cls-2" d="M100.73,84.34c0,.53-1.85.68-3.29,1.81a9.39,9.39,0,0,0-3.62,6.69c0,5.47-5.58,9.35-10.15,11-1.45.53,1.24,1.54,3.49,2.13a15.4,15.4,0,0,0,5.54.29c10.74-.88,15.53-7.32,16-13.22.44-5.62-3.91-10.62-8-10.8Z" transform="translate(-46.52 -31.26)"/><path class="cls-8" d="M92.92,96.54c-1.76,3.52-5.79,6-9.25,7.3-1.45.53,1.24,1.54,3.49,2.13a15.43,15.43,0,0,0,5.54.29c5.22-.43,9-2.17,11.63-4.52a4.52,4.52,0,0,1-2.6-.79c-1.72-3.5-2.78-.09-5.44-3.21-.56-1-2-.46-3.37-1.2" transform="translate(-46.52 -31.26)"/><path class="cls-7" d="M100.73,64.35V60h-.92a.73.73,0,0,0,0,1.46.73.73,0,0,0,0,1.46h0a.7.7,0,0,0,0,1.39Z" transform="translate(-46.52 -31.26)"/><rect class="cls-9" x="7.93" y="76.2" width="46.28" height="1.18"/><path class="cls-2" d="M82.66,58.73c-3.33-.3-13.81-5.18-16-7.51-.24-.25,1.89-2.21,2.34-4a15,15,0,0,0,.43-2.45.6.6,0,0,0-.23-.51c-2.84-1.49-6.46-7.34-4.41-13,.06-.16,7.39,1.55,11.2,6a22.14,22.14,0,0,1,8.67-.78,22.13,22.13,0,0,1,8.4,2.31c4.53-3.65,12.05-4,12.08-3.86,1,6-3.6,11.08-6.67,12a.6.6,0,0,0-.32.47,15.12,15.12,0,0,0,0,2.49c.13,1.8,1.87,4.11,1.59,4.31C97.18,56.1,86,59,82.66,58.73" transform="translate(-46.52 -31.26)"/><path class="cls-10" d="M65.77,32.88c.37-.55,3.94,1.25,5.73,3.66.09.12-1.57.22-1.48.34.33.49.8,1.11,1.14,1.62.75,1.15-2.27-1.68-.15,2.21.2.37-1,.14-1.19.42s.32,1.11,0,1.26c-1.46.77-5.64-7.16-4.08-9.52" transform="translate(-46.52 -31.26)"/><path class="cls-11" d="M66.66,51.19c-.05-.37,1.93-2.25,2.35-3.92a15,15,0,0,0,.43-2.45.69.69,0,0,0-.05-.29c.36-.49.75-1.06,1.17-1.67h0v0h.14l0-.07h.05l.69-1,.07-.1c1.54-2.15,3.22-4.21,4.41-4.18.72,0,3.11,3.23,4.67,6.57a24.4,24.4,0,0,1,2.14,6.55h0l0,.17h0c0,.07,0,.14,0,.22h0l0,.22h0c0,.07,0,.15,0,.22h0v.06h0A23.7,23.7,0,0,1,83,55.64v0h0s0,.07,0,.1h0c-.07,1-.19,2-.35,3.12-3.51-.64-12.75-5-16.54-7.11-.1-.06.1-.31.55-.62m16.25-.25,0,.22c0-.07,0-.14,0-.22M69.14,44.26a1.84,1.84,0,0,0-.5-.31,5.27,5.27,0,0,0,.5.31" transform="translate(-46.52 -31.26)"/><path class="cls-11" d="M84.06,50.31h0Zm-.35,1.07h0Zm3-6.17h0Zm13,9c.12-.35-1.5-2.55-1.62-4.28a15.15,15.15,0,0,1,0-2.49.65.65,0,0,1,.1-.27c-.26-.55-.55-1.18-.85-1.85h-.17v0h-.07l-.46-1h0l0-.07h0c-1.13-2.39-2.42-4.71-3.59-4.9-.71-.11-3.63,2.62-5.77,5.63-.2.28-.39.55-.57.82h0a23.34,23.34,0,0,0-2.66,5.1h0l0,.12h0L84,50.6h0l-.07.21h0l-.15.47h0l0,.09h0a23.69,23.69,0,0,0-.83,4.24v0h0v0h0v.09h0c-.11,1-.17,2-.22,3.13,3.57,0,13.44-2.69,17.55-4,.11,0,0-.32-.43-.71m-1.21-7.26a1.9,1.9,0,0,1,.55-.22c-.19.08-.37.16-.55.22" transform="translate(-46.52 -31.26)"/><path class="cls-8" d="M82.65,58.92c-3.51-.64-12.75-5-16.54-7.11-.51-.27,6.49-5.31,13.74.77a21.76,21.76,0,0,1,3.08,3.33,21.7,21.7,0,0,1,3.63-2.73c8.22-4.7,14.2,1.51,13.65,1.69-4.11,1.35-14,4-17.55,4" transform="translate(-46.52 -31.26)"/><path class="cls-12" d="M82.94,55.63c.66,0,1.31.11,1.2.3s-1.23,1.53-1.4,1.84c-.11-.34-.95-1.74-1-2.07s.58-.17,1.24-.08" transform="translate(-46.52 -31.26)"/><path class="cls-10" d="M104.28,36.35c-.26-.61-4.1.52-6.29,2.58-.11.1,1.5.49,1.4.6-.42.42-1,.95-1.41,1.39-.95,1,2.53-1.25-.24,2.2-.27.32.94.31,1.1.63s-.51,1-.26,1.23c1.3,1,6.83-6,5.72-8.63" transform="translate(-46.52 -31.26)"/><path class="cls-12" d="M90.93,51.35c-.15.1-.44.45-.4.45s.82-.2,1.47-.28a11.48,11.48,0,0,1,1.56,0c.31,0-1-.7-1.25-.71a2.15,2.15,0,0,0-1.39.55" transform="translate(-46.52 -31.26)"/><path class="cls-12" d="M76.09,50a1.43,1.43,0,0,1,.3.52c-.17,0-.77-.35-1.39-.55a11.55,11.55,0,0,0-1.53-.32c-.3-.06,1.13-.5,1.36-.45a2.17,2.17,0,0,1,1.26.81" transform="translate(-46.52 -31.26)"/><path class="cls-9" d="M46.52,147.13h5.15v-2.38H49.24V133.83H46.52Zm6.77,0h5.15v-2.31H56v-3.27h1.81v-1.92H56V136h2.44v-2.22H53.3Zm8.29,0h2.66V136H66v-2.22H59.83V136h1.75Zm7.48,0h2.66V136h1.76v-2.22H67.31V136h1.75Zm6,0h5.16v-2.31H77.8v-3.27h1.81v-1.92H77.8V136h2.44v-2.22H75.08ZM88.19,147a1.49,1.49,0,0,1-.08-.24,1.16,1.16,0,0,1,0-.28V143a3.58,3.58,0,0,0-.09-.8,2.58,2.58,0,0,0-.3-.74,2.17,2.17,0,0,0-.54-.62,4.16,4.16,0,0,0,.46-.63,3.49,3.49,0,0,0,.33-.73,2.7,2.7,0,0,0,.13-.8V137a3.33,3.33,0,0,0-.24-1.27,3,3,0,0,0-.68-1,3,3,0,0,0-1-.66,3,3,0,0,0-1.17-.23H81.91v13.3h2.62V141.9H85a.43.43,0,0,1,.36.14.65.65,0,0,1,.1.42v4a1.5,1.5,0,0,0,.06.47c0,.12.09.19.16.2h2.48l0,0s0,0,0,0v0m-2.73-7.85a.66.66,0,0,1-.1.42.43.43,0,0,1-.36.14h-.46V136H85a.41.41,0,0,1,.36.15.7.7,0,0,1,.1.42ZM93,133.83v13.3h3.1a3.41,3.41,0,0,0,.82-.1,3.49,3.49,0,0,0,.79-.3,3,3,0,0,0,.66-.47,3,3,0,0,0,.68-1,3.37,3.37,0,0,0,.24-1.28v-1.46a2.77,2.77,0,0,0-.13-.81,3.68,3.68,0,0,0-.34-.74,4.12,4.12,0,0,0-.49-.65,3.67,3.67,0,0,0,.41-.6,3.49,3.49,0,0,0,.3-.67,2.64,2.64,0,0,0,.11-.72V137a3.31,3.31,0,0,0-.24-1.27,3.1,3.1,0,0,0-.68-1,2.74,2.74,0,0,0-.66-.48,3.47,3.47,0,0,0-1.61-.4Zm3,2.2h0a.57.57,0,0,1,.4.14.56.56,0,0,1,.15.41v2.29a.59.59,0,0,1-.13.4.49.49,0,0,1-.39.15h-.35V136Zm.7,8.35a.64.64,0,0,1-.12.43.56.56,0,0,1-.44.14h-.46v-3.64h.48a.52.52,0,0,1,.37.15.58.58,0,0,1,.16.42Zm9.45-10a2.42,2.42,0,0,0-1-.57,4.69,4.69,0,0,0-2.36,0,2.4,2.4,0,0,0-1,.57,3.19,3.19,0,0,0-.68,1,2.94,2.94,0,0,0-.24,1.19v8a2.93,2.93,0,0,0,.24,1.2,3.24,3.24,0,0,0,.68,1,2.18,2.18,0,0,0,.64.44,3.06,3.06,0,0,0,.74.22,5.54,5.54,0,0,0,1.6,0,3.07,3.07,0,0,0,.74-.22,2.2,2.2,0,0,0,.64-.44,3.14,3.14,0,0,0,.7-1,2.85,2.85,0,0,0,.25-1.2v-8a2.86,2.86,0,0,0-.25-1.19,3.09,3.09,0,0,0-.7-1m-1.68,10.27a.38.38,0,0,1-.09.27.46.46,0,0,1-.21.12l-.19,0-.18,0a.48.48,0,0,1-.21-.12.4.4,0,0,1-.09-.27V136.4a.38.38,0,0,1,.09-.27.45.45,0,0,1,.21-.11l.18,0,.19,0a.44.44,0,0,1,.21.11.37.37,0,0,1,.09.27Zm8,2.48h2.71l-2.16-7,2-6.32h-2.73l-.57,3.83-.57-3.83h-2.73l2,6.32-2.23,7h2.72l.83-3.88Z" transform="translate(-46.52 -31.26)"/><path class="cls-9" d="M67.71,154.87a.17.17,0,0,1,0,.12.15.15,0,0,1-.08,0h-.15a.15.15,0,0,1-.08,0,.16.16,0,0,1,0-.12V151.5a.16.16,0,0,1,0-.12.13.13,0,0,1,.08,0h.15a.13.13,0,0,1,.08,0,.17.17,0,0,1,0,.12v1.16h1.07v-1.1a1.19,1.19,0,0,0-.1-.5,1.25,1.25,0,0,0-.29-.4.91.91,0,0,0-.4-.23,1.63,1.63,0,0,0-.48-.06,1.6,1.6,0,0,0-.48.06.92.92,0,0,0-.4.23,1.28,1.28,0,0,0-.29.4,1.17,1.17,0,0,0-.1.5v3.25a1.14,1.14,0,0,0,.1.49,1.35,1.35,0,0,0,.29.4.94.94,0,0,0,.4.23,1.75,1.75,0,0,0,.48.06,1.78,1.78,0,0,0,.48-.06.93.93,0,0,0,.4-.23,1.31,1.31,0,0,0,.29-.4,1.17,1.17,0,0,0,.1-.49v-1.07H67.71Zm2,1h1.12v-2.29h.39v2.29h1.11v-5.45H71.24v2.38h-.39v-2.38H69.73Zm5.75-5.23a1,1,0,0,0-.41-.23,1.69,1.69,0,0,0-.48-.06,1.66,1.66,0,0,0-.48.06,1,1,0,0,0-.41.23,1.33,1.33,0,0,0-.28.4,1.16,1.16,0,0,0-.1.49v3.26a1.15,1.15,0,0,0,.1.49,1.33,1.33,0,0,0,.28.4.88.88,0,0,0,.26.18,1.33,1.33,0,0,0,.3.09l.33,0,.33,0a1.34,1.34,0,0,0,.3-.09.85.85,0,0,0,.26-.18,1.27,1.27,0,0,0,.29-.4,1.16,1.16,0,0,0,.1-.49v-3.26a1.17,1.17,0,0,0-.1-.49,1.27,1.27,0,0,0-.29-.4m-.69,4.21a.16.16,0,0,1,0,.11.19.19,0,0,1-.08.05h-.16a.21.21,0,0,1-.08-.05.16.16,0,0,1,0-.11v-3.38a.16.16,0,0,1,0-.11l.08,0h.16l.08,0a.15.15,0,0,1,0,.11Zm3.44,0a.16.16,0,0,1,0,.12.16.16,0,0,1-.08,0H78l-.08,0a.17.17,0,0,1,0-.12V151.5a.17.17,0,0,1,0-.12.15.15,0,0,1,.08,0h.15a.14.14,0,0,1,.08,0,.16.16,0,0,1,0,.12v1.16H79.3v-1.1a1.19,1.19,0,0,0-.1-.5,1.26,1.26,0,0,0-.29-.4.92.92,0,0,0-.4-.23,1.65,1.65,0,0,0-.48-.06,1.62,1.62,0,0,0-.48.06.94.94,0,0,0-.4.23,1.28,1.28,0,0,0-.29.4,1.21,1.21,0,0,0-.1.5v3.25a1.18,1.18,0,0,0,.1.49,1.35,1.35,0,0,0,.29.4,1,1,0,0,0,.4.23A1.77,1.77,0,0,0,78,156a1.8,1.8,0,0,0,.48-.06.94.94,0,0,0,.4-.23,1.32,1.32,0,0,0,.29-.4,1.17,1.17,0,0,0,.1-.49v-1.07H78.22Zm4.12-4.2a1,1,0,0,0-.41-.23,1.9,1.9,0,0,0-1,0,1,1,0,0,0-.41.23,1.31,1.31,0,0,0-.28.4,1.2,1.2,0,0,0-.1.49v3.26a1.19,1.19,0,0,0,.1.49,1.31,1.31,0,0,0,.28.4.84.84,0,0,0,.26.18,1.32,1.32,0,0,0,.3.09l.33,0,.33,0a1.33,1.33,0,0,0,.3-.09.87.87,0,0,0,.26-.18,1.3,1.3,0,0,0,.29-.4,1.18,1.18,0,0,0,.1-.49v-3.26a1.18,1.18,0,0,0-.1-.49,1.3,1.3,0,0,0-.29-.4m-.69,4.21a.16.16,0,0,1,0,.11.2.2,0,0,1-.08.05h-.16l-.08-.05a.16.16,0,0,1,0-.11v-3.38a.15.15,0,0,1,0-.11l.08,0h.16l.08,0a.15.15,0,0,1,0,.11Zm2,1H85.8v-1h-1v-4.48H83.69Zm4.7,0h1.13l-.91-5.45H87.5l-.91,5.45h1.11l.08-.82h.53l.08.82Zm-.52-1.63.19-2.18.19,2.18Zm2.69,1.63h1.09v-4.54h.72v-.91H89.85v.91h.72Zm2.72,0H95.4v-.95h-1v-1.34h.74v-.79H94.4v-1.47h1v-.91H93.28Z" transform="translate(-46.52 -31.26)"/></svg>