<svg id="Layer_1" data-name="Layer 1" xmlns="http://www.w3.org/2000/svg" viewBox="0 0 331.15 602.11"><defs><style>.cls-1,.cls-9{fill:#424242;}.cls-1,.cls-10,.cls-11,.cls-12,.cls-2,.cls-3,.cls-5,.cls-7,.cls-8{fill-rule:evenodd;}.cls-2{fill:#f08d40;}.cls-3{fill:#f08d44;}.cls-4{fill:#ed532c;}.cls-5{fill:#efeded;}.cls-6{fill:#f3c62c;}.cls-7{fill:#c46d29;}.cls-8{fill:#fff0da;}.cls-10{fill:#de8746;}.cls-11{fill:#ec9351;}.cls-12{fill:#58595b;}</style></defs><title>LOGOSVG</title><polygon class="cls-1" points="123.67 416.63 136.88 416.63 136.88 364.52 163.06 364.52 163.06 416.63 176.27 416.63 206.25 416.63 206.25 439.5 93.68 439.5 93.68 416.63 123.67 416.63"/><path class="cls-2" d="M677.24,218.41c-43.16-1.82-97.49-29.78-80.19-33.17,7.85-1.53,18.3-5.89,23.88-12.83,9.8-12.21,31-12.67,56.31-12.69s46.51.48,56.31,12.69c5.56,6.94,16,11.3,23.87,12.83,17.29,3.39-37,31.35-80.19,33.17" transform="translate(-504.5 -58.01)"/><path class="cls-3" d="M550.11,207.31c0-5.74-3.29-10.39-7.35-10.39s-7.35,4.65-7.35,10.39,3.29,10.41,7.35,10.41,7.35-4.66,7.35-10.41" transform="translate(-504.5 -58.01)"/><path class="cls-3" d="M758.82,207.31c0-5.74,3.28-10.39,7.34-10.39s7.36,4.65,7.36,10.39-3.29,10.41-7.36,10.41-7.34-4.66-7.34-10.41" transform="translate(-504.5 -58.01)"/><rect class="cls-4" x="38.26" y="127.24" width="223.4" height="241.91"/><polygon class="cls-5" points="116.67 317.24 144.37 317.24 155.57 317.24 183.26 317.24 183.26 328.44 155.57 328.44 155.57 356.13 144.37 356.13 144.37 328.44 116.67 328.44 116.67 317.24"/><rect class="cls-6" x="63.87" y="155.82" width="172.19" height="9.35"/><rect class="cls-6" x="63.12" y="173.48" width="74.8" height="15.12"/><rect class="cls-6" x="162.01" y="173.48" width="74.8" height="15.12"/><path class="cls-7" d="M542.76,217.72V196.93h4.43a3.52,3.52,0,1,1,0,7,3.52,3.52,0,1,1,0,7h.17a3.36,3.36,0,0,1,0,6.72Z" transform="translate(-504.5 -58.01)"/><path class="cls-2" d="M766.16,314.21c0,2.57-8.92,3.3-15.89,8.75-9.36,7.34-17.46,20.5-17.46,32.27,0,26.41-26.94,45.14-49,53.14-7,2.53,6,7.44,16.83,10.27,9.36,2.45,17.16,2.19,26.74,1.4,51.86-4.23,75-35.36,77.19-63.82,2.12-27.13-18.85-51.26-38.42-52.11Z" transform="translate(-504.5 -58.01)"/><path class="cls-8" d="M728.47,373.14c-8.51,17-28,29.18-44.64,35.23-7,2.53,6,7.44,16.83,10.28,9.36,2.44,17.16,2.18,26.74,1.39,25.2-2.06,43.61-10.46,56.13-21.83-2.81-.53-7,.24-12.54-3.8-8.29-16.9-13.44-.43-26.26-15.47-2.69-4.59-9.48-2.2-16.25-5.81" transform="translate(-504.5 -58.01)"/><path class="cls-7" d="M766.16,217.72V196.93h-4.44a3.52,3.52,0,0,0,0,7,3.52,3.52,0,0,0,0,7h-.16a3.36,3.36,0,0,0,0,6.72Z" transform="translate(-504.5 -58.01)"/><rect class="cls-9" x="38.26" y="367.82" width="223.4" height="5.68"/><path class="cls-2" d="M678.94,190.63c-16.07-1.45-66.66-25-77.18-36.24-1.14-1.22,9.13-10.69,11.28-19.12a72.75,72.75,0,0,0,2.07-11.82A2.88,2.88,0,0,0,614,121c-13.72-7.2-31.21-35.43-21.3-62.92.28-.77,35.67,7.47,54.06,28.73,12.23-4,26.87-5.1,41.85-3.74s29.2,5.06,40.53,11.16C751,76.57,787.32,74.77,787.46,75.58c4.84,28.83-17.4,53.48-32.18,58.1a2.91,2.91,0,0,0-1.53,2.25,73,73,0,0,0-.07,12c.61,8.67,9,19.83,7.69,20.82C749,177.91,695,192.08,678.94,190.63" transform="translate(-504.5 -58.01)"/><path class="cls-10" d="M597.39,65.84c1.77-2.67,19,6,27.65,17.67.45.6-7.56,1-7.15,1.65,1.61,2.36,3.88,5.34,5.51,7.84,3.64,5.55-11-8.11-.72,10.66,1,1.77-4.75.69-5.77,2-.68.93,1.53,5.37.18,6.07-7.06,3.72-27.23-34.58-19.7-45.93" transform="translate(-504.5 -58.01)"/><path class="cls-11" d="M601.68,154.22c-.26-1.79,9.3-10.86,11.36-18.94a72.75,72.75,0,0,0,2.07-11.82,3.35,3.35,0,0,0-.25-1.39c1.72-2.37,3.62-5.14,5.65-8.06l0,0,0,0,0,0,0,0,.06-.07,0,0,0,0,0,0,0,0,0,0,0,0,0,0,0,0,0,0,0,0h0l0,0,0,0,0,0v0l0,0,0,0,0,0,0,0,0,0v0l0,0,0,0,0,0,0,0,0,0,0,0,0,0,.24-.36,0,0,0,0,0,0,0,0,0,0,0,0,0,0,0,0,0,0,0,0c1.08-1.56,2.19-3.15,3.33-4.73.11-.15.24-.31.34-.47,7.44-10.37,15.54-20.31,21.29-20.17,3.49.08,15,15.58,22.55,31.69,5.47,11.66,8.74,21.67,10.35,31.59h0c0,.28.1.54.14.83v0c0,.35.1.69.14,1h0c.06.35.1.7.15,1h0c0,.35.08.71.13,1.05v0h0l0,.27h0a114.55,114.55,0,0,1,.32,21.33l0,.21h0V176h0c0,.15,0,.31,0,.47h0c-.36,4.74-.93,9.71-1.69,15.06-16.92-3.07-61.53-24.34-79.86-34.31-.5-.27.49-1.48,2.68-3m78.43-1.2.13,1.05c0-.34-.08-.7-.13-1.05m-66.46-32.24a8.87,8.87,0,0,0-2.41-1.51,25.45,25.45,0,0,0,2.41,1.51" transform="translate(-504.5 -58.01)"/><path class="cls-11" d="M685.69,150l0,0Zm-1.7,5.16v0h0Zm14.56-29.8h0Zm62.93,43.25c.56-1.71-7.22-12.33-7.81-20.66a73.38,73.38,0,0,1,.08-12,3.15,3.15,0,0,1,.48-1.32c-1.26-2.64-2.65-5.7-4.11-8.93v0l0,0v0l0,0v0l0,0,0,0v-.08l0,0,0,0,0,0,0,0v0l0,0,0,0,0,0v-.08l0,0,0,0v-.07l0,0,0-.05,0,0v0l0,0,0,0v0l0,0v0l0,0,0,0,0,0v-.06l0-.05v-.12l0,0,0,0v0l0,0,0-.07,0,0v0l0,0,0,0v0l0,0,0,0v0l0,0,0,0h0v0l0,0v0l0,0,0,0,0,0,0,0c-.72-1.59-1.46-3.2-2.22-4.81h0v0h0l-.18-.35h0v0h0C741,106.32,734.83,95.08,729.15,94.2c-3.44-.53-17.55,12.66-27.85,27.16-1,1.34-1.88,2.68-2.75,4h0A112.69,112.69,0,0,0,685.69,150l0,0c-.07.18-.13.37-.2.56v0c-.1.26-.19.52-.28.78h0c-.11.34-.23.67-.35,1h0c-.25.77-.48,1.52-.71,2.29h0c-.05.16-.1.31-.14.46v0a114.34,114.34,0,0,0-4,20.45v.19h0v.09h0v0h0c0,.15,0,.29,0,.44h0c-.51,4.73-.83,9.73-1.05,15.12,17.21,0,64.88-13,84.7-19.5.53-.18-.21-1.54-2.08-3.42m-5.83-35a9.17,9.17,0,0,1,2.65-1.05c-.91.41-1.8.76-2.65,1.05" transform="translate(-504.5 -58.01)"/><path class="cls-8" d="M678.86,191.51c-16.92-3.07-61.53-24.34-79.86-34.31-2.45-1.33,31.33-25.65,66.3,3.73,2.13,1.8,14.47,13.92,14.86,16.08.77-2.06,15.07-11.77,17.5-13.17,39.66-22.67,68.55,7.29,65.9,8.16-19.81,6.53-67.5,19.5-84.71,19.5" transform="translate(-504.5 -58.01)"/><path class="cls-12" d="M680.3,175.67c3.2.15,6.3.52,5.81,1.46-.75,1.47-5.92,7.38-6.74,8.9-.54-1.65-4.58-8.39-5.06-10-.31-1,2.8-.82,6-.39" transform="translate(-504.5 -58.01)"/><path class="cls-10" d="M783.3,82.57C782,79.62,763.51,85.1,752.95,95c-.55.5,7.25,2.38,6.74,2.89-2,2-4.77,4.57-6.83,6.73-4.56,4.82,12.23-6-1.18,10.64-1.29,1.57,4.55,1.51,5.3,3,.5,1-2.45,5-1.27,5.94,6.29,4.93,33-29.16,27.59-41.67" transform="translate(-504.5 -58.01)"/><path class="cls-12" d="M718.83,155c-.73.48-2.11,2.18-1.91,2.19.82.07,4-.94,7.1-1.33a55.4,55.4,0,0,1,7.54-.08c1.48,0-4.91-3.4-6-3.42-3.56,0-5.31,1.7-6.71,2.63" transform="translate(-504.5 -58.01)"/><path class="cls-12" d="M647.22,148.67a7,7,0,0,1,1.45,2.51c-.82-.09-3.71-1.69-6.71-2.67a55.72,55.72,0,0,0-7.39-1.53c-1.44-.29,5.47-2.4,6.56-2.2,3.49.68,4.89,2.7,6.09,3.89" transform="translate(-504.5 -58.01)"/><path class="cls-9" d="M504.5,617.3h24.88V605.8H517.6v-52.7H504.5Zm32.7,0h24.88V606.15H550.31V590.37H559v-9.28h-8.73V563.8h11.76V553.09H537.2Zm40,0h12.84V563.8h8.47V553.09H568.74V563.8h8.47Zm36.09,0h12.83V563.8h8.48V553.09H604.83V563.8h8.47Zm29,0h24.89V606.15H655.45V590.37h8.74v-9.28h-8.74V563.8h11.78V553.09H642.34Zm63.29-.54a6.91,6.91,0,0,1-.37-1.14,5.5,5.5,0,0,1-.17-1.35V597.59a17.21,17.21,0,0,0-.42-3.88,12.52,12.52,0,0,0-1.43-3.57,10.56,10.56,0,0,0-2.61-3,20.34,20.34,0,0,0,2.23-3.05,17,17,0,0,0,1.61-3.54,13.07,13.07,0,0,0,.62-3.84v-8.21a16.08,16.08,0,0,0-1.16-6.14,14.64,14.64,0,0,0-3.29-5,14.32,14.32,0,0,0-4.79-3.18,14.62,14.62,0,0,0-5.65-1.11H675.31V617.3H688V592.06h2.23a2.07,2.07,0,0,1,1.73.67,3.16,3.16,0,0,1,.51,2v19.35a7.3,7.3,0,0,0,.29,2.27c.18.6.45.91.77.94h12a.55.55,0,0,0,.2-.15s.06-.11.06-.21a.17.17,0,0,0,0-.08l0-.1m-13.19-37.89a3.16,3.16,0,0,1-.48,2,2.06,2.06,0,0,1-1.75.67H688V563.62h2.23a2,2,0,0,1,1.75.71,3.38,3.38,0,0,1,.48,2Zm36.44-25.77V617.3h15a16.45,16.45,0,0,0,4-.49,16.74,16.74,0,0,0,3.81-1.43,14.21,14.21,0,0,0,3.2-2.28,14.54,14.54,0,0,0,3.29-5.05,16.26,16.26,0,0,0,1.16-6.18v-7a13.42,13.42,0,0,0-.61-3.91,17.88,17.88,0,0,0-1.66-3.59,19.92,19.92,0,0,0-2.36-3.12,17.57,17.57,0,0,0,2-2.89,16.77,16.77,0,0,0,1.44-3.24,12.73,12.73,0,0,0,.53-3.49v-6.07a16,16,0,0,0-1.17-6.11,14.94,14.94,0,0,0-3.29-5,13.17,13.17,0,0,0-3.2-2.33,16.68,16.68,0,0,0-7.78-2Zm14.26,10.62h0a2.73,2.73,0,0,1,2,.67,2.67,2.67,0,0,1,.73,2v11.07a2.87,2.87,0,0,1-.61,1.93,2.36,2.36,0,0,1-1.89.74h-1.7v-16.4Zm3.4,40.29a3.08,3.08,0,0,1-.56,2.08,2.67,2.67,0,0,1-2.11.69h-2.24V589.21h2.32a2.52,2.52,0,0,1,1.8.72,2.79,2.79,0,0,1,.78,2Zm45.63-48.24a11.67,11.67,0,0,0-4.82-2.75,22.6,22.6,0,0,0-11.39,0,11.59,11.59,0,0,0-4.83,2.75,15.37,15.37,0,0,0-3.29,4.69,14.13,14.13,0,0,0-1.16,5.74v38.43a14.11,14.11,0,0,0,1.16,5.78,15.57,15.57,0,0,0,3.29,4.65,10.57,10.57,0,0,0,3.09,2.13,14.86,14.86,0,0,0,3.57,1.07,26.78,26.78,0,0,0,7.72,0,14.84,14.84,0,0,0,3.59-1.07,10.69,10.69,0,0,0,3.07-2.13,15.12,15.12,0,0,0,3.37-4.65,13.76,13.76,0,0,0,1.19-5.78V566.2a13.78,13.78,0,0,0-1.19-5.74,14.92,14.92,0,0,0-3.37-4.69M784,605.35a1.84,1.84,0,0,1-.46,1.32,2.27,2.27,0,0,1-1,.6,4.29,4.29,0,0,1-.93.13,3.93,3.93,0,0,1-.87-.13,2.34,2.34,0,0,1-1-.6,1.92,1.92,0,0,1-.45-1.32V565.49a1.86,1.86,0,0,1,.45-1.31,2.19,2.19,0,0,1,1-.55,3.21,3.21,0,0,1,.87-.11,3.58,3.58,0,0,1,.93.11,2.14,2.14,0,0,1,1,.55,1.78,1.78,0,0,1,.46,1.31Zm38.5,12h13.1l-10.43-33.71,9.63-30.5h-13.2l-2.77,18.46-2.77-18.46H802.92l9.45,30.5L801.59,617.3H814.7l4-18.73Z" transform="translate(-504.5 -58.01)"/><path class="cls-9" d="M606.76,654.68a.84.84,0,0,1-.18.56.74.74,0,0,1-.37.22,1.37,1.37,0,0,1-.36,0,1.32,1.32,0,0,1-.36,0,.75.75,0,0,1-.37-.22.79.79,0,0,1-.19-.56V638.41a.77.77,0,0,1,.19-.56.65.65,0,0,1,.37-.24,1.43,1.43,0,0,1,.36-.05,1.48,1.48,0,0,1,.36.05.64.64,0,0,1,.37.24.82.82,0,0,1,.18.56V644h5.19V638.7a5.76,5.76,0,0,0-.47-2.4,6,6,0,0,0-1.39-1.92,4.38,4.38,0,0,0-1.92-1.12,7.85,7.85,0,0,0-2.31-.3,7.71,7.71,0,0,0-2.3.3,4.4,4.4,0,0,0-1.94,1.12,6.21,6.21,0,0,0-1.38,1.92,5.64,5.64,0,0,0-.49,2.4v15.68a5.52,5.52,0,0,0,.49,2.37,6.53,6.53,0,0,0,1.38,1.94,4.51,4.51,0,0,0,1.94,1.13,8.36,8.36,0,0,0,2.3.3,8.51,8.51,0,0,0,2.31-.3,4.48,4.48,0,0,0,1.92-1.13,6.34,6.34,0,0,0,1.39-1.94,5.64,5.64,0,0,0,.47-2.37v-5.15h-5.19Zm9.76,4.93h5.38v-11h1.9v11h5.36V633.29H623.8v11.47h-1.9V633.29h-5.38Zm27.74-25.22a4.69,4.69,0,0,0-2-1.12A8.12,8.12,0,0,0,640,633a8,8,0,0,0-2.33.3,4.74,4.74,0,0,0-2,1.12,6.4,6.4,0,0,0-1.34,1.92,5.6,5.6,0,0,0-.48,2.36v15.75a5.56,5.56,0,0,0,.48,2.37,6.45,6.45,0,0,0,1.34,1.91,4.22,4.22,0,0,0,1.28.87,6.27,6.27,0,0,0,1.45.44,11,11,0,0,0,3.18,0,6.31,6.31,0,0,0,1.46-.44,4.11,4.11,0,0,0,1.26-.87,6.22,6.22,0,0,0,1.38-1.91,5.66,5.66,0,0,0,.48-2.37V638.66a5.7,5.7,0,0,0-.48-2.36,6.18,6.18,0,0,0-1.38-1.92m-3.33,20.32a.77.77,0,0,1-.19.54.92.92,0,0,1-.4.24,2.2,2.2,0,0,1-.39.05,2,2,0,0,1-.37-.05,1,1,0,0,1-.4-.24.8.8,0,0,1-.18-.54V638.37a.75.75,0,0,1,.18-.53,1,1,0,0,1,.4-.23,2.09,2.09,0,0,1,.37,0,2.33,2.33,0,0,1,.39,0,1,1,0,0,1,.4.23.73.73,0,0,1,.19.53Zm16.58,0a.78.78,0,0,1-.18.56.75.75,0,0,1-.38.22,1.33,1.33,0,0,1-.36,0,1.31,1.31,0,0,1-.35,0,.75.75,0,0,1-.56-.78V638.41a.8.8,0,0,1,.19-.56.71.71,0,0,1,.37-.24,1.42,1.42,0,0,1,.35-.05,1.44,1.44,0,0,1,.36.05.65.65,0,0,1,.38.24.76.76,0,0,1,.18.56V644h5.19V638.7a5.76,5.76,0,0,0-.48-2.4,6.1,6.1,0,0,0-1.39-1.92,4.44,4.44,0,0,0-1.92-1.12,7.92,7.92,0,0,0-2.32-.3,7.81,7.81,0,0,0-2.3.3,4.55,4.55,0,0,0-1.94,1.12,6.2,6.2,0,0,0-1.38,1.92,5.83,5.83,0,0,0-.48,2.4v15.68a5.7,5.7,0,0,0,.48,2.37,6.52,6.52,0,0,0,1.38,1.94,4.66,4.66,0,0,0,1.94,1.13,8.48,8.48,0,0,0,2.3.3,8.6,8.6,0,0,0,2.32-.3,4.55,4.55,0,0,0,1.92-1.13,6.4,6.4,0,0,0,1.39-1.94,5.64,5.64,0,0,0,.48-2.37v-5.15h-5.19Zm19.88-20.29a4.56,4.56,0,0,0-2-1.12,9.17,9.17,0,0,0-4.67,0,4.55,4.55,0,0,0-2,1.12,6.3,6.3,0,0,0-1.35,1.92,5.76,5.76,0,0,0-.47,2.36v15.75a5.72,5.72,0,0,0,.47,2.37,6.35,6.35,0,0,0,1.35,1.91,4,4,0,0,0,1.27.87,6.23,6.23,0,0,0,1.45.44,10.95,10.95,0,0,0,3.17,0,6.26,6.26,0,0,0,1.46-.44,4.19,4.19,0,0,0,1.26-.87,6.4,6.4,0,0,0,1.4-1.91,5.72,5.72,0,0,0,.47-2.37V638.66a5.76,5.76,0,0,0-.47-2.36,6.35,6.35,0,0,0-1.4-1.92m-3.32,20.32a.78.78,0,0,1-.19.54,1,1,0,0,1-.41.24,2,2,0,0,1-.39.05,2,2,0,0,1-.37-.05,1,1,0,0,1-.4-.24.76.76,0,0,1-.18-.54V638.37a.72.72,0,0,1,.18-.53,1,1,0,0,1,.4-.23,2.11,2.11,0,0,1,.37,0,2.19,2.19,0,0,1,.39,0,1,1,0,0,1,.41.23.74.74,0,0,1,.19.53Zm9.82,4.9h10.19V654.9h-4.81V633.29H683.9Zm22.7,0h5.45l-4.41-26.32h-5.34l-4.38,26.32h5.37l.4-3.95h2.56l.4,3.95Zm-2.53-7.86.92-10.52.9,10.52Zm13,7.86h5.27V637.67h3.48v-4.38H713.62v4.38h3.46Zm13.11,0h10.2V655h-4.82v-6.47h3.57v-3.8h-3.57v-7.09h4.82v-4.38h-10.2Z" transform="translate(-504.5 -58.01)"/></svg>