<svg id="Layer_1" data-name="Layer 1" xmlns="http://www.w3.org/2000/svg" viewBox="0 0 517.15 329.58"><defs><style>.cls-1{fill:#e68439;}.cls-1,.cls-2,.cls-3,.cls-4,.cls-5,.cls-6,.cls-7{fill-rule:evenodd;}.cls-2{fill:#ffe6c7;}.cls-3{fill:#f08d42;}.cls-4{fill:#ec914e;}.cls-5{fill:#fff0da;}.cls-6{fill:#58595b;}.cls-7{fill:#de8746;}.cls-8{fill:#c06e29;}.cls-9{fill:#c6f4c9;stroke:#c6f4c9;stroke-miterlimit:10;stroke-width:2px;}.cls-10{fill:#fff;}</style></defs><title>pointerup2</title><path class="cls-1" d="M484.5,382.4l-11.28.56c-27.36,18-13.15,89.92,16.28,113.09l1.6,1.23V382.67Q487.92,382.45,484.5,382.4Z" transform="translate(-304.93 -180)"/><path class="cls-2" d="M462.78,389.12l-.22-7c.5,11,.13,27,1.88,42.35,1.49,13,4.51,25.47,10.9,34,3.93,5.23,8.91,10.35,15.76,12.14V397A118,118,0,0,0,462.78,389.12Z" transform="translate(-304.93 -180)"/><path class="cls-3" d="M472.89,412.73c4.48-1.54,10.89-5.12,18.21-9.92V260.28a84.92,84.92,0,0,0-10.18,15.29c-16.2-1.17-34.51,1.88-52.49,8.07s-34.28,15.06-46.33,26c-32.18-15-77.26-6.22-77.18-5.19,2.8,36.83,37.54,60.34,57.07,61.54a3.65,3.65,0,0,1,2.56,2.29,92.57,92.57,0,0,1,3.72,14.7c1.87,10.82-5.07,27.06-3.13,27.87C383.08,418.33,453.6,419.37,472.89,412.73Z" transform="translate(-304.93 -180)"/><path class="cls-4" d="M491.1,277.84c-4-2-7.52-3-10.18-2.26-4.24,1.15-13.68,23.66-18.08,45.71-3.18,16-4.16,29.23-3.14,41.89h0q0,.52.09,1v0q.06.66.13,1.32h0q.07.66.14,1.32h0q.08.67.16,1.33h0l0,.34h0a144.34,144.34,0,0,0,6.06,26.26h0l.08.25v0h0l0,.07v0h0l.18.56h0c1.87,5.71,4.07,11.64,6.61,18,4.64-2.08,10.83-5.84,17.85-10.6V277.84Zm-31,89.1.16,1.33Q460.15,367.6,460.07,366.94Z" transform="translate(-304.93 -180)"/><path class="cls-4" d="M452.31,364.9l0,.05,0-.05Zm3.65,5.81,0,0h0l0,0Zm-26.89-32.16h0ZM365,410.66c-1.21-1.92,5.11-17.3,3.32-27.7a92.61,92.61,0,0,0-3.72-14.7,4.08,4.08,0,0,0-1-1.48h0c.75-3.63,1.52-7.8,2.35-12.2v-.84h0V352.2l0-.11v-.54h0v-.37c.41-2.17.84-4.37,1.28-6.58h0l.1-.49h0v0h0c3.22-15.79,7.43-31.45,14.13-34.26,4.05-1.7,25.35,10.22,42.39,24.89q2.38,2,4.58,4.05h0a142.63,142.63,0,0,1,23.22,26.34l0,.05.41.62h0l.58.89h0l.72,1.13h0q.81,1.28,1.58,2.58h0l.3.51,0,0a145.18,145.18,0,0,1,11.07,23.87h0l.08.23v0h0l0,.1h0l.19.52h0c2,5.65,4,11.68,5.85,18.23-21.11,5.21-83.53,3.74-109.82,1.73-.71-.05-.19-2,1.54-4.84Zm-3.46-44.73a32.61,32.61,0,0,1-3.57-.49A11.43,11.43,0,0,1,361.5,365.93Z" transform="translate(-304.93 -180)"/><path class="cls-3" d="M473,413c4.46-1.54,10.83-5.09,18.1-9.84V260.89A84.73,84.73,0,0,0,481,276c-16.18-1.17-34.47,1.88-52.42,8.06s-34.24,15-46.27,25.93c-32.14-15-77.16-6.21-77.08-5.18,2.79,36.78,37.49,60.27,57,61.47a3.65,3.65,0,0,1,2.56,2.29,92.5,92.5,0,0,1,3.72,14.68c1.87,10.81-5.06,27-3.12,27.83C383.31,418.62,453.74,419.66,473,413Z" transform="translate(-304.93 -180)"/><path class="cls-4" d="M491.1,278.26c-4-2-7.44-2.93-10.07-2.21-4.24,1.15-13.66,23.63-18.05,45.65-3.18,15.94-4.16,29.19-3.14,41.84h0q0,.52.09,1v0q.06.66.13,1.32h0q.07.66.14,1.32h0q.08.66.16,1.33h0l0,.34h0a144.3,144.3,0,0,0,6.06,26.23h0l.08.25h0l0,.07h0l.18.56h0c1.86,5.7,4.07,11.62,6.6,17.94a128.84,128.84,0,0,0,17.74-10.53V278.26Zm-30.9,89,.16,1.33Q460.28,368,460.2,367.29Z" transform="translate(-304.93 -180)"/><path class="cls-4" d="M452.45,365.26l0,.05,0-.05Zm3.64,5.8,0,0h0l0,0Zm-26.85-32.12h0Zm-64,72c-1.21-1.92,5.11-17.28,3.31-27.66a92.54,92.54,0,0,0-3.72-14.68,4.06,4.06,0,0,0-1-1.47h0c.75-3.62,1.52-7.79,2.34-12.19v-.84h0v-1.54l0-.11v-.53h0v-.37c.41-2.17.84-4.37,1.28-6.57h0l.1-.49h0v0h0c3.22-15.77,7.42-31.41,14.11-34.22,4-1.7,25.31,10.21,42.34,24.86q2.37,2,4.58,4h0a142.48,142.48,0,0,1,23.19,26.3l0,.05.41.62h0l.58.89h0l.72,1.12h0q.81,1.28,1.58,2.58h0l.3.51,0,0A145,145,0,0,1,467.17,395h0l.08.23v0h0l0,.1h0l.19.52h0c2,5.64,4,11.67,5.84,18.2-21.08,5.2-83.42,3.73-109.68,1.72-.71-.06-.19-2,1.54-4.83Zm-3.46-44.68a32.56,32.56,0,0,1-3.57-.49A11.43,11.43,0,0,1,361.75,366.29Z" transform="translate(-304.93 -180)"/><path class="cls-5" d="M473.36,414.07a128.84,128.84,0,0,0,17.74-10.53v-42.9a86.89,86.89,0,0,0-10.36,11.87c-2.08,2.85-13.54,21.43-13.36,24.19-1.56-2.28-22-9.87-25.42-10.83-55.44-15.79-81.78,29.66-78.28,29.93C389.94,417.81,452.28,419.28,473.36,414.07Z" transform="translate(-304.93 -180)"/><path class="cls-3" d="M473,413c4.46-1.54,10.83-5.09,18.1-9.84V260.89A84.72,84.72,0,0,0,481,276.05c-16.18-1.17-34.47,1.88-52.42,8.06s-34.24,15-46.27,25.93c-32.14-15-77.16-6.21-77.08-5.18,2.79,36.78,37.49,60.27,57,61.47a3.65,3.65,0,0,1,2.56,2.29,92.54,92.54,0,0,1,3.72,14.68c1.87,10.81-5.06,27-3.12,27.84C383.31,418.63,453.74,419.66,473,413Z" transform="translate(-304.93 -180)"/><path class="cls-4" d="M491.1,278.26c-4-2-7.44-2.93-10.07-2.21-4.24,1.15-13.66,23.63-18.05,45.65-3.18,15.94-4.16,29.19-3.14,41.84h0c0,.35.06.7.09,1v0q.06.66.13,1.32h0q.07.66.14,1.32h0q.07.67.16,1.33h0l0,.34h0a144.16,144.16,0,0,0,6.05,26.23h0l.08.25h0v0l0,.07h0v0l.18.56h0c1.86,5.7,4.07,11.62,6.6,17.94a128.85,128.85,0,0,0,17.74-10.53V278.26Zm-30.9,89,.16,1.33Q460.28,368,460.2,367.29Z" transform="translate(-304.93 -180)"/><path class="cls-4" d="M452.45,365.26l0,.05,0-.05Zm3.64,5.8,0,0h0l0,0Zm-26.85-32.12h0Zm-64,72c-1.21-1.92,5.11-17.28,3.31-27.66a92.47,92.47,0,0,0-3.72-14.68,4.07,4.07,0,0,0-1-1.47h0c.75-3.62,1.52-7.79,2.34-12.19v-.84h0v-1.54l0-.11v-.54h0v-.37c.41-2.17.84-4.37,1.28-6.57h0l.1-.49h0v0h0c3.22-15.77,7.42-31.41,14.11-34.22,4-1.7,25.31,10.21,42.34,24.86q2.37,2,4.58,4h0a142.49,142.49,0,0,1,23.19,26.3l0,.05.41.62h0l.58.89h0l.72,1.12h0q.81,1.28,1.58,2.58h0l.3.51,0,0A145,145,0,0,1,467.17,395h0l.08.23h0l0,.1h0v0h0l.19.52h0c2,5.64,4,11.66,5.85,18.2-21.08,5.2-83.42,3.73-109.68,1.72-.71-.05-.19-2,1.54-4.83Zm-3.46-44.68a32.65,32.65,0,0,1-3.57-.49A11.43,11.43,0,0,1,361.75,366.29Z" transform="translate(-304.93 -180)"/><path class="cls-5" d="M473.43,414.27a128.81,128.81,0,0,0,17.67-10.47V360.64a87.72,87.72,0,0,0-10.24,11.77c-2.09,2.87-13.63,21.58-13.46,24.36-1.57-2.3-22.18-9.94-25.6-10.91C386,370,359.44,415.73,363,416,389.41,418,452.2,419.51,473.43,414.27Z" transform="translate(-304.93 -180)"/><path class="cls-6" d="M466.7,394.76c-3.89,1.16-7.58,2.55-6.7,3.56,1.37,1.58,9.5,7.26,11,8.88.17-2.19,3.08-11.67,3.19-13.76C474.24,392.11,470.48,393.28,466.7,394.76Z" transform="translate(-304.93 -180)"/><path class="cls-7" d="M312.15,311.73c.66-4,25-2.88,41,6.09.81.46-8.18,5.11-7.4,5.59,3.08,1.89,7.24,4.16,10.41,6.19,7.06,4.53-16.83-3.69,4.68,12.67,2,1.54-5.13,3.24-5.59,5.33-.31,1.41,4.52,5.4,3.35,6.9C352.4,362.46,309.34,328.72,312.15,311.73Z" transform="translate(-304.93 -180)"/><path class="cls-6" d="M413.17,381.05c1,.37,3.24,2,3,2.1-1,.35-5.16,0-9.12.52a70.61,70.61,0,0,0-9.27,2.19c-1.81.44,5-5.66,6.34-6C408.49,378.75,411.15,380.33,413.17,381.05Z" transform="translate(-304.93 -180)"/><path class="cls-6" d="M466.82,395.09c-3.89,1.16-7.57,2.55-6.69,3.56,1.37,1.57,9.49,7.25,11,8.87.17-2.19,3.07-11.66,3.18-13.74C474.35,392.44,470.6,393.61,466.82,395.09Z" transform="translate(-304.93 -180)"/><path class="cls-7" d="M312.46,312.16c.66-4,25-2.88,41,6.08.81.46-8.17,5.11-7.39,5.59,3.08,1.89,7.23,4.15,10.4,6.19,7.05,4.52-16.81-3.69,4.67,12.66,2,1.54-5.13,3.24-5.58,5.33-.31,1.41,4.52,5.39,3.34,6.89C352.66,362.82,309.66,329.12,312.46,312.16Z" transform="translate(-304.93 -180)"/><path class="cls-6" d="M413.36,381.39c1,.37,3.23,2,3,2.1-1,.34-5.15,0-9.11.52a70.56,70.56,0,0,0-9.26,2.18c-1.81.44,5-5.66,6.33-6C408.68,379.09,411.34,380.67,413.36,381.39Z" transform="translate(-304.93 -180)"/><path class="cls-6" d="M466.82,395.09c-3.89,1.16-7.57,2.55-6.69,3.55,1.37,1.57,9.49,7.25,11,8.87.17-2.19,3.07-11.66,3.18-13.74C474.35,392.44,470.6,393.61,466.82,395.09Z" transform="translate(-304.93 -180)"/><path class="cls-7" d="M312.47,312.16c.66-4,25-2.88,41,6.08.81.46-8.17,5.11-7.39,5.59,3.08,1.89,7.23,4.15,10.4,6.19,7.05,4.52-16.81-3.69,4.67,12.66,2,1.54-5.13,3.24-5.58,5.32-.31,1.41,4.52,5.39,3.34,6.89C352.66,362.82,309.66,329.13,312.47,312.16Z" transform="translate(-304.93 -180)"/><path class="cls-6" d="M413.36,381.39c1,.37,3.23,2,3,2.1-1,.34-5.15,0-9.11.52a70.66,70.66,0,0,0-9.26,2.18c-1.81.44,5-5.66,6.33-6C408.68,379.09,411.34,380.67,413.36,381.39Z" transform="translate(-304.93 -180)"/><path class="cls-1" d="M471.31,481.1c0-10.58,6.75-19.27,15.39-20.27v40.54C478.06,500.37,471.31,491.67,471.31,481.1Z" transform="translate(-304.93 -180)"/><rect class="cls-8" x="181.77" y="280.83" width="4.4" height="40.54"/><rect class="cls-9" x="186.07" y="1" width="330.08" height="327.58"/><rect class="cls-10" x="678.24" y="243.93" width="27" height="115.49" transform="translate(-315.64 397.49) rotate(-45)"/><rect class="cls-10" x="341.98" y="110.35" width="27" height="145.32"/><rect class="cls-10" x="615.24" y="244.26" width="27" height="115.49" transform="translate(554.84 780.15) rotate(-135)"/></svg>