<svg id="Layer_1" data-name="Layer 1" xmlns="http://www.w3.org/2000/svg" viewBox="0 0 323.42 452.61"><defs><style>.cls-1{fill:#f08d40;}.cls-1,.cls-14,.cls-15,.cls-16,.cls-17,.cls-19,.cls-2,.cls-20,.cls-22,.cls-23,.cls-26,.cls-27,.cls-28,.cls-3,.cls-30,.cls-31,.cls-32,.cls-33,.cls-34,.cls-35,.cls-4,.cls-5,.cls-8,.cls-9{fill-rule:evenodd;}.cls-2{fill:#ec9351;}.cls-3{fill:#fff0da;}.cls-4{fill:#58595b;}.cls-5{fill:#de8746;}.cls-6{fill:#f0eff6;}.cls-7{fill:#e6e2ea;}.cls-8{fill:#f08d44;}.cls-9{fill:#c46d29;}.cls-10{fill:#33b4af;}.cls-11,.cls-28{fill:#fff;}.cls-12{fill:#66cced;}.cls-13{fill:#f17069;}.cls-14{fill:#84aad9;}.cls-15,.cls-21{fill:#fff8ad;}.cls-16{fill:#f9a646;}.cls-17{fill:#fac3aa;}.cls-18{fill:#f8a770;}.cls-19{fill:#fcbb5b;}.cls-20{fill:#f37b20;}.cls-22{fill:#f8c113;}.cls-23{fill:#ca436a;}.cls-24{fill:#ffcc47;}.cls-25{fill:#97c03c;}.cls-26{fill:#a5cd39;}.cls-27{fill:none;stroke:#47a4ad;stroke-miterlimit:2.61;stroke-width:0.4px;}.cls-29{fill:#d13627;}.cls-30{fill:#ee4023;}.cls-31{fill:#f9a421;}.cls-32{fill:#77b3ab;}.cls-33{fill:#eacc55;}.cls-34{fill:#c5596a;}.cls-35{fill:#7b59a4;}.cls-36{opacity:0.6;}.cls-37{fill:#fdcd0d;}.cls-38{fill:#5d5d5d;}</style></defs><title>step2</title><path class="cls-1" d="M586.91,379.94c-53.38-2.25-129.55-29.09-108.15-33.27,9.7-1.9,31.59-15,38.49-23.62,12.12-15.1,38.34-15.67,69.66-15.7s57.53.6,69.66,15.7c6.88,8.58,27.61,21.72,37.33,23.62,21.38,4.19-53.63,31-107,33.27" transform="translate(-410.99 -181.53)"/><path class="cls-1" d="M589,345.57c-19.88-1.79-82.45-30.95-95.47-44.82-1.41-1.51,11.29-13.23,14-23.64a89.84,89.84,0,0,0,2.56-14.62,3.6,3.6,0,0,0-1.36-3.08c-17-8.89-38.6-43.81-26.34-77.82.35-1,44.12,9.25,66.86,35.53,15.12-4.92,33.24-6.31,51.77-4.63s36.13,6.26,50.13,13.8c27.07-21.8,71.95-24,72.13-23,6,35.66-21.53,66.15-39.81,71.87a3.58,3.58,0,0,0-1.9,2.79,90,90,0,0,0-.09,14.83c.76,10.73,11.16,24.53,9.51,25.76-15.29,11.32-82.06,28.85-102,27.06" transform="translate(-410.99 -181.53)"/><path class="cls-2" d="M493.46,300.53c-.32-2.21,11.49-13.42,14-23.42a89.84,89.84,0,0,0,2.56-14.62,4.15,4.15,0,0,0-.3-1.72c2.13-2.93,4.48-6.36,7-10l0,0,0,0,0,0,0,0,.06-.09,0,0,0,0,0,0,0,0,0,0,0,0,0,0,0,0,0,0,0,0h0l0,0,0,0,0,0,0,0,0,0,0,0,0-.05,0,0,0,0,0,0,0,0,0,0,0,0,0-.05,0,0,0,0,0,0,.3-.44,0,0,0,0,0,0,0-.05,0,0,0,0,0-.05,0,0,0,0,0,0c1.33-1.93,2.7-3.9,4.12-5.85.14-.19.29-.38.42-.59,9.21-12.82,19.22-25.12,26.33-24.95,4.32.1,18.55,19.28,27.9,39.2,6.77,14.42,10.82,26.8,12.81,39.08h0c.06.34.12.68.17,1v0c.06.42.12.86.18,1.28h0c.06.43.13.86.18,1.29h0c.06.44.1.87.15,1.3h0l0,.33h0a141.54,141.54,0,0,1,.39,26.38l0,.26h0v.09h0c0,.2,0,.39,0,.58h0c-.44,5.86-1.14,12-2.08,18.62-20.93-3.8-76.1-30.11-98.78-42.43-.62-.33.61-1.83,3.32-3.7m97-1.48.15,1.3c-.05-.43-.1-.86-.15-1.3m-82.2-39.87a10.83,10.83,0,0,0-3-1.87,31.58,31.58,0,0,0,3,1.87" transform="translate(-410.99 -181.53)"/><path class="cls-2" d="M597.37,295.3l0,.06Zm-2.1,6.38,0,0h0Zm18-36.86h0Zm77.84,53.49c.69-2.11-8.92-15.24-9.67-25.55a91.78,91.78,0,0,1,.1-14.83,3.91,3.91,0,0,1,.6-1.64c-1.56-3.27-3.28-7.05-5.09-11l0-.05,0,0,0,0,0,0,0-.05,0,0,0,0,0,0v0l0-.06,0,0,0,0,0-.05,0,0,0,0v0l0-.05v-.09l0,0,0,0v0l0,0,0-.05,0-.06,0,0,0,0,0,0,0-.05v0l0,0,0-.05,0,0,0,0,0,0,0,0v0l0-.07,0,0,0,0v-.05l0,0,0-.05v0l0-.05,0-.09,0,0,0,0,0-.05,0,0v0l0-.05,0-.05v0l0-.05,0,0h0v0l0-.05,0,0,0,0,0-.05,0,0,0,0c-.9-2-1.81-4-2.76-6h0v0h0l-.22-.44h0v0h0l0,0h0c-6.76-14.25-14.44-28.15-21.46-29.25-4.25-.66-21.7,15.66-34.45,33.6-1.18,1.67-2.33,3.31-3.39,4.93h0a139.25,139.25,0,0,0-15.9,30.47l0,.06c-.07.22-.15.45-.24.69h0c-.12.32-.23.64-.34,1h0c-.14.42-.28.83-.43,1.24h0c-.31.94-.6,1.88-.89,2.83h0c-.06.19-.11.38-.17.56l0,0A141.63,141.63,0,0,0,590.32,327l0,.24h0v0h0v.1h0v0h0c0,.18,0,.36-.06.55h0c-.63,5.85-1,12-1.29,18.69,21.28,0,80.25-16,104.77-24.11.66-.22-.26-1.91-2.58-4.24M683.91,275a11.37,11.37,0,0,1,3.28-1.31,34.82,34.82,0,0,1-3.28,1.31" transform="translate(-410.99 -181.53)"/><path class="cls-3" d="M588.92,346.66c-20.93-3.8-76.1-30.11-98.78-42.43-3-1.64,38.75-31.73,82,4.62,2.64,2.22,17.9,17.21,18.39,19.88,1-2.54,18.64-14.56,21.65-16.28,49-28,84.78,9,81.5,10.1-24.51,8.07-83.48,24.11-104.77,24.11" transform="translate(-410.99 -181.53)"/><path class="cls-4" d="M590.7,327.07c4,.19,7.8.64,7.18,1.8-.92,1.81-7.32,9.13-8.34,11-.66-2-5.66-10.36-6.26-12.33-.38-1.24,3.46-1,7.41-.48" transform="translate(-410.99 -181.53)"/><path class="cls-5" d="M718.09,211.91c-1.56-3.64-24.47,3.13-37.55,15.41-.67.62,9,2.94,8.35,3.57-2.49,2.52-5.9,5.65-8.45,8.33-5.64,6,15.13-7.46-1.46,13.15-1.58,1.95,5.63,1.88,6.56,3.75.62,1.27-3,6.19-1.57,7.34,7.77,6.1,40.79-36.06,34.12-51.55" transform="translate(-410.99 -181.53)"/><path class="cls-4" d="M638.35,301.47c-.91.59-2.61,2.68-2.36,2.7,1,.1,4.9-1.16,8.78-1.64a68.12,68.12,0,0,1,9.33-.1c1.83,0-6.07-4.21-7.44-4.22-4.4,0-6.57,2.1-8.3,3.26" transform="translate(-410.99 -181.53)"/><path class="cls-4" d="M549.78,293.68c.76.76,2,3.13,1.79,3.11-1-.1-4.59-2.09-8.3-3.31a67.65,67.65,0,0,0-9.13-1.9c-1.79-.36,6.76-3,8.11-2.71,4.32.83,6,3.33,7.53,4.81" transform="translate(-410.99 -181.53)"/><rect class="cls-6" x="10.02" y="162.15" width="292.37" height="290.46"/><rect class="cls-7" x="26.43" y="178.45" width="259.55" height="257.86"/><path class="cls-8" d="M701.42,374.52c0-8.75,5-15.85,11.19-15.85s11.21,7.1,11.21,15.85-5,15.85-11.21,15.85-11.19-7.1-11.19-15.85" transform="translate(-410.99 -181.53)"/><path class="cls-9" d="M712.61,390.37v-31.7h-6.77a5.36,5.36,0,0,0,0,10.73,5.37,5.37,0,0,0,0,10.74h-.23a5.12,5.12,0,1,0,0,10.24Z" transform="translate(-410.99 -181.53)"/><path class="cls-8" d="M436.36,365.46c0-9.92-5.68-18-12.69-18s-12.69,8-12.69,18,5.69,18,12.69,18,12.69-8,12.69-18" transform="translate(-410.99 -181.53)"/><path class="cls-9" d="M423.68,383.42V347.5h7.66a6.08,6.08,0,1,1,0,12.15,6.08,6.08,0,0,1,0,12.17h.29a5.8,5.8,0,0,1,0,11.6Z" transform="translate(-410.99 -181.53)"/><rect class="cls-10" x="34.05" y="183.93" width="79.31" height="79.33"/><path class="cls-11" d="M466.25,389.54v4h2.57v-4h2.05v10.39h-2.05v-4.62h-2.57v4.62H464.2V389.54Z" transform="translate(-410.99 -181.53)"/><path class="cls-11" d="M477.37,389.54l2.8,10.39h-2.05l-.64-2.57h-2.75l-.63,2.57h-2.05l2.8-10.39Zm-2.23,6.13h1.94l-1-4.25Z" transform="translate(-410.99 -181.53)"/><path class="cls-11" d="M484.34,389.56a4.9,4.9,0,0,1,3.09.77,3.75,3.75,0,0,1,0,5,4.92,4.92,0,0,1-3.09.77h-.77v3.89h-2V389.56Zm-.77,4.77h.84a2.24,2.24,0,0,0,1.42-.34,1.94,1.94,0,0,0,0-2.38,2.25,2.25,0,0,0-1.42-.34h-.84Z" transform="translate(-410.99 -181.53)"/><path class="cls-11" d="M492.92,389.56a4.91,4.91,0,0,1,3.09.77,3.75,3.75,0,0,1,0,5,4.93,4.93,0,0,1-3.09.77h-.77v3.89h-2V389.56Zm-.77,4.77H493a2.22,2.22,0,0,0,1.42-.34,1.94,1.94,0,0,0,0-2.38,2.23,2.23,0,0,0-1.42-.34h-.84Z" transform="translate(-410.99 -181.53)"/><path class="cls-11" d="M499.82,389.54l2,4.17,2-4.17h2.21l-3.21,6.29v4.09h-2.05v-4.09l-3.21-6.29Z" transform="translate(-410.99 -181.53)"/><path class="cls-11" d="M454.56,406.65a4.34,4.34,0,0,1,2.61.65,2.31,2.31,0,0,1,.87,2,2,2,0,0,1-2,2.22,2.67,2.67,0,0,1,1.79.79,2.77,2.77,0,0,1,.6,1.9,2.55,2.55,0,0,1-.9,2.18,5,5,0,0,1-2.94.67h-3.35v-10.4Zm-1.34,4h1.36a1.72,1.72,0,0,0,1.11-.28,1.12,1.12,0,0,0,.34-.92,1.16,1.16,0,0,0-.34-.93,1.64,1.64,0,0,0-1.1-.3h-1.36Zm0,4.7h1.36A2.17,2.17,0,0,0,456,415a1.45,1.45,0,0,0,.4-1.16,1.55,1.55,0,0,0-.41-1.21,2,2,0,0,0-1.35-.37h-1.36Z" transform="translate(-410.99 -181.53)"/><path class="cls-11" d="M460.16,406.63h6.18v1.81h-2.06v6.77h2.06V417h-6.18v-1.81h2.06v-6.77h-2.06Z" transform="translate(-410.99 -181.53)"/><path class="cls-11" d="M473.14,412.11a1,1,0,0,1,.53.29,3.59,3.59,0,0,1,.56.88l1.88,3.74h-2.25l-1.25-2.63-.15-.3q-.55-1.18-1.29-1.18h-.66V417h-2V406.63h3a4.6,4.6,0,0,1,2.88.71,2.8,2.8,0,0,1,.88,2.31,2.6,2.6,0,0,1-.52,1.71,2.23,2.23,0,0,1-1.5.76Zm-2.65-.92h1a1.79,1.79,0,0,0,1.21-.33,1.42,1.42,0,0,0,.37-1.09,1.4,1.4,0,0,0-.36-1.09,1.81,1.81,0,0,0-1.21-.32h-1Z" transform="translate(-410.99 -181.53)"/><path class="cls-11" d="M479.38,417v-8.59h-2.64v-1.8h7.32v1.8h-2.64V417Z" transform="translate(-410.99 -181.53)"/><path class="cls-11" d="M487.69,406.63v4h2.57v-4h2.05V417h-2.05V412.4h-2.57V417h-2.05V406.63Z" transform="translate(-410.99 -181.53)"/><path class="cls-11" d="M496.42,406.64a4.79,4.79,0,0,1,3.66,1.21,5.76,5.76,0,0,1,1.12,4,5.82,5.82,0,0,1-1.12,4,4.77,4.77,0,0,1-3.66,1.22h-2.2V406.63Zm-.15,8.53h.55a1.93,1.93,0,0,0,1.73-.77,6.72,6.72,0,0,0,0-5.16,1.93,1.93,0,0,0-1.73-.75h-.55Z" transform="translate(-410.99 -181.53)"/><path class="cls-11" d="M507.39,406.63,510.19,417h-2.05l-.64-2.57h-2.75l-.63,2.57h-2.05l2.8-10.39Zm-2.22,6.13h1.94l-1-4.25Z" transform="translate(-410.99 -181.53)"/><path class="cls-11" d="M512.69,406.63l2,4.18,2-4.18h2.21l-3.21,6.3V417h-2.05v-4.09l-3.21-6.3Z" transform="translate(-410.99 -181.53)"/><rect class="cls-12" x="198.54" y="183.93" width="81.56" height="79.33"/><path class="cls-11" d="M616.88,381l.76,7.62.93-4.93h1.75l1.07,4.93L622,381h1.86l-1.23,10.39h-2l-1.21-5.46-1.14,5.46h-2L615,381Z" transform="translate(-410.99 -181.53)"/><path class="cls-11" d="M625.08,381h6.36v1.81h-2.13v6.77h2.13v1.81h-6.36v-1.81h2.12V382.8h-2.12Z" transform="translate(-410.99 -181.53)"/><path class="cls-11" d="M636.29,386.82a5.43,5.43,0,0,1-2.17-1.24,2.55,2.55,0,0,1-.57-1.75,2.77,2.77,0,0,1,.93-2.21,3.79,3.79,0,0,1,2.56-.81,6.59,6.59,0,0,1,1.48.17,6.06,6.06,0,0,1,.74.21c.24.08.48.17.72.28v2a5.82,5.82,0,0,0-1.37-.71,4.34,4.34,0,0,0-1.39-.24,1.93,1.93,0,0,0-1.17.3,1,1,0,0,0-.41.85.93.93,0,0,0,.31.71,3.91,3.91,0,0,0,1.24.63l.91.33a4.08,4.08,0,0,1,1.89,1.22,3,3,0,0,1,.61,1.92,2.86,2.86,0,0,1-.95,2.35,4.55,4.55,0,0,1-2.88.77,6.88,6.88,0,0,1-1.59-.19c-.27-.07-.53-.14-.78-.23a8,8,0,0,1-.75-.32v-2.12a7.31,7.31,0,0,0,1.64.87,4.63,4.63,0,0,0,1.56.28,1.89,1.89,0,0,0,1.21-.35,1.15,1.15,0,0,0,.43-1,1.28,1.28,0,0,0-.29-.82,1.84,1.84,0,0,0-.84-.56l-1-.38Z" transform="translate(-410.99 -181.53)"/><path class="cls-11" d="M644.58,381v4h2.64v-4h2.11v10.39h-2.11v-4.62h-2.64v4.62h-2.11V381Z" transform="translate(-410.99 -181.53)"/><path class="cls-11" d="M661.46,381l2.08,4.17,2.08-4.17h2.28l-3.3,6.29v4.09h-2.11v-4.09l-3.3-6.29Z" transform="translate(-410.99 -181.53)"/><path class="cls-11" d="M668.6,386.2a7.09,7.09,0,0,1,.94-4,3.56,3.56,0,0,1,5.61,0,9,9,0,0,1,0,8.05,3.56,3.56,0,0,1-5.6,0,7.11,7.11,0,0,1-.94-4Zm3.75-3.55a1.24,1.24,0,0,0-1.18.84,10.07,10.07,0,0,0,0,5.41,1.26,1.26,0,0,0,2.37,0,9.9,9.9,0,0,0,0-5.41,1.24,1.24,0,0,0-1.19-.83Z" transform="translate(-410.99 -181.53)"/><path class="cls-11" d="M677.52,381h2.11v7.07a1.71,1.71,0,0,0,.41,1.22,1.68,1.68,0,0,0,2.26,0,1.73,1.73,0,0,0,.41-1.22V381h2.11v6.55a4.51,4.51,0,0,1-.86,3.07,3.6,3.6,0,0,1-2.79,1,3.56,3.56,0,0,1-2.78-1,4.5,4.5,0,0,1-.87-3.07Z" transform="translate(-410.99 -181.53)"/><path class="cls-11" d="M642.78,398.09l2.88,10.39h-2.11l-.66-2.57h-2.83l-.64,2.57h-2.11l2.88-10.39Zm-2.29,6.13h2l-1-4.25Z" transform="translate(-410.99 -181.53)"/><path class="cls-11" d="M647.51,398.09h2.11v8.58h4.51v1.81h-6.63Z" transform="translate(-410.99 -181.53)"/><path class="cls-11" d="M656.33,398.09h2.11v8.58h4.51v1.81h-6.62Z" transform="translate(-410.99 -181.53)"/><path class="cls-11" d="M618.38,425.57V417h-2.71v-1.79h7.53V417H620.5v8.59Z" transform="translate(-410.99 -181.53)"/><path class="cls-11" d="M626.93,415.19v4h2.64v-4h2.11v10.38h-2.11V421h-2.64v4.62h-2.11V415.19Z" transform="translate(-410.99 -181.53)"/><path class="cls-11" d="M633.87,425.57V415.19h6.65V417H636v2.24h4.11V421H636v2.72h4.54v1.81Z" transform="translate(-410.99 -181.53)"/><path class="cls-11" d="M654.6,415.2a4.55,4.55,0,0,1,2.68.65,2.28,2.28,0,0,1,.9,2,2.2,2.2,0,0,1-.53,1.56,2.32,2.32,0,0,1-1.54.65,2.75,2.75,0,0,1,1.84.79,2.67,2.67,0,0,1,.62,1.9,2.5,2.5,0,0,1-.93,2.18,5.22,5.22,0,0,1-3,.68h-3.44v-10.4Zm-1.38,4h1.4a1.8,1.8,0,0,0,1.14-.28,1.12,1.12,0,0,0,.35-.92,1.16,1.16,0,0,0-.35-.93,1.75,1.75,0,0,0-1.13-.29h-1.4Zm0,4.7h1.4a2.25,2.25,0,0,0,1.42-.33,1.43,1.43,0,0,0,.41-1.16,1.54,1.54,0,0,0-.42-1.21,2.12,2.12,0,0,0-1.4-.37h-1.4Z" transform="translate(-410.99 -181.53)"/><path class="cls-11" d="M660.33,425.57V415.19H667V417h-4.54v2.24h4.11V421h-4.11v2.72H667v1.81Z" transform="translate(-410.99 -181.53)"/><path class="cls-11" d="M671.57,421a5.36,5.36,0,0,1-2.17-1.25,2.53,2.53,0,0,1-.57-1.75,2.75,2.75,0,0,1,.93-2.21,3.76,3.76,0,0,1,2.55-.81,6.66,6.66,0,0,1,1.48.17,6.78,6.78,0,0,1,.73.21,7.72,7.72,0,0,1,.73.28v2a6.07,6.07,0,0,0-1.38-.71,4.25,4.25,0,0,0-1.39-.24,2,2,0,0,0-1.17.3,1,1,0,0,0-.41.86.94.94,0,0,0,.3.71,4.13,4.13,0,0,0,1.25.63l.91.33a4.1,4.1,0,0,1,1.89,1.22,3,3,0,0,1,.61,1.92,2.83,2.83,0,0,1-1,2.34,4.54,4.54,0,0,1-2.88.77,7.08,7.08,0,0,1-1.59-.19c-.26-.06-.53-.15-.78-.23a7.86,7.86,0,0,1-.76-.31v-2.12a7.07,7.07,0,0,0,1.64.87,4.54,4.54,0,0,0,1.57.29,1.88,1.88,0,0,0,1.21-.35,1.16,1.16,0,0,0,.43-1,1.24,1.24,0,0,0-.28-.82,1.82,1.82,0,0,0-.84-.56l-1-.38Z" transform="translate(-410.99 -181.53)"/><path class="cls-11" d="M680.12,425.57V417h-2.71v-1.79h7.53V417h-2.71v8.59Z" transform="translate(-410.99 -181.53)"/><rect class="cls-13" x="116.54" y="183.93" width="79.33" height="79.33"/><path class="cls-14" d="M552.5,406.3H582a4.27,4.27,0,0,1,4.25,4.25v13.19h-38V410.55A4.26,4.26,0,0,1,552.5,406.3Z" transform="translate(-410.99 -181.53)"/><path class="cls-15" d="M552.5,406.3H582a4.27,4.27,0,0,1,4.25,4.25v.51c-3.16-.17-7.14-.77-9.61,0-.66.2-.43,2.68-1.12,2.71-1,0,0-2.18-1.12-2.45-2.57-.63-6.1.42-9.38.16-1.36-.11-1.77.94-2.67,1a15.1,15.1,0,0,0-5.61-1.24c-.36,0-3.05.49-2.87,1.55.23,1.36,0,1.8-.43,1.8-1-.52,0-1.45-.38-2-.79-1-2.63-1.48-4.79-1.47v-.51A4.26,4.26,0,0,1,552.5,406.3Z" transform="translate(-410.99 -181.53)"/><path class="cls-16" d="M555.91,397.58h22.64a2.13,2.13,0,0,1,2.13,2.13v6.6h-26.9v-6.6A2.13,2.13,0,0,1,555.91,397.58Z" transform="translate(-410.99 -181.53)"/><path class="cls-15" d="M555.91,397.58h22.64a2.13,2.13,0,0,1,2.13,2.13v.19a29.72,29.72,0,0,0-6,0c-.52.1-.35,1.34-.88,1.35-.82,0,0-1.09-.89-1.22-2-.31-4.81.21-7.4.08-1.08-.05-1.4.47-2.11.48a17.51,17.51,0,0,0-4.42-.62c-.28,0-2.41.24-2.27.77.18.69,0,.91-.34.91-.78-.26,0-.73-.3-1a4.55,4.55,0,0,0-2.24-.67v-.32A2.13,2.13,0,0,1,555.91,397.58Z" transform="translate(-410.99 -181.53)"/><path class="cls-17" d="M561.13,390.91h12.22a1.63,1.63,0,0,1,1.62,1.62v5H559.5v-5A1.63,1.63,0,0,1,561.13,390.91Z" transform="translate(-410.99 -181.53)"/><path class="cls-15" d="M561.13,390.91h12.22a1.63,1.63,0,0,1,1.62,1.62v.17a13.76,13.76,0,0,0-3.69,0c-.28.08-.19,1-.47,1-.45,0,0-.83-.49-.94-1.11-.24-2.62.16-4,.06-.59,0-.77.36-1.16.36a7,7,0,0,0-2.41-.47c-.15,0-1.31.19-1.23.59s0,.69-.18.69c-.42-.2,0-.55-.17-.75a2.42,2.42,0,0,0-1.62-.55v-.21A1.63,1.63,0,0,1,561.13,390.91Z" transform="translate(-410.99 -181.53)"/><rect class="cls-18" x="155.79" y="203.81" width="1.01" height="5.57"/><path class="cls-19" d="M567.87,381a4.11,4.11,0,0,1,.84,1.45,1.39,1.39,0,0,1-1.32,1.79c-1.33,0-1.47-1.33-1.06-2.31s1.43-2.49,1.34-2.09A1.19,1.19,0,0,0,567.87,381Z" transform="translate(-410.99 -181.53)"/><path class="cls-20" d="M567.59,383.2a1.43,1.43,0,0,1,.27.48.45.45,0,0,1-.43.58c-.43,0-.48-.44-.35-.75s.47-.81.44-.68A.38.38,0,0,0,567.59,383.2Z" transform="translate(-410.99 -181.53)"/><circle class="cls-21" cx="145.7" cy="222.2" r="0.47"/><circle class="cls-21" cx="149.22" cy="220.78" r="0.47"/><path class="cls-15" d="M562.63,405.09a.47.47,0,1,0-.47-.47A.47.47,0,0,0,562.63,405.09Z" transform="translate(-410.99 -181.53)"/><circle class="cls-21" cx="154.98" cy="220.64" r="0.47"/><circle class="cls-21" cx="157.51" cy="222.79" r="0.47"/><circle class="cls-21" cx="160.7" cy="220.88" r="0.47"/><circle class="cls-21" cx="165.79" cy="220.61" r="0.47"/><circle class="cls-21" cx="166.05" cy="223.15" r="0.47"/><circle class="cls-21" cx="149.81" cy="213.79" r="0.28"/><path class="cls-15" d="M562.89,394.75a.28.28,0,1,0,0-.56.28.28,0,1,0,0,.56Z" transform="translate(-410.99 -181.53)"/><circle class="cls-21" cx="153.35" cy="214.32" r="0.28"/><circle class="cls-21" cx="155.34" cy="212.86" r="0.28"/><circle class="cls-21" cx="156.85" cy="214.14" r="0.28"/><path class="cls-15" d="M569.75,394.81a.28.28,0,0,0,.28-.28.28.28,0,0,0-.28-.29.29.29,0,0,0-.28.29A.28.28,0,0,0,569.75,394.81Z" transform="translate(-410.99 -181.53)"/><circle class="cls-21" cx="161.8" cy="212.83" r="0.28"/><circle class="cls-21" cx="161.95" cy="214.35" r="0.28"/><rect class="cls-21" x="136.92" y="238.5" width="38.31" height="0.94"/><rect class="cls-21" x="136.92" y="235.54" width="38.31" height="0.94"/><path class="cls-22" d="M552.63,409h0c-.19.08-.39.05-.44-.06l-.31-.68c-.05-.11.06-.28.25-.35s.39-.05.44.06l.31.68C552.93,408.73,552.82,408.89,552.63,409Z" transform="translate(-410.99 -181.53)"/><path class="cls-14" d="M555.63,410h0c-.26,0-.45-.21-.43-.37l.13-.94c0-.16.25-.25.51-.2s.45.21.42.37l-.13.94C556.11,409.92,555.88,410,555.63,410Z" transform="translate(-410.99 -181.53)"/><path class="cls-16" d="M557.57,407.68h0c.11-.23.33-.37.47-.3l.86.4c.15.07.16.31.05.54s-.33.37-.47.3l-.86-.4C557.47,408.16,557.45,407.92,557.57,407.68Z" transform="translate(-410.99 -181.53)"/><path class="cls-17" d="M560,410.11h0c-.17-.12-.26-.3-.19-.41l.41-.64c.07-.11.27-.1.44,0s.26.3.19.41l-.42.64C560.36,410.23,560.16,410.23,560,410.11Z" transform="translate(-410.99 -181.53)"/><path class="cls-23" d="M562.4,408.81h0c-.21,0-.39-.06-.42-.18l-.11-.75c0-.13.14-.25.35-.28s.4.06.41.19l.11.75C562.76,408.66,562.61,408.78,562.4,408.81Z" transform="translate(-410.99 -181.53)"/><path class="cls-22" d="M564.78,410.05h0c-.19.08-.39.05-.44-.06l-.31-.68c-.05-.11.06-.28.25-.35s.4-.05.44.06l.31.68C565.08,409.81,565,410,564.78,410.05Z" transform="translate(-410.99 -181.53)"/><path class="cls-14" d="M567.09,409h0c-.26,0-.45-.21-.43-.37l.13-.94c0-.16.26-.25.51-.21s.45.21.42.37l-.13.94C567.57,408.93,567.35,409,567.09,409Z" transform="translate(-410.99 -181.53)"/><path class="cls-16" d="M569.27,409.21h0c.12-.23.33-.37.48-.3l.86.4c.15.07.17.31.05.54s-.32.37-.47.3l-.86-.4C569.18,409.69,569.15,409.44,569.27,409.21Z" transform="translate(-410.99 -181.53)"/><path class="cls-17" d="M572.05,408.42h0c-.17-.12-.25-.3-.19-.41l.42-.64c.07-.11.26-.1.44,0s.26.31.19.41l-.42.64C572.43,408.55,572.23,408.53,572.05,408.42Z" transform="translate(-410.99 -181.53)"/><path class="cls-23" d="M574.63,410.18h0c-.2,0-.39-.05-.41-.18l-.12-.75c0-.13.14-.25.35-.28s.4.06.41.18l.11.76C575,410,574.84,410.16,574.63,410.18Z" transform="translate(-410.99 -181.53)"/><path class="cls-23" d="M577.79,408.81h0c-.21,0-.4-.06-.41-.18l-.12-.75c0-.13.14-.25.34-.28s.4.06.42.19l.11.75C578.15,408.66,578,408.78,577.79,408.81Z" transform="translate(-410.99 -181.53)"/><path class="cls-22" d="M580.15,410.05h0c-.19.08-.39.05-.43-.06l-.31-.68c0-.11.06-.28.25-.35s.39-.05.44.06l.31.68C580.46,409.81,580.35,410,580.15,410.05Z" transform="translate(-410.99 -181.53)"/><path class="cls-14" d="M582.47,409h0c-.25,0-.45-.21-.42-.37l.13-.94c0-.16.25-.25.51-.21s.45.21.42.37l-.13.94C583,408.93,582.73,409,582.47,409Z" transform="translate(-410.99 -181.53)"/><path class="cls-22" d="M556,398.86h0c-.11,0-.23,0-.26,0l-.19-.4c0-.07,0-.16.16-.21s.22,0,.26,0l.19.41C556.15,398.72,556.08,398.82,556,398.86Z" transform="translate(-410.99 -181.53)"/><path class="cls-14" d="M558,399.65h0c-.15,0-.26-.12-.26-.22l.08-.55c0-.1.15-.15.3-.13s.26.13.26.22l-.08.56C558.32,399.62,558.18,399.68,558,399.65Z" transform="translate(-410.99 -181.53)"/><path class="cls-16" d="M559.91,398.28h0c.06-.14.19-.22.28-.18l.51.24c.09,0,.1.19,0,.32s-.2.22-.28.18l-.51-.24C559.85,398.57,559.84,398.42,559.91,398.28Z" transform="translate(-410.99 -181.53)"/><path class="cls-17" d="M562.12,399.7h0c-.1-.07-.15-.18-.11-.25l.25-.38c0-.07.15-.06.26,0s.15.18.11.24l-.25.38C562.33,399.78,562.22,399.77,562.12,399.7Z" transform="translate(-410.99 -181.53)"/><path class="cls-23" d="M563.9,398.63h0c-.13,0-.23,0-.25-.11l-.06-.45c0-.08.08-.15.2-.17s.24,0,.25.11l.07.45C564.12,398.54,564,398.61,563.9,398.63Z" transform="translate(-410.99 -181.53)"/><path class="cls-22" d="M565.87,399.61h0c-.11,0-.22,0-.26,0l-.18-.4c0-.07,0-.16.15-.21s.23,0,.26,0l.18.41C566.06,399.46,566,399.56,565.87,399.61Z" transform="translate(-410.99 -181.53)"/><path class="cls-14" d="M567.39,398.78h0c-.15,0-.27-.12-.26-.22l.09-.56c0-.09.14-.15.3-.12s.26.12.25.22l-.08.56C567.69,398.75,567.55,398.81,567.39,398.78Z" transform="translate(-410.99 -181.53)"/><path class="cls-16" d="M568.77,399.15h0c.07-.14.19-.22.28-.18l.5.24c.09,0,.1.18,0,.33s-.2.22-.28.18l-.51-.24C568.7,399.44,568.69,399.29,568.77,399.15Z" transform="translate(-410.99 -181.53)"/><path class="cls-17" d="M570.39,398.76h0c-.1-.07-.15-.18-.11-.25l.25-.38c0-.07.16-.06.27,0s.15.18.1.25l-.24.38C570.62,398.84,570.49,398.83,570.39,398.76Z" transform="translate(-410.99 -181.53)"/><path class="cls-23" d="M572.34,399.52h0c-.13,0-.24,0-.25-.11L572,399c0-.07.08-.15.2-.16s.24,0,.24.11l.07.45C572.55,399.43,572.46,399.5,572.34,399.52Z" transform="translate(-410.99 -181.53)"/><path class="cls-23" d="M573.8,398.89h0c-.12,0-.23,0-.24-.11l-.07-.45c0-.08.08-.15.2-.16s.24,0,.25.11l.07.45C574,398.81,573.92,398.88,573.8,398.89Z" transform="translate(-410.99 -181.53)"/><path class="cls-22" d="M575.53,399.64h0c-.11,0-.23,0-.26,0l-.19-.41c0-.07,0-.16.15-.21s.23,0,.26,0l.18.41C575.7,399.49,575.64,399.59,575.53,399.64Z" transform="translate(-410.99 -181.53)"/><path class="cls-14" d="M577.55,399h0c-.16,0-.27-.13-.26-.22l.08-.56c0-.09.15-.15.3-.12s.26.12.26.22l-.08.56C577.83,399,577.69,399,577.55,399Z" transform="translate(-410.99 -181.53)"/><path class="cls-22" d="M560.75,391.83h0c-.07,0-.14,0-.16,0l-.12-.24s0-.1.09-.12.14,0,.15,0l.11.24S560.81,391.8,560.75,391.83Z" transform="translate(-410.99 -181.53)"/><path class="cls-14" d="M562,392.3h0c-.09,0-.15-.08-.14-.13l0-.33c0-.06.09-.09.18-.08s.16.08.15.13l0,.33C562.14,392.28,562.05,392.31,562,392.3Z" transform="translate(-410.99 -181.53)"/><path class="cls-16" d="M563.08,391.49h0c0-.08.12-.13.16-.11l.3.14c.06,0,.06.11,0,.19s-.11.13-.16.11l-.31-.14S563,391.57,563.08,391.49Z" transform="translate(-410.99 -181.53)"/><path class="cls-17" d="M564.39,392.33h0c-.06,0-.09-.11-.06-.14l.14-.23s.09,0,.16,0,.09.11.06.15l-.15.23S564.45,392.37,564.39,392.33Z" transform="translate(-410.99 -181.53)"/><path class="cls-23" d="M565.45,391.69h0c-.07,0-.14,0-.15-.07l0-.26s0-.09.12-.1.14,0,.15.06l0,.27S565.52,391.68,565.45,391.69Z" transform="translate(-410.99 -181.53)"/><path class="cls-22" d="M566.62,392.27h0c-.06,0-.14,0-.15,0l-.12-.24s0-.1.09-.13.14,0,.15,0l.11.24S566.69,392.24,566.62,392.27Z" transform="translate(-410.99 -181.53)"/><path class="cls-14" d="M567.52,391.78h0c-.09,0-.15-.07-.15-.13l0-.33c0-.05.09-.09.18-.07s.16.07.15.13l0,.33C567.69,391.77,567.61,391.8,567.52,391.78Z" transform="translate(-410.99 -181.53)"/><path class="cls-16" d="M568.33,392h0c0-.08.12-.13.16-.11l.3.14c.05,0,.06.11,0,.19s-.12.13-.16.11l-.3-.14C568.3,392.17,568.3,392.09,568.33,392Z" transform="translate(-410.99 -181.53)"/><path class="cls-17" d="M569.3,391.77h0c-.06,0-.09-.11-.07-.15l.15-.23s.09,0,.15,0,.09.11.06.15l-.14.22S569.36,391.81,569.3,391.77Z" transform="translate(-410.99 -181.53)"/><path class="cls-23" d="M570.45,392.22h0a.13.13,0,0,1-.15-.06l0-.27s0-.09.12-.1.14,0,.15.07l0,.27S570.53,392.21,570.45,392.22Z" transform="translate(-410.99 -181.53)"/><path class="cls-23" d="M571.32,391.85h0c-.07,0-.14,0-.14-.07l0-.27s0-.09.12-.1.14,0,.15.07l0,.27S571.4,391.84,571.32,391.85Z" transform="translate(-410.99 -181.53)"/><path class="cls-22" d="M572.35,392.29h0c-.06,0-.14,0-.16,0l-.1-.24s0-.09.09-.12.14,0,.15,0l.11.24S572.41,392.26,572.35,392.29Z" transform="translate(-410.99 -181.53)"/><path class="cls-14" d="M573.54,391.92h0c-.09,0-.15-.07-.15-.13l0-.33c0-.05.09-.09.18-.07s.15.07.15.13l0,.33C573.71,391.9,573.63,391.94,573.54,391.92Z" transform="translate(-410.99 -181.53)"/><rect class="cls-24" x="33.41" y="266.81" width="79.33" height="79.34"/><ellipse class="cls-25" cx="474.89" cy="476.43" rx="9.65" ry="11.64" transform="translate(-521.82 -35.92) rotate(-15.64)"/><path class="cls-26" d="M471.76,465.22a8.17,8.17,0,0,1,2.16-.3c4.51,1.23,7,5.33,7.69,9.35,1.1,6-3.12,12.54-8.44,12.82-3.54.18-6.76-5.13-7.58-8.06C463.86,472.84,466.63,466.66,471.76,465.22Z" transform="translate(-410.99 -181.53)"/><path class="cls-27" d="M481.83,482.68l-.12.73c-.7,4.26.19,7.14,1.38,11,2.26,7.38,1,4.45,1.4,11.72,0,.83.16,10.8.28,10.84" transform="translate(-410.99 -181.53)"/><path class="cls-28" d="M469,473.71c-1,0-3.29-4.31,1-4.69C472.31,468.81,470.72,473.75,469,473.71Z" transform="translate(-410.99 -181.53)"/><path class="cls-28" d="M468,476.77c-.44,0-1.39-1.82.4-2C469.45,474.7,468.78,476.79,468,476.77Z" transform="translate(-410.99 -181.53)"/><ellipse class="cls-29" cx="481.83" cy="482.68" rx="1.34" ry="1.36" transform="translate(-501.54 671.98) rotate(-77.99)"/><path class="cls-27" d="M489.75,486.78l.09.84c.27,2.78-1.14,5.35.49,9,.9,2,.82,6.77,1.25,9.77s1.13,3.55.95,7.42c0,.74.27.14.27.94" transform="translate(-410.99 -181.53)"/><path class="cls-27" d="M477.75,488.94c.14.06,1.87,9.43,2.27,10.87,1,3.57-.4,13.11,1.54,16.19.21.34.13.48.13.87" transform="translate(-410.99 -181.53)"/><ellipse class="cls-29" cx="482.15" cy="470.51" rx="10.1" ry="12.18" transform="translate(-424.65 -167.11) rotate(-1.69)"/><path class="cls-30" d="M481.8,458.34a8.52,8.52,0,0,1,2.27.24c4.28,2.39,5.72,7.16,5.45,11.44-.42,6.83-7.2,12.74-13,10.56a13.07,13.07,0,0,1-4.51-9.77C471.86,464.09,476.22,458.5,481.8,458.34Z" transform="translate(-410.99 -181.53)"/><path class="cls-31" d="M490,485.48a1.34,1.34,0,1,1-1.61,1A1.35,1.35,0,0,1,490,485.48Z" transform="translate(-410.99 -181.53)"/><path class="cls-31" d="M497.92,463.68c5.24,1.9,7.63,8.58,5.33,14.9s-8.41,9.9-13.65,8S482,478,484.26,471.67,492.67,461.77,497.92,463.68Z" transform="translate(-410.99 -181.53)"/><path class="cls-28" d="M476.84,466.27c-1.06-.29-2.25-5.21,2.15-4.52C481.46,462.13,478.58,466.74,476.84,466.27Z" transform="translate(-410.99 -181.53)"/><path class="cls-28" d="M475.11,469.14c-.44-.12-1-2.2.91-1.91C477.06,467.39,475.85,469.34,475.11,469.14Z" transform="translate(-410.99 -181.53)"/><path class="cls-22" d="M497.92,463.68a8.59,8.59,0,0,1,2,1.07c3.09,3.8,2.67,8.76.84,12.65-2.72,5.78-10.3,8.77-15,5.76-3.12-2-2.63-8.49-1.54-11.48C486.55,465.35,492.67,461.77,497.92,463.68Z" transform="translate(-410.99 -181.53)"/><path class="cls-28" d="M490.39,469.22c-.87-.66-.18-5.67,3.66-3.41C496.2,467.08,491.82,470.31,490.39,469.22Z" transform="translate(-410.99 -181.53)"/><path class="cls-28" d="M487.71,471.25c-.37-.28-.07-2.4,1.55-1.44C490.17,470.34,488.33,471.71,487.71,471.25Z" transform="translate(-410.99 -181.53)"/><ellipse class="cls-25" cx="478.03" cy="487.63" rx="1.34" ry="1.36" transform="translate(-510.24 670.85) rotate(-77.86)"/><path class="cls-32" d="M505.47,459.74l-.2.23s-.71-.13-.58-1.37a1.7,1.7,0,0,1,1.17-.31s.87.27.16-1.64l.53-.21s.46,1.66-.33,2.08c0,0-1.06.08-1,.24C505.23,458.77,504.83,459.23,505.47,459.74Z" transform="translate(-410.99 -181.53)"/><polygon class="cls-33" points="92.26 277.58 91.54 277.16 91.97 276.84 92.26 277.58"/><path class="cls-34" d="M502,459.45a1.62,1.62,0,0,1-.15-1.18s.13-.25-.62-.31c0,0-.8,0-.86-.56,0,0-1,.76.84,1.14C501.17,458.56,501.69,459.52,502,459.45Z" transform="translate(-410.99 -181.53)"/><path class="cls-35" d="M510.78,469l-.14-.27s.35-.61,1.47,0A1.74,1.74,0,0,1,512,470s-.56.72,1.47.74v.57s-1.72-.17-1.83-1.06c0,0,.32-1,.14-1C511.75,469.18,511.48,468.64,510.78,469Z" transform="translate(-410.99 -181.53)"/><polygon class="cls-33" points="101.13 285.69 101.78 285.17 101.93 285.68 101.13 285.69"/><path class="cls-34" d="M512.26,465.89a1.61,1.61,0,0,1,1.15.29s.19.21.51-.46c0,0,.3-.75.83-.61,0,0-.36-1.17-1.37.37C513.38,465.48,512.29,465.62,512.26,465.89Z" transform="translate(-410.99 -181.53)"/><path class="cls-32" d="M461.38,459.74l.2.23s.71-.13.58-1.37a1.71,1.71,0,0,0-1.18-.31s-.87.27-.16-1.64l-.53-.21s-.45,1.66.34,2.08c0,0,1.05.08,1,.24C461.62,458.77,462,459.23,461.38,459.74Z" transform="translate(-410.99 -181.53)"/><polygon class="cls-33" points="52.61 277.58 53.33 277.16 52.9 276.84 52.61 277.58"/><path class="cls-34" d="M464.89,459.45a1.59,1.59,0,0,0,.15-1.18s-.13-.25.62-.31c0,0,.81,0,.86-.56,0,0,1,.76-.84,1.14C465.68,458.56,465.16,459.52,464.89,459.45Z" transform="translate(-410.99 -181.53)"/><path class="cls-35" d="M456.08,469l.14-.27s-.35-.61-1.47,0a1.77,1.77,0,0,0,.14,1.21s.57.72-1.46.74v.57s1.71-.17,1.83-1.06c0,0-.32-1-.14-1C455.1,469.18,455.38,468.64,456.08,469Z" transform="translate(-410.99 -181.53)"/><polygon class="cls-33" points="43.74 285.69 43.1 285.17 42.94 285.68 43.74 285.69"/><path class="cls-34" d="M454.59,465.89a1.62,1.62,0,0,0-1.15.29s-.18.21-.5-.46c0,0-.3-.75-.83-.61,0,0,.36-1.17,1.37.37C453.47,465.48,454.56,465.62,454.59,465.89Z" transform="translate(-410.99 -181.53)"/><path class="cls-35" d="M505.09,493.07l0-.54s.68-.6,1.41,1.31a3.51,3.51,0,0,1-.83,1.72s-.94.57,1,2.48l-.32.87s-1.51-1.86-1.11-3.31c0,0,.88-1.26.71-1.42C505.93,494.18,506,493.09,505.09,493.07Z" transform="translate(-410.99 -181.53)"/><path class="cls-34" d="M508.16,489.54a1.61,1.61,0,0,1-.14,1.18s-.18.21.52.44c0,0,.79.2.71.74,0,0,1.12-.51-.54-1.31C508.72,490.59,508.44,489.53,508.16,489.54Z" transform="translate(-410.99 -181.53)"/><path class="cls-35" d="M465.24,495.36l0-.54s-.68-.6-1.41,1.31a3.5,3.5,0,0,0,.83,1.72s.94.57-1,2.48l.33.87s1.5-1.86,1.1-3.32c0,0-.89-1.26-.71-1.42C464.39,496.47,464.34,495.38,465.24,495.36Z" transform="translate(-410.99 -181.53)"/><path class="cls-34" d="M462.17,491.82a1.58,1.58,0,0,0,.13,1.18s.19.21-.52.44c0,0-.79.21-.72.74,0,0-1.11-.51.55-1.31C461.61,492.88,461.89,491.82,462.17,491.82Z" transform="translate(-410.99 -181.53)"/><g class="cls-36"><rect class="cls-37" x="252.34" y="286.34" width="70.23" height="70.23"/><path class="cls-11" d="M702.71,485.43l9.53,35.31h-7L703.09,512h-9.33l-2.13,8.73h-7l9.53-35.31Zm-7.57,20.84h6.61l-3.31-14.45Z" transform="translate(-410.99 -181.53)"/></g><polygon class="cls-38" points="323.42 354.36 306.67 343.3 307.53 363.36 313.61 357.27 318.82 366.47 320.17 365.71 314.94 356.48 323.42 354.36"/></svg>