<svg id="Layer_1" data-name="Layer 1" xmlns="http://www.w3.org/2000/svg" viewBox="0 0 356.63 225.07"><defs><style>.cls-1{fill:none;stroke:#c7b299;stroke-miterlimit:10;stroke-width:0.5px;}.cls-2{fill:#f18e40;}.cls-2,.cls-3,.cls-4,.cls-5,.cls-6,.cls-7,.cls-8{fill-rule:evenodd;}.cls-3{fill:#f18e44;}.cls-4{fill:#c46d29;}.cls-5{fill:#fff0da;}.cls-6{fill:#df8946;}.cls-7{fill:#ed9451;}.cls-8{fill:#58595b;}.cls-9{font-size:18px;fill:#c7b299;font-family:Comfortaa-Light, Comfortaa;letter-spacing:0.03em;}.cls-10{letter-spacing:0.03em;}.cls-11{letter-spacing:0.04em;}</style></defs><title>ButtonFox1svg</title><rect class="cls-1" x="0.25" y="93.9" width="340" height="92.67"/><path class="cls-2" d="M348.58,181.67c-26.79-1.13-60.52-18.49-49.77-20.59,4.87-1,11.36-3.66,14.82-8,6.08-7.58,19.24-7.87,35-7.88s28.87.3,35,7.88c3.45,4.31,9.94,7,14.82,8,10.73,2.1-23,19.46-49.78,20.59" transform="translate(-71.08 -82.1)"/><path class="cls-3" d="M269.66,174.78c0-3.56-2-6.45-4.56-6.45s-4.56,2.89-4.56,6.45,2,6.45,4.56,6.45,4.56-2.89,4.56-6.45" transform="translate(-71.08 -82.1)"/><path class="cls-3" d="M399.22,174.78c0-3.56,2-6.45,4.56-6.45s4.57,2.89,4.57,6.45-2,6.45-4.57,6.45-4.56-2.89-4.56-6.45" transform="translate(-71.08 -82.1)"/><path class="cls-4" d="M265.11,181.24V168.33h2.75a2.18,2.18,0,1,1,0,4.37,2.19,2.19,0,0,1,0,4.37H268a2.08,2.08,0,0,1,0,4.17Z" transform="translate(-71.08 -82.1)"/><path class="cls-2" d="M403.78,241.13c0,1.6-5.54,2-9.86,5.43-5.81,4.56-10.84,12.73-10.84,20,0,16.39-16.72,28-30.41,33-4.35,1.58,3.7,4.62,10.44,6.38,5.81,1.52,10.65,1.36,16.6.87,32.19-2.63,46.53-21.95,47.92-39.61,1.32-16.84-11.7-31.82-23.85-32.34Z" transform="translate(-71.08 -82.1)"/><path class="cls-5" d="M380.38,277.71c-5.28,10.55-17.36,18.12-27.71,21.87-4.35,1.58,3.7,4.62,10.44,6.38,5.81,1.52,10.65,1.35,16.6.86,15.65-1.28,27.07-6.5,34.85-13.55-1.75-.33-4.37.15-7.79-2.36-5.15-10.49-8.34-.27-16.3-9.6-1.67-2.85-5.89-1.37-10.09-3.61" transform="translate(-71.08 -82.1)"/><path class="cls-4" d="M403.78,181.24V168.33H401a2.18,2.18,0,0,0,0,4.37,2.19,2.19,0,0,0,0,4.37h-.09a2.08,2.08,0,1,0,0,4.17Z" transform="translate(-71.08 -82.1)"/><path class="cls-2" d="M349.64,164.43c-10-.9-41.38-15.53-47.91-22.49-.71-.76,5.67-6.64,7-11.86a45,45,0,0,0,1.29-7.34,1.8,1.8,0,0,0-.68-1.54c-8.52-4.46-19.37-22-13.22-39.05.17-.48,22.14,4.64,33.56,17.83,7.59-2.47,16.68-3.17,26-2.33s18.13,3.14,25.16,6.92C394.39,93.62,416.91,92.51,417,93c3,17.9-10.8,33.2-20,36.07a1.8,1.8,0,0,0-.95,1.4,45,45,0,0,0,0,7.45c.38,5.39,5.6,12.31,4.77,12.93-7.67,5.68-41.18,14.48-51.16,13.58" transform="translate(-71.08 -82.1)"/><path class="cls-6" d="M299,87c1.1-1.65,11.81,3.74,17.16,11,.28.37-4.69.65-4.44,1,1,1.47,2.41,3.32,3.42,4.87,2.25,3.44-6.8-5-.45,6.62.6,1.1-2.95.43-3.58,1.27-.42.57.95,3.33.11,3.76C306.86,117.79,294.34,94,299,87" transform="translate(-71.08 -82.1)"/><path class="cls-7" d="M301.68,141.82c-.16-1.11,5.77-6.73,7-11.75a45,45,0,0,0,1.29-7.34,2.07,2.07,0,0,0-.15-.86c1.07-1.47,2.25-3.19,3.5-5v0l0,0v0l0,0v0l0,0v0l0,0v0l0,0v0l0,0,0,0h0v0l0,0,0,0v0l0,0v0l0,0v0l0,0v0l0,0v0l0,0v0l0,0,0,0,.15-.22v0l0,0v0l0,0v0l0,0v0l0,0,0,0,0,0c.67-1,1.36-2,2.06-2.94.07-.09.14-.19.21-.29,4.62-6.43,9.65-12.6,13.22-12.52,2.17,0,9.31,9.67,14,19.67a73.09,73.09,0,0,1,6.43,19.61h0c0,.17.06.34.09.51h0c0,.21.06.43.09.65h0c0,.22.06.43.09.65h0c0,.22.05.44.08.65h0l0,.17h0a71.07,71.07,0,0,1,.2,13.24v.13h0v0h0c0,.1,0,.19,0,.29h0c-.22,2.94-.58,6-1,9.35-10.51-1.91-38.19-15.11-49.57-21.29-.31-.17.31-.92,1.66-1.86m48.68-.74.08.65c0-.22,0-.43-.08-.65m-41.25-20a5.46,5.46,0,0,0-1.5-.94,16,16,0,0,0,1.5.94" transform="translate(-71.08 -82.1)"/><path class="cls-7" d="M353.83,139.2v0Zm-1.06,3.2v0h0Zm9-18.5h0Zm39.07,26.84c.35-1.06-4.48-7.65-4.85-12.82a45.86,45.86,0,0,1,0-7.45,2,2,0,0,1,.3-.82c-.78-1.64-1.65-3.54-2.55-5.54V124l0,0v-.24l0,0v-.36l0,0v-.12h0l0,0v-.07l0,0V123l0,0v-.12l0,0v-.12l0,0h0v-.17c-.45-1-.91-2-1.38-3h0l-.11-.22h0c-3.39-7.15-7.25-14.13-10.77-14.68-2.13-.33-10.89,7.86-17.29,16.86-.59.84-1.17,1.66-1.71,2.47h0a69.86,69.86,0,0,0-8,15.29v0c0,.11-.08.23-.12.35h0l-.17.49h0q-.1.31-.22.62h0c-.16.47-.3.94-.45,1.42h0c0,.09-.06.19-.08.28v0a71.13,71.13,0,0,0-2.47,12.69v.12h0v.05h0c0,.09,0,.18,0,.28h0c-.32,2.94-.52,6-.65,9.38,10.68,0,40.27-8,52.58-12.1.33-.11-.13-1-1.29-2.13M397.26,129a5.71,5.71,0,0,1,1.64-.65,17.6,17.6,0,0,1-1.64.65" transform="translate(-71.08 -82.1)"/><path class="cls-5" d="M349.59,165c-10.51-1.91-38.19-15.11-49.57-21.29-1.52-.83,19.45-15.93,41.15,2.32,1.33,1.12,9,8.64,9.23,10,.48-1.27,9.35-7.31,10.86-8.17,24.61-14.07,42.55,4.53,40.9,5.07-12.3,4.05-41.9,12.1-52.58,12.1" transform="translate(-71.08 -82.1)"/><path class="cls-8" d="M350.48,155.14c2,.09,3.91.32,3.61.9-.46.91-3.67,4.58-4.19,5.52-.33-1-2.84-5.2-3.14-6.19-.19-.62,1.74-.51,3.72-.24" transform="translate(-71.08 -82.1)"/><path class="cls-6" d="M414.41,97.35c-.79-1.83-12.28,1.57-18.84,7.73-.33.31,4.5,1.47,4.19,1.79-1.25,1.26-3,2.83-4.24,4.18-2.83,3,7.59-3.74-.73,6.6-.79,1,2.82.94,3.29,1.88.31.64-1.52,3.11-.79,3.68,3.9,3.06,20.47-18.1,17.12-25.87" transform="translate(-71.08 -82.1)"/><path class="cls-8" d="M374.39,142.29c-.45.3-1.31,1.35-1.19,1.36.51,0,2.46-.59,4.4-.82a34.3,34.3,0,0,1,4.68,0c.92,0-3-2.11-3.73-2.12a6.45,6.45,0,0,0-4.17,1.64" transform="translate(-71.08 -82.1)"/><path class="cls-8" d="M329.94,138.38a4.3,4.3,0,0,1,.9,1.56c-.51-.05-2.31-1-4.17-1.66a33.78,33.78,0,0,0-4.58-1c-.9-.18,3.39-1.49,4.07-1.36a6.49,6.49,0,0,1,3.78,2.41" transform="translate(-71.08 -82.1)"/><text class="cls-9" transform="translate(88.01 143.96)">MORE PRODUC<tspan class="cls-10" x="150.06" y="0">T</tspan><tspan class="cls-11" x="162.21" y="0">S</tspan></text></svg>