<svg id="Layer_1" data-name="Layer 1" xmlns="http://www.w3.org/2000/svg" viewBox="0 0 378.32 314.82"><defs><style>.cls-1{fill:#e6e2ea;}.cls-2{fill:#f0eff6;}.cls-3,.cls-5{opacity:0.3;}.cls-4,.cls-5{fill:#5b5b5b;}.cls-6{fill:#5d5d5d;}.cls-7{fill:#f08d40;}.cls-10,.cls-11,.cls-12,.cls-13,.cls-14,.cls-15,.cls-16,.cls-7,.cls-8,.cls-9{fill-rule:evenodd;}.cls-8{fill:#c2783d;}.cls-9{fill:#ec8e49;}.cls-10{fill:#e68b47;}.cls-11{fill:#fff0da;}.cls-12{fill:#ffe6c7;}.cls-13{fill:#ec9351;}.cls-14{fill:#fbe1bf;}.cls-15{fill:#58595b;}.cls-16{fill:#de8746;}</style></defs><title>step1</title><rect class="cls-1" x="13.64" y="16.95" width="339" height="243.76"/><rect class="cls-2" x="30.46" y="34.2" width="305.36" height="209.27"/><g class="cls-3"><polygon class="cls-4" points="340.65 248.78 83.72 277.84 52 29.07 308.94 0 340.65 248.78"/></g><polygon class="cls-1" points="344.45 245.31 87.52 274.38 56.66 32.35 313.6 3.29 344.45 245.31"/><polygon class="cls-2" points="324.09 230.25 103.52 255.2 77.03 47.42 297.6 22.47 324.09 230.25"/><polygon class="cls-5" points="366.1 228.28 196.42 219.5 206.14 53.03 375.82 61.82 366.1 228.28"/><polygon class="cls-1" points="368.98 224.64 199.31 215.85 208.64 56.02 378.32 64.81 368.98 224.64"/><polygon class="cls-2" points="357.64 212.71 211.97 205.16 219.99 67.95 365.65 75.5 357.64 212.71"/><polygon class="cls-6" points="228.03 172.3 223.57 134.92 194.03 160.24 211.07 161.68 203.66 180.22 206.54 181.25 213.97 162.64 228.03 172.3"/><path class="cls-7" d="M572.34,467.59c.06,4.73.31,11.11-.33,16.72a36.51,36.51,0,0,1-2.16,8.25c-2.32,5.82-5.21,10.62,1.29,14.13,5.54,3,14.69-12.21,16.53-14.79a91.83,91.83,0,0,1,11.51-13.31l.08-.07a29.06,29.06,0,0,1-2.79-1.11l-5.73-2.68-4.52-1.87,2.76.19a25,25,0,0,1-13.35-5.26c-.19-.07-.46-.12-.67-.18-.74,0-1.48,0-2.22-.07Z" transform="translate(-465.02 -206.34)"/><path class="cls-8" d="M571.87,485.35a38.5,38.5,0,0,1-2,7.2c-2.32,5.82-5.21,10.62,1.29,14.13a3.3,3.3,0,0,0,.92.32c2.4-.1,5.14-2,7.65-4.42a91.52,91.52,0,0,0,8-10.69c.86-1.21,1.8-2.45,2.77-3.67-3.73,1.35-1.92.75-3.72-2.09-.75-1.19-3.39,3.16-4.6.24-.59-1.42-2.6,1.54-4.91-.14a9,9,0,0,1-2-1.47C575,484.55,573.47,485.29,571.87,485.35Z" transform="translate(-465.02 -206.34)"/><path class="cls-9" d="M563.13,424.67c10,14,7.24,32.22-6.13,40.66s-32.28,3.93-42.26-10.09c-6.76-9.5-18.32-25.57-48.62-18.81-3.27.73,1.6-5.7,3.84-8.36,11.64-13.88,40-22.94,63.12-19.82C544.68,409.8,558.08,417.58,563.13,424.67Z" transform="translate(-465.02 -206.34)"/><path class="cls-10" d="M546,469.31c-11.38,1.55-23.8-3.61-31.24-14.07-6.76-9.5-18.32-25.57-48.62-18.81-1.4.31-1.3-.69-.56-2.15A68.9,68.9,0,0,1,484,432.83c8.91.34,15.67,2.5,22.44,8.59,13.43,12.07,13.25,16.85,24.19,22.55a34.27,34.27,0,0,0,10.6,3.18A10.38,10.38,0,0,1,546,469.31Z" transform="translate(-465.02 -206.34)"/><path class="cls-11" d="M507.14,445.88c-7.62-7.63-19.66-14.21-41-9.45-3.27.73,1.6-5.7,3.84-8.36,11.64-13.88,40-22.94,63.12-19.82.94.13,1.9.3,2.86.5,4.19,2.7,8.24,5.53,4.49,6.07-16.79,2.42-8.15,2.51-6.73,5.76-.14.11-9.18-.92-11.11-.48,2.85,2.29,3.74,3.7,3.64,3.85s-4-1.81-6.27.61c1,.53,8.54,6,6.74,6.26a31.55,31.55,0,0,1-4.82-.33c-8.27-1.54-8.09-2-3.6,4.32,1.14,1.6-5.51-1.24-4.17.65,5.84,8.2-4.3,1.1-8.6-.67s-1.36,1.25-.29,2.75C507.51,440.75,507.43,443.08,507.14,445.88Z" transform="translate(-465.02 -206.34)"/><path class="cls-12" d="M507.14,445.88c-7.62-7.63-19.66-14.21-41-9.45-1.4.31-1.3-.69-.56-2.15A68.9,68.9,0,0,1,484,432.83c8.91.34,15.67,2.5,22.44,8.59l.7.64A15,15,0,0,1,507.14,445.88Z" transform="translate(-465.02 -206.34)"/><path class="cls-7" d="M574.35,374.22l72.12-41.15c.05.33-4.58,12.76-7.65,25.41s-4.43,23.41-3.52,32.76c1.28,13.17,5.72,23.86,4.21,36.78-.83,7.12-3.14,14.73-8.2,25.44C628.21,460,628,469.73,627,475.6c-.82,4.76-3.79,13.84-4.69,21.82a36.1,36.1,0,0,0,.39,9.07c1.15,6.56,3.2,12.17-4.91,14.51-6.91,2-13.39-15.78-14.81-18.85-2.85-6.18-7.22-13.45-9.57-16.28a32.89,32.89,0,0,0-7.33-6c-1.72-.79-8.37-.22-18.17-8.41-20-16.72-10.38-42.55.84-60.84C575.32,400,581.19,388.33,574.35,374.22Z" transform="translate(-465.02 -206.34)"/><path class="cls-8" d="M622.6,495.48q-.14,1-.25,1.94a36.1,36.1,0,0,0,.39,9.07c1.15,6.56,3.2,12.17-4.91,14.51-6.91,2-13.39-15.78-14.81-18.85-1.09-2.36-2.4-4.88-3.74-7.26.17-.62.56-.88,1.29-.4,4.41,2.89,2.32,1.86,5.11-1.31,1.11-1.26,2.76,4.46,4.82,1.25,1-1.57,2.35,2.36,5.25.86a10.16,10.16,0,0,0,2.51-1.34C618.57,493.68,620.55,495.42,622.6,495.48Z" transform="translate(-465.02 -206.34)"/><path class="cls-7" d="M642,392.46c2.72-.24,6.89-.57,8.91-2,3.72-2.65,7.75-2.95,11.67-.48,3.58,2.25,8.07,3,11.85.57a21.77,21.77,0,0,0,3.76-3.55c1-1.52-2.28-3.39-5.76-5.25-6.14-3.3-11.63-6.61-19.06-5.48-1,.15-13.25.78-14.07.71-6.54-.53-13.54,4.3-8.83,11.27,6.1,9-2.24,4.8,3.94,5.4C634.53,393.64,640.53,392.58,642,392.46Z" transform="translate(-465.02 -206.34)"/><path class="cls-8" d="M642,392.45c2.72-.23,6.84-.57,8.84-2,3.72-2.65,7.75-2.95,11.67-.48,3.58,2.25,8.07,3,11.85.57a21.77,21.77,0,0,0,3.76-3.55c1-1.52-2.28-3.39-5.76-5.25-6.14-3.3-11.63-6.61-19.06-5.48-.49.08-3.74.27-7,.43-.36.64-.87,1.3-1.85,2.68a13.24,13.24,0,0,0-1,1.85c-1.92,2.71.48,3.15.1,4.12-.67,1.71-1.71.87-.57,2.9C643.84,389.74,641.38,390.9,642,392.45Z" transform="translate(-465.02 -206.34)"/><path class="cls-11" d="M639.31,356.46c-.17.67-.34,1.35-.5,2-3,12.51-4.43,23.41-3.52,32.76,1.28,13.17,5.72,23.86,4.21,36.78-.83,7.11-3.13,14.7-8.18,25.39-14.54-2-30.74-18.86-32.23-40.25-.57-8.25,2.4-29.54-2.65-35.39C583.64,362.94,628.7,356.47,639.31,356.46Z" transform="translate(-465.02 -206.34)"/><path class="cls-7" d="M626.52,376c-10.54,3-56.73,1.59-67.14-4-1.13-.61,2-10.28.5-17.09a70.39,70.39,0,0,0-2.76-9.31c-.22-.58-.93-1.46-1.55-1.56-11-1.82-31.63-18.3-34.86-41.26-.09-.65,24.86-3.6,43.63,7.47,6.28-6.09,15-10.68,24.88-13.52s20-3.72,29.15-2.1c7.64-18.7,19.37-25.4,19.73-24.83,12.9,20.17,13.69,39,10.14,47.45a3.31,3.31,0,0,0-.19,2.06,72.15,72.15,0,0,0,4.07,8.93c3.35,6.28,12.43,12.41,11.94,13.49C659.47,351.64,637.07,372.94,626.52,376Z" transform="translate(-465.02 -206.34)"/><path class="cls-13" d="M648.61,316.21c-.12.34-.24.67-.37,1a3.31,3.31,0,0,0-.19,2.06l0,.1,0,.1,0,.1h0l0,.1,0,.1h0l0,.1,0,.1h0l0,.11,0,.11,0,.11h0l0,.11h0l0,.11h0l0,.11h0l0,.11h0l0,.12h0l0,.12h0l0,.12h0l0,.12h0l.05.12h0l.05.12h0l0,.12h0l.05.13h0l.05.13h0l.05.13h0l.05.13h0l.06.13.05.13h0l.06.13h0l.06.13.06.14h0l.06.14h0l.06.14h0l.06.14h0l.06.14h0l.06.14.07.15.07.15h0l.06.15.07.15h0l.07.15h0l.07.15h0l.07.15.07.15.07.16.08.16h0l.08.16h0l.08.16.08.16.08.16.08.16.08.16.08.17.08.17.09.17.08.17.09.17.09.17.09.17.09.17.09.18.1.18.09.18.1.18.1.18c3.35,6.28,12.43,12.41,11.94,13.49-.06.14-.14.28-.21.43l-.05.11-.21.4,0,.05-.26.44-.1.17-.21.33-.08.13-.31.47-.1.15-.28.4-.08.12-.38.52-.06.07-.37.5-.07.09-.4.51,0,.06h0l-.09.11-.34.42-.18.22-.35.41-.1.12,0,0-.46.54-.17.19-.36.41-.18.21-.48.54-.18.2-.39.43-.2.22,0,.05-.45.48-.29.3-.29.31-.26.28-.37.38-.52.53-.22.22-.35.35-.4.4-.16.16,0,0-.51.5-.06.05-.32.32-.34.33-.32.31-.53.51,0,0-.37.35-.29.28-.38.36h0l-.55.51-.48.44-.12.12-.51.46,0,0q-1.11,1-2.26,2l-.58.51-1.17,1-.59.5c-2.14,1.82-4.32,3.58-6.47,5.25l-.19.15c-1.14.88-2.28,1.73-3.39,2.54l-.06,0-.55.4c-4.58-2.2-12.18-2,1.07-14.32h0l-.19-.32h0l0,0h0l-.08-.14-5.3,2.13c-1.76-3-15.05-41.67-10.88-63.9.39-1,8.06,1.53,17,9A173.34,173.34,0,0,1,648.61,316.21Z" transform="translate(-465.02 -206.34)"/><path class="cls-13" d="M626.23,371.62c-10.54,3-56.44,6-66.85.32-1.13-.61,2-10.28.5-17.09a69.85,69.85,0,0,0-2.76-9.31,3.2,3.2,0,0,0-.6-.94c.15-.79-2.08-22.15,7.82-34.41h0c18.33-4.89,63.21,44,64.9,48.27l-8.15,3.66.23.57h0c18.69-1.39,13.35,4,12.17,8.7C632.45,371.82,660.21,346.33,626.23,371.62Z" transform="translate(-465.02 -206.34)"/><path class="cls-14" d="M624.83,378.19c-6.26,1.28-13.88,1.71-22.71,1.62-10.49-.12-22.19-1.11-28.28-4.27-1.33-.69-2-17.29,13.37-20.53,6-1.26,36.3.17,41.79,4.32,5.52-10.8,7.57-17.32,15.1-19.86,13.65-4.59,20.19,2.71,19.08,3.8C654.27,357.82,637.48,372.74,624.83,378.19Z" transform="translate(-465.02 -206.34)"/><path class="cls-11" d="M632.23,377.23c-13.68,2.8-56.17,1.7-73.47-4-1.43-.47,13.31-15.83,28.7-19.06,6-1.26,36.3.17,41.79,4.32,5.52-10.8,7.57-17.32,15.1-19.86,13.64-4.59,22.39,2,21.27,3.11C656.71,356.27,644.88,371.79,632.23,377.23Z" transform="translate(-465.02 -206.34)"/><path class="cls-15" d="M628.55,355.58c3-1,6-1.79,5.91-.85-.2,1.47-3,8.14-3.22,9.68-1.07-1.16-7.13-5.27-8.12-6.4C622.49,357.3,625.45,356.36,628.55,355.58Z" transform="translate(-465.02 -206.34)"/><path class="cls-15" d="M637,342.91a5.9,5.9,0,0,0,0,2.39c.55-.22,2-2.1,3.68-3.47a28.88,28.88,0,0,1,4.61-2.61c.91-.5-4.84-1.06-5.52-.7C637.58,339.71,637.42,341.68,637,342.91Z" transform="translate(-465.02 -206.34)"/><path class="cls-15" d="M600.81,352.78a6.22,6.22,0,0,1,1.71,2c-.64.19-3.2-.43-5.69-.41a34.74,34.74,0,0,0-5.92.92c-1.16.19,3.52-4.09,4.38-4.24C598.08,350.51,599.61,352,600.81,352.78Z" transform="translate(-465.02 -206.34)"/><path class="cls-16" d="M636.19,275.8c-1.81-.67-7.35,9.08-7.57,17.38,0,.42,4.13-2,4.13-1.58,0,1.64-.06,3.78,0,5.49.14,3.8,2.61-7.41,4.09,4.76.14,1.15,2.6-1.25,3.58-.94.66.2,1.12,3,2,2.9C647.25,303.21,643.9,278.64,636.19,275.8Z" transform="translate(-465.02 -206.34)"/><path class="cls-16" d="M528.52,307.09c.71-2.18,15,.25,23.79,6.44.45.32-5.24,2.24-4.82,2.57,1.67,1.28,4,2.86,5.67,4.23,3.82,3-9.67-3.31,1.77,7.41,1.08,1-3.29,1.43-3.73,2.56-.3.76,2.25,3.35,1.44,4.1C548.34,338.36,525.52,316.35,528.52,307.09Z" transform="translate(-465.02 -206.34)"/><path class="cls-7" d="M574.85,400c1.95-.68,3.87-1.93,6.1-1.82,5.89.29,12.21.32,17.59,2.53,1.32,2.83-.38,2.23.58,6.39.92,4,7.82,7.49,11.24,9.74,1,.66,5.14,3.47,5.6,4.15a27.63,27.63,0,0,0,2.62,3,16.18,16.18,0,0,1,3.75,6.31c.65,1.74.23,1.64.23,2.94,0,2.53.46,7-.93,9.22-3.21,5.05-5.85.52-9-1.73-4.25-3.07-2.5-1.32-4.51-5.51-1.1-2.3-.53-1.67-3.05-3.32-.19-.13-3.65-1.51-3.93-1.53-.53-.05-3.73-1.1-3.74-1.1-1.21,0-5.8-1.8-7.6-2.15-2-.38-4.73-1.66-5.74-1.8s-3.07-2.38-3.44-2.66c-2.56-1.92-.94-3.33-2.64-4.08-1.1-.48-1.44-2-2.06-3-.1-.16-.74-3.7-1.71-2.28s-.66-.16-.87-.81c-.29-.88.52-5.42.85-6A7.28,7.28,0,0,0,574.85,400Z" transform="translate(-465.02 -206.34)"/><path class="cls-8" d="M607.17,415.1a9.3,9.3,0,0,1-4.31-1.07c-.45-.36-2-.7-3.05-1.45-.34-.25-.48-.13-.85-.43a15.23,15.23,0,0,0,1.9,1.82,14.82,14.82,0,0,1,1.42,2.06c-.69,1.16-1.33.94-2.58.9s-3.43-.93-4.26-.63c-1.09.4,5.28,4.76-1.5,3.51-2-.38-3.34-.78-2.28,1.59s-.27,2.17-2.26,2.34c-1.29.11-2-.74-1.34,1.42.09.29-.21.46,0,.8a12,12,0,0,0,1.2.39c1.77.47,6.21,2.53,7.41,2.66,0,0,3.13,1.27,3.65,1.36.28,0,3.62,1.66,3.8,1.8,2.38,1.82,1.87,1.14,2.79,3.52,1.68,4.31.07,2.45,4.07,5.8,2.93,2.46,5.22,7.16,8.81,2.34,1.55-2.09,1.44-6.61,1.63-9.14.1-1.31.51-1.17,0-3a16,16,0,0,0-3.26-6.55,27.05,27.05,0,0,1-2.39-3.15c-.4-.72-4.3-3.79-5.26-4.52S608.4,416,607.17,415.1Z" transform="translate(-465.02 -206.34)"/></svg>